<svg id="visual" viewBox="0 0 900 600" width="900" height="600" xmlns="http://www.w3.org/2000/svg" xmlns:xlink="http://www.w3.org/1999/xlink" version="1.1"><g stroke-width="1" stroke-linejoin="bevel"><path d="M461 331L504 237L429 262Z" fill="#222222" stroke="#222222"></path><path d="M461 331L602 272L504 237Z" fill="#2d2d2d" stroke="#2d2d2d"></path><path d="M461 331L576 375L602 272Z" fill="#333333" stroke="#333333"></path><path d="M602 272L567 174L504 237Z" fill="#1b1b1b" stroke="#1b1b1b"></path><path d="M504 237L378 171L429 262Z" fill="#333333" stroke="#333333"></path><path d="M491 80L378 171L504 237Z" fill="#222222" stroke="#222222"></path><path d="M429 262L314 333L461 331Z" fill="#303030" stroke="#303030"></path><path d="M461 331L514 429L576 375Z" fill="#282828" stroke="#282828"></path><path d="M288 202L314 333L429 262Z" fill="#333333" stroke="#333333"></path><path d="M461 331L374 431L514 429Z" fill="#2b2b2b" stroke="#2b2b2b"></path><path d="M314 333L374 431L461 331Z" fill="#2b2b2b" stroke="#2b2b2b"></path><path d="M680 283L669 231L602 272Z" fill="#222222" stroke="#222222"></path><path d="M602 272L669 231L567 174Z" fill="#303030" stroke="#303030"></path><path d="M607 86L491 80L567 174Z" fill="#282828" stroke="#282828"></path><path d="M567 174L491 80L504 237Z" fill="#252525" stroke="#252525"></path><path d="M576 375L680 283L602 272Z" fill="#222222" stroke="#222222"></path><path d="M288 95L288 202L378 171Z" fill="#202020" stroke="#202020"></path><path d="M378 171L288 202L429 262Z" fill="#202020" stroke="#202020"></path><path d="M203 320L291 385L314 333Z" fill="#303030" stroke="#303030"></path><path d="M314 333L291 385L374 431Z" fill="#282828" stroke="#282828"></path><path d="M514 429L593 462L576 375Z" fill="#282828" stroke="#282828"></path><path d="M576 375L678 430L680 283Z" fill="#1d1d1d" stroke="#1d1d1d"></path><path d="M478 511L593 462L514 429Z" fill="#252525" stroke="#252525"></path><path d="M491 80L366 82L378 171Z" fill="#303030" stroke="#303030"></path><path d="M368 514L478 511L374 431Z" fill="#2b2b2b" stroke="#2b2b2b"></path><path d="M374 431L478 511L514 429Z" fill="#1b1b1b" stroke="#1b1b1b"></path><path d="M707 132L607 86L567 174Z" fill="#1d1d1d" stroke="#1d1d1d"></path><path d="M733 524L678 430L593 462Z" fill="#181818" stroke="#181818"></path><path d="M593 462L678 430L576 375Z" fill="#1b1b1b" stroke="#1b1b1b"></path><path d="M322 488L368 514L374 431Z" fill="#2b2b2b" stroke="#2b2b2b"></path><path d="M291 385L322 488L374 431Z" fill="#333333" stroke="#333333"></path><path d="M366 82L288 95L378 171Z" fill="#303030" stroke="#303030"></path><path d="M669 231L707 132L567 174Z" fill="#1d1d1d" stroke="#1d1d1d"></path><path d="M820 232L707 132L669 231Z" fill="#282828" stroke="#282828"></path><path d="M820 232L669 231L680 283Z" fill="#333333" stroke="#333333"></path><path d="M288 202L203 320L314 333Z" fill="#202020" stroke="#202020"></path><path d="M291 385L167 512L322 488Z" fill="#2d2d2d" stroke="#2d2d2d"></path><path d="M208 163L203 320L288 202Z" fill="#222222" stroke="#222222"></path><path d="M203 320L202 361L291 385Z" fill="#252525" stroke="#252525"></path><path d="M607 86L531 0L491 80Z" fill="#333333" stroke="#333333"></path><path d="M491 80L394 0L366 82Z" fill="#181818" stroke="#181818"></path><path d="M366 82L289 0L288 95Z" fill="#2d2d2d" stroke="#2d2d2d"></path><path d="M592 0L531 0L607 86Z" fill="#2d2d2d" stroke="#2d2d2d"></path><path d="M531 0L394 0L491 80Z" fill="#2b2b2b" stroke="#2b2b2b"></path><path d="M194 98L208 163L288 95Z" fill="#303030" stroke="#303030"></path><path d="M288 95L208 163L288 202Z" fill="#181818" stroke="#181818"></path><path d="M693 0L592 0L607 86Z" fill="#2b2b2b" stroke="#2b2b2b"></path><path d="M393 600L508 600L478 511Z" fill="#222222" stroke="#222222"></path><path d="M478 511L508 600L593 462Z" fill="#181818" stroke="#181818"></path><path d="M393 600L478 511L368 514Z" fill="#181818" stroke="#181818"></path><path d="M266 600L368 514L322 488Z" fill="#1b1b1b" stroke="#1b1b1b"></path><path d="M266 600L393 600L368 514Z" fill="#252525" stroke="#252525"></path><path d="M289 0L194 98L288 95Z" fill="#333333" stroke="#333333"></path><path d="M99 222L101 278L203 320Z" fill="#252525" stroke="#252525"></path><path d="M203 320L101 278L202 361Z" fill="#202020" stroke="#202020"></path><path d="M394 0L289 0L366 82Z" fill="#2b2b2b" stroke="#2b2b2b"></path><path d="M508 600L607 600L593 462Z" fill="#2d2d2d" stroke="#2d2d2d"></path><path d="M819 471L810 375L678 430Z" fill="#181818" stroke="#181818"></path><path d="M678 430L810 375L680 283Z" fill="#181818" stroke="#181818"></path><path d="M837 309L820 232L680 283Z" fill="#1d1d1d" stroke="#1d1d1d"></path><path d="M707 132L693 0L607 86Z" fill="#303030" stroke="#303030"></path><path d="M689 600L733 524L593 462Z" fill="#222222" stroke="#222222"></path><path d="M780 0L693 0L707 132Z" fill="#1b1b1b" stroke="#1b1b1b"></path><path d="M810 375L837 309L680 283Z" fill="#2d2d2d" stroke="#2d2d2d"></path><path d="M99 222L203 320L208 163Z" fill="#222222" stroke="#222222"></path><path d="M167 512L266 600L322 488Z" fill="#303030" stroke="#303030"></path><path d="M820 232L823 126L707 132Z" fill="#333333" stroke="#333333"></path><path d="M900 191L823 126L820 232Z" fill="#222222" stroke="#222222"></path><path d="M167 512L291 385L202 361Z" fill="#181818" stroke="#181818"></path><path d="M607 600L689 600L593 462Z" fill="#202020" stroke="#202020"></path><path d="M194 98L99 222L208 163Z" fill="#2d2d2d" stroke="#2d2d2d"></path><path d="M110 491L167 512L202 361Z" fill="#222222" stroke="#222222"></path><path d="M787 600L819 471L733 524Z" fill="#2d2d2d" stroke="#2d2d2d"></path><path d="M733 524L819 471L678 430Z" fill="#2b2b2b" stroke="#2b2b2b"></path><path d="M900 375L900 307L837 309Z" fill="#202020" stroke="#202020"></path><path d="M167 512L228 600L266 600Z" fill="#2b2b2b" stroke="#2b2b2b"></path><path d="M823 126L780 0L707 132Z" fill="#1d1d1d" stroke="#1d1d1d"></path><path d="M289 0L163 0L194 98Z" fill="#1d1d1d" stroke="#1d1d1d"></path><path d="M194 98L64 60L99 222Z" fill="#333333" stroke="#333333"></path><path d="M68 414L110 491L202 361Z" fill="#333333" stroke="#333333"></path><path d="M167 512L122 600L228 600Z" fill="#222222" stroke="#222222"></path><path d="M900 375L837 309L810 375Z" fill="#303030" stroke="#303030"></path><path d="M837 309L900 307L820 232Z" fill="#202020" stroke="#202020"></path><path d="M823 126L900 0L780 0Z" fill="#1b1b1b" stroke="#1b1b1b"></path><path d="M101 278L68 414L202 361Z" fill="#181818" stroke="#181818"></path><path d="M0 372L68 414L101 278Z" fill="#333333" stroke="#333333"></path><path d="M900 307L900 191L820 232Z" fill="#252525" stroke="#252525"></path><path d="M819 471L900 375L810 375Z" fill="#2d2d2d" stroke="#2d2d2d"></path><path d="M689 600L787 600L733 524Z" fill="#2b2b2b" stroke="#2b2b2b"></path><path d="M819 471L900 475L900 375Z" fill="#2b2b2b" stroke="#2b2b2b"></path><path d="M900 191L900 101L823 126Z" fill="#1b1b1b" stroke="#1b1b1b"></path><path d="M900 600L900 475L819 471Z" fill="#333333" stroke="#333333"></path><path d="M163 0L64 60L194 98Z" fill="#2d2d2d" stroke="#2d2d2d"></path><path d="M99 222L0 300L101 278Z" fill="#181818" stroke="#181818"></path><path d="M110 491L122 600L167 512Z" fill="#2b2b2b" stroke="#2b2b2b"></path><path d="M0 519L122 600L110 491Z" fill="#181818" stroke="#181818"></path><path d="M0 187L0 300L99 222Z" fill="#202020" stroke="#202020"></path><path d="M68 414L0 519L110 491Z" fill="#333333" stroke="#333333"></path><path d="M0 300L0 372L101 278Z" fill="#252525" stroke="#252525"></path><path d="M64 60L0 187L99 222Z" fill="#2d2d2d" stroke="#2d2d2d"></path><path d="M163 0L60 0L64 60Z" fill="#1d1d1d" stroke="#1d1d1d"></path><path d="M64 60L0 80L0 187Z" fill="#222222" stroke="#222222"></path><path d="M900 101L900 0L823 126Z" fill="#252525" stroke="#252525"></path><path d="M0 0L0 80L64 60Z" fill="#333333" stroke="#333333"></path><path d="M787 600L900 600L819 471Z" fill="#2d2d2d" stroke="#2d2d2d"></path><path d="M0 372L0 519L68 414Z" fill="#181818" stroke="#181818"></path><path d="M60 0L0 0L64 60Z" fill="#333333" stroke="#333333"></path><path d="M0 519L0 600L122 600Z" fill="#1b1b1b" stroke="#1b1b1b"></path></g></svg>