<svg id="visual" viewBox="0 0 900 600" width="900" height="600" xmlns="http://www.w3.org/2000/svg" xmlns:xlink="http://www.w3.org/1999/xlink" version="1.1"><g stroke-width="1" stroke-linejoin="bevel"><path d="M428 296L463 385L462 276Z" fill="#222222" stroke="#222222"></path><path d="M428 296L386 386L463 385Z" fill="#2d2d2d" stroke="#2d2d2d"></path><path d="M463 385L581 380L462 276Z" fill="#1b1b1b" stroke="#1b1b1b"></path><path d="M581 380L595 293L462 276Z" fill="#282828" stroke="#282828"></path><path d="M511 164L433 174L462 276Z" fill="#303030" stroke="#303030"></path><path d="M462 276L433 174L428 296Z" fill="#2d2d2d" stroke="#2d2d2d"></path><path d="M428 296L310 335L386 386Z" fill="#252525" stroke="#252525"></path><path d="M316 186L310 335L428 296Z" fill="#282828" stroke="#282828"></path><path d="M595 293L511 164L462 276Z" fill="#202020" stroke="#202020"></path><path d="M386 386L388 491L463 385Z" fill="#202020" stroke="#202020"></path><path d="M463 385L535 504L581 380Z" fill="#181818" stroke="#181818"></path><path d="M284 406L388 491L386 386Z" fill="#303030" stroke="#303030"></path><path d="M388 491L535 504L463 385Z" fill="#333333" stroke="#333333"></path><path d="M535 504L573 495L581 380Z" fill="#202020" stroke="#202020"></path><path d="M581 380L665 324L595 293Z" fill="#2d2d2d" stroke="#2d2d2d"></path><path d="M673 381L665 324L581 380Z" fill="#303030" stroke="#303030"></path><path d="M595 293L624 179L511 164Z" fill="#2b2b2b" stroke="#2b2b2b"></path><path d="M310 335L284 406L386 386Z" fill="#252525" stroke="#252525"></path><path d="M573 495L673 381L581 380Z" fill="#1b1b1b" stroke="#1b1b1b"></path><path d="M406 80L316 186L433 174Z" fill="#222222" stroke="#222222"></path><path d="M433 174L316 186L428 296Z" fill="#282828" stroke="#282828"></path><path d="M310 335L208 371L284 406Z" fill="#202020" stroke="#202020"></path><path d="M715 225L624 179L595 293Z" fill="#333333" stroke="#333333"></path><path d="M624 179L533 124L511 164Z" fill="#2b2b2b" stroke="#2b2b2b"></path><path d="M511 164L406 80L433 174Z" fill="#303030" stroke="#303030"></path><path d="M208 371L268 477L284 406Z" fill="#252525" stroke="#252525"></path><path d="M284 406L268 477L388 491Z" fill="#202020" stroke="#202020"></path><path d="M533 124L406 80L511 164Z" fill="#252525" stroke="#252525"></path><path d="M624 179L599 102L533 124Z" fill="#202020" stroke="#202020"></path><path d="M533 124L495 0L406 80Z" fill="#303030" stroke="#303030"></path><path d="M665 324L715 225L595 293Z" fill="#303030" stroke="#303030"></path><path d="M624 179L707 124L599 102Z" fill="#282828" stroke="#282828"></path><path d="M781 316L715 225L665 324Z" fill="#1d1d1d" stroke="#1d1d1d"></path><path d="M176 271L208 371L310 335Z" fill="#1d1d1d" stroke="#1d1d1d"></path><path d="M404 600L538 600L535 504Z" fill="#1b1b1b" stroke="#1b1b1b"></path><path d="M535 504L538 600L573 495Z" fill="#282828" stroke="#282828"></path><path d="M573 495L735 514L673 381Z" fill="#181818" stroke="#181818"></path><path d="M404 600L535 504L388 491Z" fill="#202020" stroke="#202020"></path><path d="M297 600L404 600L388 491Z" fill="#1b1b1b" stroke="#1b1b1b"></path><path d="M232 120L196 220L316 186Z" fill="#181818" stroke="#181818"></path><path d="M316 186L196 220L310 335Z" fill="#2d2d2d" stroke="#2d2d2d"></path><path d="M196 220L176 271L310 335Z" fill="#303030" stroke="#303030"></path><path d="M803 363L781 316L673 381Z" fill="#1d1d1d" stroke="#1d1d1d"></path><path d="M673 381L781 316L665 324Z" fill="#181818" stroke="#181818"></path><path d="M826 202L707 124L715 225Z" fill="#333333" stroke="#333333"></path><path d="M715 225L707 124L624 179Z" fill="#333333" stroke="#333333"></path><path d="M538 600L635 600L573 495Z" fill="#2b2b2b" stroke="#2b2b2b"></path><path d="M267 68L232 120L316 186Z" fill="#282828" stroke="#282828"></path><path d="M196 220L126 212L176 271Z" fill="#2d2d2d" stroke="#2d2d2d"></path><path d="M268 477L297 600L388 491Z" fill="#2d2d2d" stroke="#2d2d2d"></path><path d="M191 521L297 600L268 477Z" fill="#1b1b1b" stroke="#1b1b1b"></path><path d="M663 600L735 514L573 495Z" fill="#181818" stroke="#181818"></path><path d="M635 600L663 600L573 495Z" fill="#333333" stroke="#333333"></path><path d="M562 0L533 124L599 102Z" fill="#2d2d2d" stroke="#2d2d2d"></path><path d="M562 0L495 0L533 124Z" fill="#282828" stroke="#282828"></path><path d="M406 80L267 68L316 186Z" fill="#252525" stroke="#252525"></path><path d="M316 0L267 68L406 80Z" fill="#333333" stroke="#333333"></path><path d="M495 0L431 0L406 80Z" fill="#2d2d2d" stroke="#2d2d2d"></path><path d="M735 514L803 363L673 381Z" fill="#282828" stroke="#282828"></path><path d="M781 316L826 202L715 225Z" fill="#252525" stroke="#252525"></path><path d="M99 431L191 521L208 371Z" fill="#181818" stroke="#181818"></path><path d="M208 371L191 521L268 477Z" fill="#252525" stroke="#252525"></path><path d="M669 0L562 0L599 102Z" fill="#2b2b2b" stroke="#2b2b2b"></path><path d="M232 120L126 212L196 220Z" fill="#2b2b2b" stroke="#2b2b2b"></path><path d="M65 326L99 431L208 371Z" fill="#282828" stroke="#282828"></path><path d="M83 88L126 212L232 120Z" fill="#2b2b2b" stroke="#2b2b2b"></path><path d="M431 0L316 0L406 80Z" fill="#282828" stroke="#282828"></path><path d="M267 68L239 0L232 120Z" fill="#333333" stroke="#333333"></path><path d="M900 324L826 202L781 316Z" fill="#252525" stroke="#252525"></path><path d="M707 124L669 0L599 102Z" fill="#303030" stroke="#303030"></path><path d="M760 0L669 0L707 124Z" fill="#181818" stroke="#181818"></path><path d="M65 326L208 371L176 271Z" fill="#1b1b1b" stroke="#1b1b1b"></path><path d="M809 600L801 532L735 514Z" fill="#1b1b1b" stroke="#1b1b1b"></path><path d="M735 514L801 532L803 363Z" fill="#202020" stroke="#202020"></path><path d="M803 363L900 324L781 316Z" fill="#333333" stroke="#333333"></path><path d="M191 521L173 600L297 600Z" fill="#333333" stroke="#333333"></path><path d="M81 600L173 600L191 521Z" fill="#303030" stroke="#303030"></path><path d="M316 0L239 0L267 68Z" fill="#1b1b1b" stroke="#1b1b1b"></path><path d="M0 260L65 326L126 212Z" fill="#1d1d1d" stroke="#1d1d1d"></path><path d="M126 212L65 326L176 271Z" fill="#1d1d1d" stroke="#1d1d1d"></path><path d="M900 410L900 324L803 363Z" fill="#303030" stroke="#303030"></path><path d="M663 600L809 600L735 514Z" fill="#2b2b2b" stroke="#2b2b2b"></path><path d="M801 532L900 410L803 363Z" fill="#181818" stroke="#181818"></path><path d="M900 122L835 90L826 202Z" fill="#333333" stroke="#333333"></path><path d="M826 202L835 90L707 124Z" fill="#333333" stroke="#333333"></path><path d="M900 520L900 410L801 532Z" fill="#303030" stroke="#303030"></path><path d="M835 90L760 0L707 124Z" fill="#303030" stroke="#303030"></path><path d="M0 467L66 511L99 431Z" fill="#282828" stroke="#282828"></path><path d="M99 431L66 511L191 521Z" fill="#222222" stroke="#222222"></path><path d="M900 324L900 217L826 202Z" fill="#222222" stroke="#222222"></path><path d="M239 0L83 88L232 120Z" fill="#181818" stroke="#181818"></path><path d="M900 600L900 520L801 532Z" fill="#1b1b1b" stroke="#1b1b1b"></path><path d="M66 511L81 600L191 521Z" fill="#1d1d1d" stroke="#1d1d1d"></path><path d="M65 326L0 397L99 431Z" fill="#282828" stroke="#282828"></path><path d="M66 511L0 600L81 600Z" fill="#2b2b2b" stroke="#2b2b2b"></path><path d="M0 260L0 397L65 326Z" fill="#181818" stroke="#181818"></path><path d="M0 167L0 260L126 212Z" fill="#202020" stroke="#202020"></path><path d="M900 217L900 122L826 202Z" fill="#282828" stroke="#282828"></path><path d="M835 90L900 0L760 0Z" fill="#1d1d1d" stroke="#1d1d1d"></path><path d="M0 397L0 467L99 431Z" fill="#222222" stroke="#222222"></path><path d="M83 88L0 167L126 212Z" fill="#282828" stroke="#282828"></path><path d="M809 600L900 600L801 532Z" fill="#181818" stroke="#181818"></path><path d="M239 0L85 0L83 88Z" fill="#303030" stroke="#303030"></path><path d="M83 88L0 124L0 167Z" fill="#2d2d2d" stroke="#2d2d2d"></path><path d="M0 0L0 124L83 88Z" fill="#303030" stroke="#303030"></path><path d="M900 122L900 0L835 90Z" fill="#1b1b1b" stroke="#1b1b1b"></path><path d="M0 467L0 600L66 511Z" fill="#282828" stroke="#282828"></path><path d="M85 0L0 0L83 88Z" fill="#1b1b1b" stroke="#1b1b1b"></path></g></svg>