<svg id="visual" viewBox="0 0 900 600" width="900" height="600" xmlns="http://www.w3.org/2000/svg" xmlns:xlink="http://www.w3.org/1999/xlink" version="1.1"><g stroke-width="1" stroke-linejoin="bevel"><path d="M463 321L377 309L395 419Z" fill="#1d1d1d" stroke="#1d1d1d"></path><path d="M377 309L338 377L395 419Z" fill="#333333" stroke="#333333"></path><path d="M377 309L338 319L338 377Z" fill="#2b2b2b" stroke="#2b2b2b"></path><path d="M338 377L371 466L395 419Z" fill="#333333" stroke="#333333"></path><path d="M395 419L527 409L463 321Z" fill="#202020" stroke="#202020"></path><path d="M490 506L527 409L395 419Z" fill="#252525" stroke="#252525"></path><path d="M383 164L312 239L377 309Z" fill="#333333" stroke="#333333"></path><path d="M377 309L312 239L338 319Z" fill="#222222" stroke="#222222"></path><path d="M338 319L227 363L338 377Z" fill="#282828" stroke="#282828"></path><path d="M371 466L490 506L395 419Z" fill="#222222" stroke="#222222"></path><path d="M627 498L593 403L527 409Z" fill="#333333" stroke="#333333"></path><path d="M527 409L620 335L463 321Z" fill="#2d2d2d" stroke="#2d2d2d"></path><path d="M312 239L227 363L338 319Z" fill="#2d2d2d" stroke="#2d2d2d"></path><path d="M338 377L307 530L371 466Z" fill="#181818" stroke="#181818"></path><path d="M620 335L517 200L463 321Z" fill="#303030" stroke="#303030"></path><path d="M463 321L383 164L377 309Z" fill="#202020" stroke="#202020"></path><path d="M517 200L383 164L463 321Z" fill="#282828" stroke="#282828"></path><path d="M227 363L307 530L338 377Z" fill="#202020" stroke="#202020"></path><path d="M371 466L429 600L490 506Z" fill="#2d2d2d" stroke="#2d2d2d"></path><path d="M593 403L620 335L527 409Z" fill="#2b2b2b" stroke="#2b2b2b"></path><path d="M307 530L429 600L371 466Z" fill="#222222" stroke="#222222"></path><path d="M627 498L662 360L593 403Z" fill="#333333" stroke="#333333"></path><path d="M517 200L435 118L383 164Z" fill="#2b2b2b" stroke="#2b2b2b"></path><path d="M195 210L312 239L309 98Z" fill="#1b1b1b" stroke="#1b1b1b"></path><path d="M195 210L170 325L312 239Z" fill="#2d2d2d" stroke="#2d2d2d"></path><path d="M312 239L170 325L227 363Z" fill="#303030" stroke="#303030"></path><path d="M227 363L172 474L307 530Z" fill="#2b2b2b" stroke="#2b2b2b"></path><path d="M627 498L527 409L490 506Z" fill="#282828" stroke="#282828"></path><path d="M593 403L662 360L620 335Z" fill="#303030" stroke="#303030"></path><path d="M620 335L620 168L517 200Z" fill="#222222" stroke="#222222"></path><path d="M539 600L627 498L490 506Z" fill="#1b1b1b" stroke="#1b1b1b"></path><path d="M221 600L306 600L307 530Z" fill="#2b2b2b" stroke="#2b2b2b"></path><path d="M307 530L306 600L429 600Z" fill="#222222" stroke="#222222"></path><path d="M309 98L312 239L383 164Z" fill="#252525" stroke="#252525"></path><path d="M113 386L172 474L227 363Z" fill="#2d2d2d" stroke="#2d2d2d"></path><path d="M429 600L539 600L490 506Z" fill="#1d1d1d" stroke="#1d1d1d"></path><path d="M517 200L498 98L435 118Z" fill="#222222" stroke="#222222"></path><path d="M620 168L498 98L517 200Z" fill="#202020" stroke="#202020"></path><path d="M677 228L620 168L620 335Z" fill="#333333" stroke="#333333"></path><path d="M435 0L309 98L435 118Z" fill="#181818" stroke="#181818"></path><path d="M435 118L309 98L383 164Z" fill="#1d1d1d" stroke="#1d1d1d"></path><path d="M725 320L677 228L620 335Z" fill="#1b1b1b" stroke="#1b1b1b"></path><path d="M112 225L119 338L170 325Z" fill="#202020" stroke="#202020"></path><path d="M170 325L113 386L227 363Z" fill="#282828" stroke="#282828"></path><path d="M113 386L138 476L172 474Z" fill="#333333" stroke="#333333"></path><path d="M172 474L221 600L307 530Z" fill="#333333" stroke="#333333"></path><path d="M119 338L113 386L170 325Z" fill="#181818" stroke="#181818"></path><path d="M660 600L683 507L627 498Z" fill="#202020" stroke="#202020"></path><path d="M627 498L683 507L662 360Z" fill="#181818" stroke="#181818"></path><path d="M662 360L725 320L620 335Z" fill="#1b1b1b" stroke="#1b1b1b"></path><path d="M119 600L221 600L172 474Z" fill="#2b2b2b" stroke="#2b2b2b"></path><path d="M760 433L725 320L662 360Z" fill="#222222" stroke="#222222"></path><path d="M539 600L627 600L627 498Z" fill="#252525" stroke="#252525"></path><path d="M195 210L112 225L170 325Z" fill="#181818" stroke="#181818"></path><path d="M119 338L0 368L113 386Z" fill="#202020" stroke="#202020"></path><path d="M138 129L112 225L195 210Z" fill="#252525" stroke="#252525"></path><path d="M627 600L660 600L627 498Z" fill="#303030" stroke="#303030"></path><path d="M735 84L620 168L677 228Z" fill="#1d1d1d" stroke="#1d1d1d"></path><path d="M735 84L615 75L620 168Z" fill="#333333" stroke="#333333"></path><path d="M620 168L615 75L498 98Z" fill="#222222" stroke="#222222"></path><path d="M308 0L205 73L309 98Z" fill="#252525" stroke="#252525"></path><path d="M683 507L760 433L662 360Z" fill="#222222" stroke="#222222"></path><path d="M770 483L760 433L683 507Z" fill="#303030" stroke="#303030"></path><path d="M435 0L435 118L498 98Z" fill="#2b2b2b" stroke="#2b2b2b"></path><path d="M309 98L205 73L195 210Z" fill="#181818" stroke="#181818"></path><path d="M205 73L138 129L195 210Z" fill="#1d1d1d" stroke="#1d1d1d"></path><path d="M525 0L435 0L498 98Z" fill="#2d2d2d" stroke="#2d2d2d"></path><path d="M435 0L308 0L309 98Z" fill="#181818" stroke="#181818"></path><path d="M615 75L525 0L498 98Z" fill="#181818" stroke="#181818"></path><path d="M802 600L770 483L683 507Z" fill="#2d2d2d" stroke="#2d2d2d"></path><path d="M138 476L119 600L172 474Z" fill="#2b2b2b" stroke="#2b2b2b"></path><path d="M0 490L119 600L138 476Z" fill="#202020" stroke="#202020"></path><path d="M900 327L804 274L900 399Z" fill="#303030" stroke="#303030"></path><path d="M760 433L804 274L725 320Z" fill="#1d1d1d" stroke="#1d1d1d"></path><path d="M725 320L804 274L677 228Z" fill="#1d1d1d" stroke="#1d1d1d"></path><path d="M714 0L600 0L615 75Z" fill="#303030" stroke="#303030"></path><path d="M615 75L600 0L525 0Z" fill="#333333" stroke="#333333"></path><path d="M804 274L798 213L677 228Z" fill="#1b1b1b" stroke="#1b1b1b"></path><path d="M0 319L0 368L119 338Z" fill="#333333" stroke="#333333"></path><path d="M113 386L0 490L138 476Z" fill="#1b1b1b" stroke="#1b1b1b"></path><path d="M0 319L119 338L112 225Z" fill="#333333" stroke="#333333"></path><path d="M0 168L0 319L112 225Z" fill="#303030" stroke="#303030"></path><path d="M798 213L735 84L677 228Z" fill="#252525" stroke="#252525"></path><path d="M205 73L110 0L138 129Z" fill="#1d1d1d" stroke="#1d1d1d"></path><path d="M138 129L0 168L112 225Z" fill="#1d1d1d" stroke="#1d1d1d"></path><path d="M308 0L185 0L205 73Z" fill="#333333" stroke="#333333"></path><path d="M0 368L0 490L113 386Z" fill="#282828" stroke="#282828"></path><path d="M0 104L0 168L138 129Z" fill="#1d1d1d" stroke="#1d1d1d"></path><path d="M660 600L802 600L683 507Z" fill="#303030" stroke="#303030"></path><path d="M900 399L804 274L760 433Z" fill="#333333" stroke="#333333"></path><path d="M900 91L786 81L798 213Z" fill="#1d1d1d" stroke="#1d1d1d"></path><path d="M798 213L786 81L735 84Z" fill="#222222" stroke="#222222"></path><path d="M735 84L714 0L615 75Z" fill="#181818" stroke="#181818"></path><path d="M786 81L714 0L735 84Z" fill="#333333" stroke="#333333"></path><path d="M185 0L110 0L205 73Z" fill="#282828" stroke="#282828"></path><path d="M0 490L0 600L119 600Z" fill="#1d1d1d" stroke="#1d1d1d"></path><path d="M110 0L0 104L138 129Z" fill="#303030" stroke="#303030"></path><path d="M900 399L760 433L900 485Z" fill="#181818" stroke="#181818"></path><path d="M804 274L900 202L798 213Z" fill="#222222" stroke="#222222"></path><path d="M900 485L760 433L770 483Z" fill="#252525" stroke="#252525"></path><path d="M802 600L900 485L770 483Z" fill="#181818" stroke="#181818"></path><path d="M900 327L900 202L804 274Z" fill="#1d1d1d" stroke="#1d1d1d"></path><path d="M786 81L823 0L714 0Z" fill="#202020" stroke="#202020"></path><path d="M802 600L900 600L900 485Z" fill="#2b2b2b" stroke="#2b2b2b"></path><path d="M900 91L823 0L786 81Z" fill="#181818" stroke="#181818"></path><path d="M110 0L0 0L0 104Z" fill="#1b1b1b" stroke="#1b1b1b"></path><path d="M900 202L900 91L798 213Z" fill="#202020" stroke="#202020"></path><path d="M900 91L900 0L823 0Z" fill="#1b1b1b" stroke="#1b1b1b"></path></g></svg>