<svg id="visual" viewBox="0 0 900 600" width="900" height="600" xmlns="http://www.w3.org/2000/svg" xmlns:xlink="http://www.w3.org/1999/xlink" version="1.1"><g stroke-width="1" stroke-linejoin="bevel"><path d="M460 299L432 300L491 395Z" fill="#303030" stroke="#303030"></path><path d="M432 300L370 404L491 395Z" fill="#282828" stroke="#282828"></path><path d="M263 279L323 415L370 404Z" fill="#2b2b2b" stroke="#2b2b2b"></path><path d="M436 525L508 499L491 395Z" fill="#1d1d1d" stroke="#1d1d1d"></path><path d="M598 317L537 236L460 299Z" fill="#2b2b2b" stroke="#2b2b2b"></path><path d="M460 299L361 179L432 300Z" fill="#282828" stroke="#282828"></path><path d="M491 395L598 317L460 299Z" fill="#222222" stroke="#222222"></path><path d="M436 525L491 395L370 404Z" fill="#222222" stroke="#222222"></path><path d="M491 395L627 369L598 317Z" fill="#252525" stroke="#252525"></path><path d="M295 464L436 525L370 404Z" fill="#2b2b2b" stroke="#2b2b2b"></path><path d="M508 499L627 369L491 395Z" fill="#181818" stroke="#181818"></path><path d="M323 415L295 464L370 404Z" fill="#222222" stroke="#222222"></path><path d="M537 236L361 179L460 299Z" fill="#303030" stroke="#303030"></path><path d="M432 300L263 279L370 404Z" fill="#333333" stroke="#333333"></path><path d="M323 415L179 421L295 464Z" fill="#1b1b1b" stroke="#1b1b1b"></path><path d="M361 179L296 226L432 300Z" fill="#202020" stroke="#202020"></path><path d="M296 226L263 279L432 300Z" fill="#2b2b2b" stroke="#2b2b2b"></path><path d="M598 317L586 202L537 236Z" fill="#1d1d1d" stroke="#1d1d1d"></path><path d="M537 236L493 81L361 179Z" fill="#1d1d1d" stroke="#1d1d1d"></path><path d="M682 315L586 202L598 317Z" fill="#282828" stroke="#282828"></path><path d="M579 600L616 516L508 499Z" fill="#252525" stroke="#252525"></path><path d="M508 499L616 516L627 369Z" fill="#2d2d2d" stroke="#2d2d2d"></path><path d="M686 423L682 315L627 369Z" fill="#222222" stroke="#222222"></path><path d="M627 369L682 315L598 317Z" fill="#282828" stroke="#282828"></path><path d="M296 226L222 277L263 279Z" fill="#282828" stroke="#282828"></path><path d="M263 279L179 421L323 415Z" fill="#252525" stroke="#252525"></path><path d="M199 165L222 277L296 226Z" fill="#222222" stroke="#222222"></path><path d="M372 600L481 600L436 525Z" fill="#202020" stroke="#202020"></path><path d="M436 525L481 600L508 499Z" fill="#222222" stroke="#222222"></path><path d="M616 516L686 423L627 369Z" fill="#1d1d1d" stroke="#1d1d1d"></path><path d="M295 464L372 600L436 525Z" fill="#303030" stroke="#303030"></path><path d="M715 162L564 107L586 202Z" fill="#181818" stroke="#181818"></path><path d="M586 202L564 107L537 236Z" fill="#2d2d2d" stroke="#2d2d2d"></path><path d="M222 277L179 421L263 279Z" fill="#181818" stroke="#181818"></path><path d="M295 464L261 600L372 600Z" fill="#333333" stroke="#333333"></path><path d="M481 600L579 600L508 499Z" fill="#2d2d2d" stroke="#2d2d2d"></path><path d="M616 516L687 533L686 423Z" fill="#1d1d1d" stroke="#1d1d1d"></path><path d="M564 107L493 81L537 236Z" fill="#1d1d1d" stroke="#1d1d1d"></path><path d="M361 179L263 113L296 226Z" fill="#2d2d2d" stroke="#2d2d2d"></path><path d="M493 81L415 75L361 179Z" fill="#1b1b1b" stroke="#1b1b1b"></path><path d="M579 600L687 533L616 516Z" fill="#282828" stroke="#282828"></path><path d="M415 75L263 113L361 179Z" fill="#282828" stroke="#282828"></path><path d="M222 277L84 390L179 421Z" fill="#181818" stroke="#181818"></path><path d="M184 539L261 600L295 464Z" fill="#303030" stroke="#303030"></path><path d="M263 113L199 165L296 226Z" fill="#2b2b2b" stroke="#2b2b2b"></path><path d="M179 421L184 539L295 464Z" fill="#1d1d1d" stroke="#1d1d1d"></path><path d="M805 194L715 162L682 315Z" fill="#2b2b2b" stroke="#2b2b2b"></path><path d="M682 315L715 162L586 202Z" fill="#222222" stroke="#222222"></path><path d="M494 0L437 0L493 81Z" fill="#1b1b1b" stroke="#1b1b1b"></path><path d="M788 436L682 315L686 423Z" fill="#2b2b2b" stroke="#2b2b2b"></path><path d="M687 533L788 436L686 423Z" fill="#1b1b1b" stroke="#1b1b1b"></path><path d="M261 0L226 79L263 113Z" fill="#2d2d2d" stroke="#2d2d2d"></path><path d="M263 113L226 79L199 165Z" fill="#1b1b1b" stroke="#1b1b1b"></path><path d="M493 81L437 0L415 75Z" fill="#282828" stroke="#282828"></path><path d="M415 75L261 0L263 113Z" fill="#2d2d2d" stroke="#2d2d2d"></path><path d="M494 0L493 81L564 107Z" fill="#202020" stroke="#202020"></path><path d="M626 0L494 0L564 107Z" fill="#282828" stroke="#282828"></path><path d="M61 269L84 390L222 277Z" fill="#252525" stroke="#252525"></path><path d="M179 421L84 496L184 539Z" fill="#202020" stroke="#202020"></path><path d="M103 171L222 277L199 165Z" fill="#252525" stroke="#252525"></path><path d="M788 436L811 304L682 315Z" fill="#252525" stroke="#252525"></path><path d="M739 600L775 535L687 533Z" fill="#181818" stroke="#181818"></path><path d="M687 533L775 535L788 436Z" fill="#333333" stroke="#333333"></path><path d="M788 436L900 386L811 304Z" fill="#303030" stroke="#303030"></path><path d="M184 539L165 600L261 600Z" fill="#2b2b2b" stroke="#2b2b2b"></path><path d="M98 600L165 600L184 539Z" fill="#2d2d2d" stroke="#2d2d2d"></path><path d="M579 600L739 600L687 533Z" fill="#202020" stroke="#202020"></path><path d="M84 390L84 496L179 421Z" fill="#2d2d2d" stroke="#2d2d2d"></path><path d="M226 79L103 171L199 165Z" fill="#1d1d1d" stroke="#1d1d1d"></path><path d="M811 304L805 194L682 315Z" fill="#181818" stroke="#181818"></path><path d="M715 162L738 85L564 107Z" fill="#202020" stroke="#202020"></path><path d="M103 171L61 269L222 277Z" fill="#2b2b2b" stroke="#2b2b2b"></path><path d="M84 390L0 468L84 496Z" fill="#2b2b2b" stroke="#2b2b2b"></path><path d="M805 194L738 85L715 162Z" fill="#252525" stroke="#252525"></path><path d="M738 85L626 0L564 107Z" fill="#181818" stroke="#181818"></path><path d="M437 0L261 0L415 75Z" fill="#252525" stroke="#252525"></path><path d="M226 79L66 129L103 171Z" fill="#333333" stroke="#333333"></path><path d="M84 496L98 600L184 539Z" fill="#181818" stroke="#181818"></path><path d="M739 600L804 600L775 535Z" fill="#252525" stroke="#252525"></path><path d="M900 482L900 386L788 436Z" fill="#222222" stroke="#222222"></path><path d="M794 0L693 0L738 85Z" fill="#282828" stroke="#282828"></path><path d="M738 85L693 0L626 0Z" fill="#252525" stroke="#252525"></path><path d="M126 0L66 129L226 79Z" fill="#1b1b1b" stroke="#1b1b1b"></path><path d="M103 171L0 200L61 269Z" fill="#282828" stroke="#282828"></path><path d="M0 200L0 307L61 269Z" fill="#1b1b1b" stroke="#1b1b1b"></path><path d="M61 269L0 307L84 390Z" fill="#181818" stroke="#181818"></path><path d="M84 496L0 600L98 600Z" fill="#282828" stroke="#282828"></path><path d="M0 307L0 417L84 390Z" fill="#181818" stroke="#181818"></path><path d="M900 482L788 436L775 535Z" fill="#222222" stroke="#222222"></path><path d="M811 304L900 261L805 194Z" fill="#2b2b2b" stroke="#2b2b2b"></path><path d="M261 0L160 0L226 79Z" fill="#222222" stroke="#222222"></path><path d="M0 417L0 468L84 390Z" fill="#2b2b2b" stroke="#2b2b2b"></path><path d="M900 386L900 261L811 304Z" fill="#202020" stroke="#202020"></path><path d="M805 194L823 81L738 85Z" fill="#303030" stroke="#303030"></path><path d="M900 128L823 81L805 194Z" fill="#1d1d1d" stroke="#1d1d1d"></path><path d="M804 600L900 482L775 535Z" fill="#2b2b2b" stroke="#2b2b2b"></path><path d="M66 129L0 200L103 171Z" fill="#181818" stroke="#181818"></path><path d="M0 139L0 200L66 129Z" fill="#1d1d1d" stroke="#1d1d1d"></path><path d="M160 0L126 0L226 79Z" fill="#222222" stroke="#222222"></path><path d="M900 261L900 167L805 194Z" fill="#252525" stroke="#252525"></path><path d="M900 0L794 0L823 81Z" fill="#2d2d2d" stroke="#2d2d2d"></path><path d="M823 81L794 0L738 85Z" fill="#252525" stroke="#252525"></path><path d="M0 0L0 139L66 129Z" fill="#181818" stroke="#181818"></path><path d="M900 167L900 128L805 194Z" fill="#222222" stroke="#222222"></path><path d="M0 468L0 600L84 496Z" fill="#202020" stroke="#202020"></path><path d="M804 600L900 600L900 482Z" fill="#202020" stroke="#202020"></path><path d="M126 0L0 0L66 129Z" fill="#181818" stroke="#181818"></path><path d="M900 128L900 0L823 81Z" fill="#202020" stroke="#202020"></path></g></svg>