<svg id="visual" viewBox="0 0 900 600" width="900" height="600" xmlns="http://www.w3.org/2000/svg" xmlns:xlink="http://www.w3.org/1999/xlink" version="1.1"><g stroke-width="1" stroke-linejoin="bevel"><path d="M483 312L369 273L406 376Z" fill="#1b1b1b" stroke="#1b1b1b"></path><path d="M369 273L321 291L406 376Z" fill="#1d1d1d" stroke="#1d1d1d"></path><path d="M369 273L323 237L321 291Z" fill="#2b2b2b" stroke="#2b2b2b"></path><path d="M387 189L323 237L369 273Z" fill="#252525" stroke="#252525"></path><path d="M483 312L387 189L369 273Z" fill="#2d2d2d" stroke="#2d2d2d"></path><path d="M321 291L338 418L406 376Z" fill="#1d1d1d" stroke="#1d1d1d"></path><path d="M488 504L517 428L406 376Z" fill="#282828" stroke="#282828"></path><path d="M406 376L517 428L483 312Z" fill="#303030" stroke="#303030"></path><path d="M628 235L509 161L483 312Z" fill="#181818" stroke="#181818"></path><path d="M483 312L509 161L387 189Z" fill="#282828" stroke="#282828"></path><path d="M184 414L331 479L338 418Z" fill="#252525" stroke="#252525"></path><path d="M338 418L387 515L406 376Z" fill="#282828" stroke="#282828"></path><path d="M387 515L488 504L406 376Z" fill="#1b1b1b" stroke="#1b1b1b"></path><path d="M619 523L604 397L517 428Z" fill="#222222" stroke="#222222"></path><path d="M517 428L604 397L483 312Z" fill="#1b1b1b" stroke="#1b1b1b"></path><path d="M331 479L387 515L338 418Z" fill="#1d1d1d" stroke="#1d1d1d"></path><path d="M604 397L627 289L483 312Z" fill="#222222" stroke="#222222"></path><path d="M627 289L628 235L483 312Z" fill="#252525" stroke="#252525"></path><path d="M186 230L187 306L321 291Z" fill="#1d1d1d" stroke="#1d1d1d"></path><path d="M321 291L184 414L338 418Z" fill="#222222" stroke="#222222"></path><path d="M186 230L321 291L323 237Z" fill="#303030" stroke="#303030"></path><path d="M437 75L289 115L387 189Z" fill="#222222" stroke="#222222"></path><path d="M387 189L289 115L323 237Z" fill="#303030" stroke="#303030"></path><path d="M514 89L437 75L509 161Z" fill="#303030" stroke="#303030"></path><path d="M509 161L437 75L387 189Z" fill="#333333" stroke="#333333"></path><path d="M604 80L514 89L509 161Z" fill="#202020" stroke="#202020"></path><path d="M289 115L186 230L323 237Z" fill="#1b1b1b" stroke="#1b1b1b"></path><path d="M73 377L184 414L187 306Z" fill="#252525" stroke="#252525"></path><path d="M187 306L184 414L321 291Z" fill="#2b2b2b" stroke="#2b2b2b"></path><path d="M262 600L404 600L387 515Z" fill="#202020" stroke="#202020"></path><path d="M604 397L690 321L627 289Z" fill="#2d2d2d" stroke="#2d2d2d"></path><path d="M627 289L691 209L628 235Z" fill="#202020" stroke="#202020"></path><path d="M726 388L690 321L604 397Z" fill="#2b2b2b" stroke="#2b2b2b"></path><path d="M387 515L404 600L488 504Z" fill="#181818" stroke="#181818"></path><path d="M488 504L619 523L517 428Z" fill="#2b2b2b" stroke="#2b2b2b"></path><path d="M262 600L387 515L331 479Z" fill="#252525" stroke="#252525"></path><path d="M562 600L619 523L488 504Z" fill="#252525" stroke="#252525"></path><path d="M690 321L691 209L627 289Z" fill="#202020" stroke="#202020"></path><path d="M628 235L604 80L509 161Z" fill="#2d2d2d" stroke="#2d2d2d"></path><path d="M679 128L604 80L628 235Z" fill="#1b1b1b" stroke="#1b1b1b"></path><path d="M481 0L374 0L437 75Z" fill="#1d1d1d" stroke="#1d1d1d"></path><path d="M404 600L504 600L488 504Z" fill="#1d1d1d" stroke="#1d1d1d"></path><path d="M184 414L193 532L331 479Z" fill="#2d2d2d" stroke="#2d2d2d"></path><path d="M663 533L726 388L604 397Z" fill="#1b1b1b" stroke="#1b1b1b"></path><path d="M690 321L770 220L691 209Z" fill="#333333" stroke="#333333"></path><path d="M437 75L374 0L289 115Z" fill="#202020" stroke="#202020"></path><path d="M289 115L183 96L186 230Z" fill="#1b1b1b" stroke="#1b1b1b"></path><path d="M481 0L437 75L514 89Z" fill="#282828" stroke="#282828"></path><path d="M691 209L679 128L628 235Z" fill="#303030" stroke="#303030"></path><path d="M770 220L679 128L691 209Z" fill="#252525" stroke="#252525"></path><path d="M627 0L481 0L604 80Z" fill="#181818" stroke="#181818"></path><path d="M604 80L481 0L514 89Z" fill="#202020" stroke="#202020"></path><path d="M504 600L562 600L488 504Z" fill="#282828" stroke="#282828"></path><path d="M619 523L663 533L604 397Z" fill="#303030" stroke="#303030"></path><path d="M206 0L183 96L289 115Z" fill="#333333" stroke="#333333"></path><path d="M186 230L73 307L187 306Z" fill="#202020" stroke="#202020"></path><path d="M193 532L262 600L331 479Z" fill="#282828" stroke="#282828"></path><path d="M562 600L663 533L619 523Z" fill="#222222" stroke="#222222"></path><path d="M374 0L314 0L289 115Z" fill="#282828" stroke="#282828"></path><path d="M60 177L73 307L186 230Z" fill="#2d2d2d" stroke="#2d2d2d"></path><path d="M184 414L79 530L193 532Z" fill="#181818" stroke="#181818"></path><path d="M73 307L73 377L187 306Z" fill="#252525" stroke="#252525"></path><path d="M818 327L770 220L690 321Z" fill="#1b1b1b" stroke="#1b1b1b"></path><path d="M183 96L112 98L186 230Z" fill="#252525" stroke="#252525"></path><path d="M122 0L112 98L183 96Z" fill="#252525" stroke="#252525"></path><path d="M715 0L604 80L679 128Z" fill="#2b2b2b" stroke="#2b2b2b"></path><path d="M715 0L627 0L604 80Z" fill="#222222" stroke="#222222"></path><path d="M314 0L206 0L289 115Z" fill="#222222" stroke="#222222"></path><path d="M126 600L168 600L193 532Z" fill="#303030" stroke="#303030"></path><path d="M193 532L168 600L262 600Z" fill="#2d2d2d" stroke="#2d2d2d"></path><path d="M112 98L60 177L186 230Z" fill="#333333" stroke="#333333"></path><path d="M73 307L0 334L73 377Z" fill="#2b2b2b" stroke="#2b2b2b"></path><path d="M663 533L788 421L726 388Z" fill="#252525" stroke="#252525"></path><path d="M726 388L818 327L690 321Z" fill="#2b2b2b" stroke="#2b2b2b"></path><path d="M788 421L818 327L726 388Z" fill="#1b1b1b" stroke="#1b1b1b"></path><path d="M0 510L79 530L73 377Z" fill="#252525" stroke="#252525"></path><path d="M73 377L79 530L184 414Z" fill="#181818" stroke="#181818"></path><path d="M663 533L817 477L788 421Z" fill="#303030" stroke="#303030"></path><path d="M562 600L705 600L663 533Z" fill="#2b2b2b" stroke="#2b2b2b"></path><path d="M79 530L126 600L193 532Z" fill="#1d1d1d" stroke="#1d1d1d"></path><path d="M0 164L0 334L73 307Z" fill="#2b2b2b" stroke="#2b2b2b"></path><path d="M0 334L0 366L73 377Z" fill="#252525" stroke="#252525"></path><path d="M787 600L817 477L663 533Z" fill="#1b1b1b" stroke="#1b1b1b"></path><path d="M900 372L900 314L818 327Z" fill="#1d1d1d" stroke="#1d1d1d"></path><path d="M761 0L715 0L679 128Z" fill="#333333" stroke="#333333"></path><path d="M761 0L679 128L837 60Z" fill="#282828" stroke="#282828"></path><path d="M206 0L122 0L183 96Z" fill="#1d1d1d" stroke="#1d1d1d"></path><path d="M0 69L0 164L60 177Z" fill="#1d1d1d" stroke="#1d1d1d"></path><path d="M60 177L0 164L73 307Z" fill="#303030" stroke="#303030"></path><path d="M0 69L60 177L112 98Z" fill="#1b1b1b" stroke="#1b1b1b"></path><path d="M0 366L0 510L73 377Z" fill="#181818" stroke="#181818"></path><path d="M79 530L0 600L126 600Z" fill="#1d1d1d" stroke="#1d1d1d"></path><path d="M837 60L679 128L770 220Z" fill="#303030" stroke="#303030"></path><path d="M705 600L787 600L663 533Z" fill="#252525" stroke="#252525"></path><path d="M900 372L818 327L788 421Z" fill="#2b2b2b" stroke="#2b2b2b"></path><path d="M818 327L900 232L770 220Z" fill="#333333" stroke="#333333"></path><path d="M900 372L788 421L817 477Z" fill="#2d2d2d" stroke="#2d2d2d"></path><path d="M900 498L900 372L817 477Z" fill="#303030" stroke="#303030"></path><path d="M122 0L0 69L112 98Z" fill="#2b2b2b" stroke="#2b2b2b"></path><path d="M900 314L900 232L818 327Z" fill="#1d1d1d" stroke="#1d1d1d"></path><path d="M900 84L837 60L770 220Z" fill="#181818" stroke="#181818"></path><path d="M0 510L0 600L79 530Z" fill="#2b2b2b" stroke="#2b2b2b"></path><path d="M787 600L900 498L817 477Z" fill="#202020" stroke="#202020"></path><path d="M122 0L0 0L0 69Z" fill="#333333" stroke="#333333"></path><path d="M900 232L900 84L770 220Z" fill="#303030" stroke="#303030"></path><path d="M837 60L900 0L761 0Z" fill="#2d2d2d" stroke="#2d2d2d"></path><path d="M787 600L900 600L900 498Z" fill="#303030" stroke="#303030"></path><path d="M900 84L900 0L837 60Z" fill="#1d1d1d" stroke="#1d1d1d"></path></g></svg>