<svg id="visual" viewBox="0 0 900 600" width="900" height="600" xmlns="http://www.w3.org/2000/svg" xmlns:xlink="http://www.w3.org/1999/xlink" version="1.1"><g stroke-width="1" stroke-linejoin="bevel"><path d="M413 266L324 238L331 295Z" fill="#1d1d1d" stroke="#1d1d1d"></path><path d="M413 266L417 166L324 238Z" fill="#2b2b2b" stroke="#2b2b2b"></path><path d="M326 77L235 225L324 238Z" fill="#202020" stroke="#202020"></path><path d="M324 238L235 225L331 295Z" fill="#2b2b2b" stroke="#2b2b2b"></path><path d="M413 266L498 209L417 166Z" fill="#202020" stroke="#202020"></path><path d="M289 437L382 417L331 295Z" fill="#202020" stroke="#202020"></path><path d="M331 295L382 417L413 266Z" fill="#181818" stroke="#181818"></path><path d="M413 266L535 293L498 209Z" fill="#303030" stroke="#303030"></path><path d="M464 102L360 97L417 166Z" fill="#181818" stroke="#181818"></path><path d="M417 166L360 97L324 238Z" fill="#282828" stroke="#282828"></path><path d="M536 384L535 293L413 266Z" fill="#282828" stroke="#282828"></path><path d="M62 194L183 274L235 225Z" fill="#333333" stroke="#333333"></path><path d="M235 225L183 274L331 295Z" fill="#252525" stroke="#252525"></path><path d="M602 78L464 102L498 209Z" fill="#2b2b2b" stroke="#2b2b2b"></path><path d="M498 209L464 102L417 166Z" fill="#303030" stroke="#303030"></path><path d="M333 0L326 77L360 97Z" fill="#282828" stroke="#282828"></path><path d="M360 97L326 77L324 238Z" fill="#222222" stroke="#222222"></path><path d="M184 390L289 437L331 295Z" fill="#202020" stroke="#202020"></path><path d="M523 486L536 384L382 417Z" fill="#222222" stroke="#222222"></path><path d="M382 417L536 384L413 266Z" fill="#2b2b2b" stroke="#2b2b2b"></path><path d="M536 384L582 261L535 293Z" fill="#252525" stroke="#252525"></path><path d="M535 293L582 261L498 209Z" fill="#222222" stroke="#222222"></path><path d="M183 274L184 390L331 295Z" fill="#181818" stroke="#181818"></path><path d="M326 77L230 76L235 225Z" fill="#2b2b2b" stroke="#2b2b2b"></path><path d="M292 495L377 503L289 437Z" fill="#1d1d1d" stroke="#1d1d1d"></path><path d="M289 437L377 503L382 417Z" fill="#252525" stroke="#252525"></path><path d="M200 501L292 495L289 437Z" fill="#202020" stroke="#202020"></path><path d="M725 298L622 237L582 261Z" fill="#282828" stroke="#282828"></path><path d="M582 261L622 237L498 209Z" fill="#333333" stroke="#333333"></path><path d="M409 0L333 0L360 97Z" fill="#202020" stroke="#202020"></path><path d="M326 77L227 0L230 76Z" fill="#252525" stroke="#252525"></path><path d="M464 102L409 0L360 97Z" fill="#1d1d1d" stroke="#1d1d1d"></path><path d="M526 0L409 0L464 102Z" fill="#1d1d1d" stroke="#1d1d1d"></path><path d="M183 274L104 336L184 390Z" fill="#2b2b2b" stroke="#2b2b2b"></path><path d="M184 390L200 501L289 437Z" fill="#303030" stroke="#303030"></path><path d="M62 194L104 336L183 274Z" fill="#303030" stroke="#303030"></path><path d="M377 503L523 486L382 417Z" fill="#282828" stroke="#282828"></path><path d="M536 384L632 423L582 261Z" fill="#1d1d1d" stroke="#1d1d1d"></path><path d="M90 462L200 501L184 390Z" fill="#282828" stroke="#282828"></path><path d="M292 495L386 600L377 503Z" fill="#222222" stroke="#222222"></path><path d="M333 0L227 0L326 77Z" fill="#252525" stroke="#252525"></path><path d="M230 76L62 194L235 225Z" fill="#2b2b2b" stroke="#2b2b2b"></path><path d="M104 336L98 391L184 390Z" fill="#282828" stroke="#282828"></path><path d="M622 237L602 78L498 209Z" fill="#181818" stroke="#181818"></path><path d="M602 78L526 0L464 102Z" fill="#181818" stroke="#181818"></path><path d="M60 74L62 194L230 76Z" fill="#222222" stroke="#222222"></path><path d="M104 336L0 379L98 391Z" fill="#202020" stroke="#202020"></path><path d="M601 481L632 423L536 384Z" fill="#282828" stroke="#282828"></path><path d="M561 600L601 481L523 486Z" fill="#333333" stroke="#333333"></path><path d="M523 486L601 481L536 384Z" fill="#282828" stroke="#282828"></path><path d="M270 600L386 600L292 495Z" fill="#202020" stroke="#202020"></path><path d="M377 503L507 600L523 486Z" fill="#303030" stroke="#303030"></path><path d="M601 481L666 420L632 423Z" fill="#333333" stroke="#333333"></path><path d="M632 423L725 298L582 261Z" fill="#333333" stroke="#333333"></path><path d="M622 237L666 91L602 78Z" fill="#1d1d1d" stroke="#1d1d1d"></path><path d="M0 379L90 462L98 391Z" fill="#181818" stroke="#181818"></path><path d="M98 391L90 462L184 390Z" fill="#202020" stroke="#202020"></path><path d="M200 501L270 600L292 495Z" fill="#333333" stroke="#333333"></path><path d="M669 0L591 0L602 78Z" fill="#202020" stroke="#202020"></path><path d="M602 78L591 0L526 0Z" fill="#2d2d2d" stroke="#2d2d2d"></path><path d="M721 235L666 91L622 237Z" fill="#181818" stroke="#181818"></path><path d="M181 600L270 600L200 501Z" fill="#303030" stroke="#303030"></path><path d="M725 298L721 235L622 237Z" fill="#282828" stroke="#282828"></path><path d="M111 0L60 74L230 76Z" fill="#1b1b1b" stroke="#1b1b1b"></path><path d="M666 420L725 298L632 423Z" fill="#202020" stroke="#202020"></path><path d="M227 0L111 0L230 76Z" fill="#222222" stroke="#222222"></path><path d="M386 600L507 600L377 503Z" fill="#1d1d1d" stroke="#1d1d1d"></path><path d="M601 481L714 498L666 420Z" fill="#222222" stroke="#222222"></path><path d="M0 76L0 227L62 194Z" fill="#303030" stroke="#303030"></path><path d="M62 194L0 307L104 336Z" fill="#1d1d1d" stroke="#1d1d1d"></path><path d="M0 227L0 307L62 194Z" fill="#282828" stroke="#282828"></path><path d="M0 307L0 379L104 336Z" fill="#333333" stroke="#333333"></path><path d="M129 600L181 600L200 501Z" fill="#1d1d1d" stroke="#1d1d1d"></path><path d="M129 600L200 501L90 462Z" fill="#202020" stroke="#202020"></path><path d="M507 600L561 600L523 486Z" fill="#252525" stroke="#252525"></path><path d="M764 374L761 307L725 298Z" fill="#333333" stroke="#333333"></path><path d="M725 298L761 307L721 235Z" fill="#202020" stroke="#202020"></path><path d="M810 95L669 0L666 91Z" fill="#1b1b1b" stroke="#1b1b1b"></path><path d="M764 374L725 298L666 420Z" fill="#202020" stroke="#202020"></path><path d="M784 186L666 91L721 235Z" fill="#181818" stroke="#181818"></path><path d="M666 91L669 0L602 78Z" fill="#202020" stroke="#202020"></path><path d="M60 74L0 76L62 194Z" fill="#222222" stroke="#222222"></path><path d="M0 0L0 76L60 74Z" fill="#1b1b1b" stroke="#1b1b1b"></path><path d="M0 538L129 600L90 462Z" fill="#1d1d1d" stroke="#1d1d1d"></path><path d="M762 489L764 374L666 420Z" fill="#333333" stroke="#333333"></path><path d="M677 600L714 498L601 481Z" fill="#303030" stroke="#303030"></path><path d="M900 283L784 186L761 307Z" fill="#181818" stroke="#181818"></path><path d="M761 307L784 186L721 235Z" fill="#202020" stroke="#202020"></path><path d="M111 0L0 0L60 74Z" fill="#2d2d2d" stroke="#2d2d2d"></path><path d="M767 600L762 489L714 498Z" fill="#2b2b2b" stroke="#2b2b2b"></path><path d="M714 498L762 489L666 420Z" fill="#202020" stroke="#202020"></path><path d="M900 162L810 95L784 186Z" fill="#1b1b1b" stroke="#1b1b1b"></path><path d="M0 379L0 538L90 462Z" fill="#202020" stroke="#202020"></path><path d="M561 600L677 600L601 481Z" fill="#222222" stroke="#222222"></path><path d="M784 186L810 95L666 91Z" fill="#222222" stroke="#222222"></path><path d="M900 283L761 307L764 374Z" fill="#282828" stroke="#282828"></path><path d="M0 538L0 600L129 600Z" fill="#181818" stroke="#181818"></path><path d="M677 600L767 600L714 498Z" fill="#333333" stroke="#333333"></path><path d="M900 423L900 283L764 374Z" fill="#2b2b2b" stroke="#2b2b2b"></path><path d="M900 0L825 0L810 95Z" fill="#222222" stroke="#222222"></path><path d="M810 95L825 0L669 0Z" fill="#303030" stroke="#303030"></path><path d="M900 423L764 374L762 489Z" fill="#2d2d2d" stroke="#2d2d2d"></path><path d="M900 283L900 162L784 186Z" fill="#2b2b2b" stroke="#2b2b2b"></path><path d="M900 162L900 126L810 95Z" fill="#2b2b2b" stroke="#2b2b2b"></path><path d="M900 503L900 423L762 489Z" fill="#2d2d2d" stroke="#2d2d2d"></path><path d="M767 600L900 503L762 489Z" fill="#333333" stroke="#333333"></path><path d="M900 126L900 0L810 95Z" fill="#1d1d1d" stroke="#1d1d1d"></path><path d="M767 600L900 600L900 503Z" fill="#282828" stroke="#282828"></path></g></svg>