<svg id="visual" viewBox="0 0 900 600" width="900" height="600" xmlns="http://www.w3.org/2000/svg" xmlns:xlink="http://www.w3.org/1999/xlink" version="1.1"><g stroke-width="1" stroke-linejoin="bevel"><path d="M409 277L402 401L497 286Z" fill="#2b2b2b" stroke="#2b2b2b"></path><path d="M521 433L561 324L497 286Z" fill="#2d2d2d" stroke="#2d2d2d"></path><path d="M402 401L521 433L497 286Z" fill="#202020" stroke="#202020"></path><path d="M409 277L323 304L402 401Z" fill="#2b2b2b" stroke="#2b2b2b"></path><path d="M521 433L564 427L561 324Z" fill="#202020" stroke="#202020"></path><path d="M497 286L397 176L409 277Z" fill="#1b1b1b" stroke="#1b1b1b"></path><path d="M409 277L397 176L323 304Z" fill="#222222" stroke="#222222"></path><path d="M537 185L397 176L497 286Z" fill="#1d1d1d" stroke="#1d1d1d"></path><path d="M600 195L537 185L497 286Z" fill="#252525" stroke="#252525"></path><path d="M323 304L276 412L402 401Z" fill="#2d2d2d" stroke="#2d2d2d"></path><path d="M402 401L463 526L521 433Z" fill="#1d1d1d" stroke="#1d1d1d"></path><path d="M386 538L463 526L402 401Z" fill="#303030" stroke="#303030"></path><path d="M521 433L622 531L564 427Z" fill="#1d1d1d" stroke="#1d1d1d"></path><path d="M326 537L386 538L402 401Z" fill="#2d2d2d" stroke="#2d2d2d"></path><path d="M561 324L600 195L497 286Z" fill="#1b1b1b" stroke="#1b1b1b"></path><path d="M662 264L600 195L561 324Z" fill="#252525" stroke="#252525"></path><path d="M397 176L273 212L323 304Z" fill="#303030" stroke="#303030"></path><path d="M323 304L180 310L276 412Z" fill="#2b2b2b" stroke="#2b2b2b"></path><path d="M567 64L460 122L537 185Z" fill="#202020" stroke="#202020"></path><path d="M537 185L460 122L397 176Z" fill="#181818" stroke="#181818"></path><path d="M397 176L299 103L273 212Z" fill="#2b2b2b" stroke="#2b2b2b"></path><path d="M719 419L662 264L561 324Z" fill="#1b1b1b" stroke="#1b1b1b"></path><path d="M276 412L326 537L402 401Z" fill="#303030" stroke="#303030"></path><path d="M463 526L622 531L521 433Z" fill="#282828" stroke="#282828"></path><path d="M564 427L719 419L561 324Z" fill="#2b2b2b" stroke="#2b2b2b"></path><path d="M525 600L622 531L463 526Z" fill="#1b1b1b" stroke="#1b1b1b"></path><path d="M326 537L433 600L386 538Z" fill="#1d1d1d" stroke="#1d1d1d"></path><path d="M386 538L433 600L463 526Z" fill="#222222" stroke="#222222"></path><path d="M567 64L431 81L460 122Z" fill="#2d2d2d" stroke="#2d2d2d"></path><path d="M460 122L431 81L397 176Z" fill="#252525" stroke="#252525"></path><path d="M662 264L667 200L600 195Z" fill="#1b1b1b" stroke="#1b1b1b"></path><path d="M600 195L567 64L537 185Z" fill="#282828" stroke="#282828"></path><path d="M273 212L180 310L323 304Z" fill="#2d2d2d" stroke="#2d2d2d"></path><path d="M276 412L222 504L326 537Z" fill="#333333" stroke="#333333"></path><path d="M433 600L525 600L463 526Z" fill="#282828" stroke="#282828"></path><path d="M163 377L222 504L276 412Z" fill="#282828" stroke="#282828"></path><path d="M326 537L266 600L433 600Z" fill="#282828" stroke="#282828"></path><path d="M431 81L299 103L397 176Z" fill="#181818" stroke="#181818"></path><path d="M273 212L160 179L180 310Z" fill="#181818" stroke="#181818"></path><path d="M622 531L719 419L564 427Z" fill="#1b1b1b" stroke="#1b1b1b"></path><path d="M662 264L771 215L667 200Z" fill="#303030" stroke="#303030"></path><path d="M180 310L163 377L276 412Z" fill="#222222" stroke="#222222"></path><path d="M728 117L567 64L600 195Z" fill="#333333" stroke="#333333"></path><path d="M525 600L610 600L622 531Z" fill="#1b1b1b" stroke="#1b1b1b"></path><path d="M622 531L718 530L719 419Z" fill="#282828" stroke="#282828"></path><path d="M198 600L266 600L222 504Z" fill="#282828" stroke="#282828"></path><path d="M222 504L266 600L326 537Z" fill="#181818" stroke="#181818"></path><path d="M328 0L233 98L299 103Z" fill="#202020" stroke="#202020"></path><path d="M299 103L233 98L273 212Z" fill="#2b2b2b" stroke="#2b2b2b"></path><path d="M180 310L122 263L163 377Z" fill="#303030" stroke="#303030"></path><path d="M328 0L299 103L431 81Z" fill="#2b2b2b" stroke="#2b2b2b"></path><path d="M233 98L160 179L273 212Z" fill="#282828" stroke="#282828"></path><path d="M699 600L718 530L622 531Z" fill="#1d1d1d" stroke="#1d1d1d"></path><path d="M160 179L122 263L180 310Z" fill="#1b1b1b" stroke="#1b1b1b"></path><path d="M526 0L438 0L431 81Z" fill="#2d2d2d" stroke="#2d2d2d"></path><path d="M802 326L771 215L662 264Z" fill="#252525" stroke="#252525"></path><path d="M667 200L728 117L600 195Z" fill="#252525" stroke="#252525"></path><path d="M802 326L662 264L719 419Z" fill="#202020" stroke="#202020"></path><path d="M572 0L526 0L567 64Z" fill="#181818" stroke="#181818"></path><path d="M567 64L526 0L431 81Z" fill="#303030" stroke="#303030"></path><path d="M826 431L802 326L719 419Z" fill="#252525" stroke="#252525"></path><path d="M103 538L198 600L222 504Z" fill="#1d1d1d" stroke="#1d1d1d"></path><path d="M103 538L222 504L163 377Z" fill="#222222" stroke="#222222"></path><path d="M771 215L728 117L667 200Z" fill="#1d1d1d" stroke="#1d1d1d"></path><path d="M610 600L699 600L622 531Z" fill="#181818" stroke="#181818"></path><path d="M718 530L826 431L719 419Z" fill="#333333" stroke="#333333"></path><path d="M438 0L328 0L431 81Z" fill="#202020" stroke="#202020"></path><path d="M735 0L572 0L567 64Z" fill="#2d2d2d" stroke="#2d2d2d"></path><path d="M122 263L69 407L163 377Z" fill="#2d2d2d" stroke="#2d2d2d"></path><path d="M823 529L826 431L718 530Z" fill="#202020" stroke="#202020"></path><path d="M160 179L85 181L122 263Z" fill="#2d2d2d" stroke="#2d2d2d"></path><path d="M0 309L0 370L69 407Z" fill="#181818" stroke="#181818"></path><path d="M63 129L85 181L160 179Z" fill="#282828" stroke="#282828"></path><path d="M63 129L160 179L233 98Z" fill="#2d2d2d" stroke="#2d2d2d"></path><path d="M69 407L103 538L163 377Z" fill="#333333" stroke="#333333"></path><path d="M771 215L776 106L728 117Z" fill="#2d2d2d" stroke="#2d2d2d"></path><path d="M728 117L735 0L567 64Z" fill="#181818" stroke="#181818"></path><path d="M900 178L776 106L771 215Z" fill="#252525" stroke="#252525"></path><path d="M900 178L771 215L802 326Z" fill="#1b1b1b" stroke="#1b1b1b"></path><path d="M0 600L116 600L103 538Z" fill="#303030" stroke="#303030"></path><path d="M103 538L116 600L198 600Z" fill="#202020" stroke="#202020"></path><path d="M815 600L823 529L718 530Z" fill="#303030" stroke="#303030"></path><path d="M328 0L179 0L233 98Z" fill="#252525" stroke="#252525"></path><path d="M120 0L63 129L233 98Z" fill="#1b1b1b" stroke="#1b1b1b"></path><path d="M0 309L69 407L122 263Z" fill="#181818" stroke="#181818"></path><path d="M776 106L735 0L728 117Z" fill="#222222" stroke="#222222"></path><path d="M0 309L122 263L0 238Z" fill="#2d2d2d" stroke="#2d2d2d"></path><path d="M69 407L0 487L103 538Z" fill="#202020" stroke="#202020"></path><path d="M0 238L122 263L85 181Z" fill="#252525" stroke="#252525"></path><path d="M699 600L815 600L718 530Z" fill="#2d2d2d" stroke="#2d2d2d"></path><path d="M900 368L802 326L826 431Z" fill="#333333" stroke="#333333"></path><path d="M900 368L900 329L802 326Z" fill="#181818" stroke="#181818"></path><path d="M776 106L822 0L735 0Z" fill="#333333" stroke="#333333"></path><path d="M900 368L826 431L900 475Z" fill="#252525" stroke="#252525"></path><path d="M900 475L826 431L823 529Z" fill="#2b2b2b" stroke="#2b2b2b"></path><path d="M63 129L0 238L85 181Z" fill="#2b2b2b" stroke="#2b2b2b"></path><path d="M0 370L0 487L69 407Z" fill="#202020" stroke="#202020"></path><path d="M900 600L900 475L823 529Z" fill="#1d1d1d" stroke="#1d1d1d"></path><path d="M179 0L120 0L233 98Z" fill="#181818" stroke="#181818"></path><path d="M63 129L0 102L0 238Z" fill="#1b1b1b" stroke="#1b1b1b"></path><path d="M900 329L900 178L802 326Z" fill="#181818" stroke="#181818"></path><path d="M900 178L900 122L776 106Z" fill="#303030" stroke="#303030"></path><path d="M0 0L0 102L63 129Z" fill="#282828" stroke="#282828"></path><path d="M900 122L822 0L776 106Z" fill="#1d1d1d" stroke="#1d1d1d"></path><path d="M0 487L0 600L103 538Z" fill="#1d1d1d" stroke="#1d1d1d"></path><path d="M815 600L900 600L823 529Z" fill="#2b2b2b" stroke="#2b2b2b"></path><path d="M120 0L0 0L63 129Z" fill="#2b2b2b" stroke="#2b2b2b"></path><path d="M900 122L900 0L822 0Z" fill="#303030" stroke="#303030"></path></g></svg>