<svg id="visual" viewBox="0 0 900 600" width="900" height="600" xmlns="http://www.w3.org/2000/svg" xmlns:xlink="http://www.w3.org/1999/xlink" version="1.1"><g stroke-width="1" stroke-linejoin="bevel"><path d="M392 318L321 436L408 395Z" fill="#202020" stroke="#202020"></path><path d="M392 318L271 265L321 436Z" fill="#303030" stroke="#303030"></path><path d="M271 265L220 324L321 436Z" fill="#1b1b1b" stroke="#1b1b1b"></path><path d="M406 504L462 439L408 395Z" fill="#202020" stroke="#202020"></path><path d="M408 395L526 301L392 318Z" fill="#202020" stroke="#202020"></path><path d="M194 392L268 487L321 436Z" fill="#1d1d1d" stroke="#1d1d1d"></path><path d="M321 436L406 504L408 395Z" fill="#2d2d2d" stroke="#2d2d2d"></path><path d="M392 318L321 221L271 265Z" fill="#2b2b2b" stroke="#2b2b2b"></path><path d="M268 487L406 504L321 436Z" fill="#252525" stroke="#252525"></path><path d="M220 324L194 392L321 436Z" fill="#282828" stroke="#282828"></path><path d="M406 504L481 500L462 439Z" fill="#181818" stroke="#181818"></path><path d="M462 439L526 301L408 395Z" fill="#303030" stroke="#303030"></path><path d="M392 318L438 180L321 221Z" fill="#222222" stroke="#222222"></path><path d="M606 376L526 301L462 439Z" fill="#2b2b2b" stroke="#2b2b2b"></path><path d="M526 301L438 180L392 318Z" fill="#2d2d2d" stroke="#2d2d2d"></path><path d="M121 321L128 432L194 392Z" fill="#222222" stroke="#222222"></path><path d="M194 392L176 525L268 487Z" fill="#2d2d2d" stroke="#2d2d2d"></path><path d="M133 239L121 321L220 324Z" fill="#333333" stroke="#333333"></path><path d="M220 324L121 321L194 392Z" fill="#252525" stroke="#252525"></path><path d="M133 239L220 324L271 265Z" fill="#2b2b2b" stroke="#2b2b2b"></path><path d="M311 132L232 169L321 221Z" fill="#222222" stroke="#222222"></path><path d="M321 221L232 169L271 265Z" fill="#222222" stroke="#222222"></path><path d="M128 432L176 525L194 392Z" fill="#1d1d1d" stroke="#1d1d1d"></path><path d="M268 487L329 600L406 504Z" fill="#1b1b1b" stroke="#1b1b1b"></path><path d="M406 504L487 600L481 500Z" fill="#1b1b1b" stroke="#1b1b1b"></path><path d="M230 600L329 600L268 487Z" fill="#1b1b1b" stroke="#1b1b1b"></path><path d="M438 180L311 132L321 221Z" fill="#181818" stroke="#181818"></path><path d="M329 600L403 600L406 504Z" fill="#222222" stroke="#222222"></path><path d="M232 169L133 239L271 265Z" fill="#282828" stroke="#282828"></path><path d="M128 432L133 507L176 525Z" fill="#181818" stroke="#181818"></path><path d="M176 525L230 600L268 487Z" fill="#1b1b1b" stroke="#1b1b1b"></path><path d="M526 301L504 175L438 180Z" fill="#282828" stroke="#282828"></path><path d="M438 180L429 102L311 132Z" fill="#2d2d2d" stroke="#2d2d2d"></path><path d="M606 376L575 261L526 301Z" fill="#2d2d2d" stroke="#2d2d2d"></path><path d="M526 301L575 261L504 175Z" fill="#282828" stroke="#282828"></path><path d="M131 600L230 600L176 525Z" fill="#2d2d2d" stroke="#2d2d2d"></path><path d="M604 519L606 376L481 500Z" fill="#202020" stroke="#202020"></path><path d="M481 500L606 376L462 439Z" fill="#2b2b2b" stroke="#2b2b2b"></path><path d="M403 600L487 600L406 504Z" fill="#222222" stroke="#222222"></path><path d="M311 132L225 116L232 169Z" fill="#1d1d1d" stroke="#1d1d1d"></path><path d="M232 169L118 102L133 239Z" fill="#2b2b2b" stroke="#2b2b2b"></path><path d="M474 114L429 102L438 180Z" fill="#181818" stroke="#181818"></path><path d="M311 132L289 0L225 116Z" fill="#222222" stroke="#222222"></path><path d="M600 72L474 114L504 175Z" fill="#282828" stroke="#282828"></path><path d="M504 175L474 114L438 180Z" fill="#222222" stroke="#222222"></path><path d="M487 600L604 519L481 500Z" fill="#2d2d2d" stroke="#2d2d2d"></path><path d="M674 235L597 201L575 261Z" fill="#333333" stroke="#333333"></path><path d="M575 261L597 201L504 175Z" fill="#282828" stroke="#282828"></path><path d="M133 507L131 600L176 525Z" fill="#202020" stroke="#202020"></path><path d="M0 527L131 600L133 507Z" fill="#1d1d1d" stroke="#1d1d1d"></path><path d="M0 527L133 507L128 432Z" fill="#202020" stroke="#202020"></path><path d="M733 392L674 322L606 376Z" fill="#222222" stroke="#222222"></path><path d="M606 376L674 322L575 261Z" fill="#202020" stroke="#202020"></path><path d="M0 288L0 392L121 321Z" fill="#303030" stroke="#303030"></path><path d="M121 321L0 392L128 432Z" fill="#282828" stroke="#282828"></path><path d="M0 288L121 321L133 239Z" fill="#333333" stroke="#333333"></path><path d="M487 600L596 600L604 519Z" fill="#181818" stroke="#181818"></path><path d="M604 519L733 392L606 376Z" fill="#1b1b1b" stroke="#1b1b1b"></path><path d="M188 0L118 102L225 116Z" fill="#303030" stroke="#303030"></path><path d="M225 116L118 102L232 169Z" fill="#1b1b1b" stroke="#1b1b1b"></path><path d="M0 229L0 288L133 239Z" fill="#222222" stroke="#222222"></path><path d="M674 322L674 235L575 261Z" fill="#202020" stroke="#202020"></path><path d="M597 201L600 72L504 175Z" fill="#2b2b2b" stroke="#2b2b2b"></path><path d="M517 0L361 0L429 102Z" fill="#222222" stroke="#222222"></path><path d="M429 102L361 0L311 132Z" fill="#252525" stroke="#252525"></path><path d="M517 0L429 102L474 114Z" fill="#2d2d2d" stroke="#2d2d2d"></path><path d="M118 102L0 229L133 239Z" fill="#1b1b1b" stroke="#1b1b1b"></path><path d="M361 0L289 0L311 132Z" fill="#202020" stroke="#202020"></path><path d="M0 392L0 527L128 432Z" fill="#303030" stroke="#303030"></path><path d="M727 521L733 392L604 519Z" fill="#333333" stroke="#333333"></path><path d="M674 322L805 308L674 235Z" fill="#2b2b2b" stroke="#2b2b2b"></path><path d="M722 76L600 72L597 201Z" fill="#303030" stroke="#303030"></path><path d="M289 0L188 0L225 116Z" fill="#252525" stroke="#252525"></path><path d="M118 102L0 85L0 229Z" fill="#1b1b1b" stroke="#1b1b1b"></path><path d="M600 72L517 0L474 114Z" fill="#181818" stroke="#181818"></path><path d="M0 527L0 600L131 600Z" fill="#1b1b1b" stroke="#1b1b1b"></path><path d="M695 600L727 521L604 519Z" fill="#222222" stroke="#222222"></path><path d="M596 600L695 600L604 519Z" fill="#202020" stroke="#202020"></path><path d="M188 0L118 0L118 102Z" fill="#181818" stroke="#181818"></path><path d="M662 0L571 0L600 72Z" fill="#202020" stroke="#202020"></path><path d="M600 72L571 0L517 0Z" fill="#222222" stroke="#222222"></path><path d="M727 521L778 412L733 392Z" fill="#202020" stroke="#202020"></path><path d="M733 392L805 308L674 322Z" fill="#1d1d1d" stroke="#1d1d1d"></path><path d="M674 235L722 76L597 201Z" fill="#181818" stroke="#181818"></path><path d="M805 522L778 412L727 521Z" fill="#333333" stroke="#333333"></path><path d="M118 0L0 85L118 102Z" fill="#2b2b2b" stroke="#2b2b2b"></path><path d="M778 412L805 308L733 392Z" fill="#222222" stroke="#222222"></path><path d="M805 308L776 172L674 235Z" fill="#282828" stroke="#282828"></path><path d="M768 121L722 76L674 235Z" fill="#252525" stroke="#252525"></path><path d="M695 600L768 600L727 521Z" fill="#303030" stroke="#303030"></path><path d="M778 412L900 373L805 308Z" fill="#1d1d1d" stroke="#1d1d1d"></path><path d="M768 600L805 522L727 521Z" fill="#222222" stroke="#222222"></path><path d="M722 76L662 0L600 72Z" fill="#222222" stroke="#222222"></path><path d="M776 172L768 121L674 235Z" fill="#303030" stroke="#303030"></path><path d="M722 76L781 0L662 0Z" fill="#282828" stroke="#282828"></path><path d="M900 160L768 121L776 172Z" fill="#282828" stroke="#282828"></path><path d="M118 0L0 0L0 85Z" fill="#252525" stroke="#252525"></path><path d="M900 482L900 373L778 412Z" fill="#2d2d2d" stroke="#2d2d2d"></path><path d="M805 308L900 160L776 172Z" fill="#1b1b1b" stroke="#1b1b1b"></path><path d="M900 482L778 412L805 522Z" fill="#303030" stroke="#303030"></path><path d="M900 373L900 317L805 308Z" fill="#282828" stroke="#282828"></path><path d="M900 600L900 482L805 522Z" fill="#202020" stroke="#202020"></path><path d="M900 92L781 0L768 121Z" fill="#303030" stroke="#303030"></path><path d="M768 121L781 0L722 76Z" fill="#2b2b2b" stroke="#2b2b2b"></path><path d="M900 317L900 160L805 308Z" fill="#181818" stroke="#181818"></path><path d="M768 600L900 600L805 522Z" fill="#252525" stroke="#252525"></path><path d="M900 160L900 92L768 121Z" fill="#282828" stroke="#282828"></path><path d="M900 92L900 0L781 0Z" fill="#2b2b2b" stroke="#2b2b2b"></path></g></svg>