<svg id="visual" viewBox="0 0 900 600" width="900" height="600" xmlns="http://www.w3.org/2000/svg" xmlns:xlink="http://www.w3.org/1999/xlink" version="1.1"><g stroke-width="1" stroke-linejoin="bevel"><path d="M409 299L380 223L319 239Z" fill="#2b2b2b" stroke="#2b2b2b"></path><path d="M319 239L288 301L409 299Z" fill="#1b1b1b" stroke="#1b1b1b"></path><path d="M310 403L438 381L409 299Z" fill="#1d1d1d" stroke="#1d1d1d"></path><path d="M319 239L223 276L288 301Z" fill="#2b2b2b" stroke="#2b2b2b"></path><path d="M288 301L310 403L409 299Z" fill="#252525" stroke="#252525"></path><path d="M161 383L310 403L288 301Z" fill="#222222" stroke="#222222"></path><path d="M530 311L482 193L409 299Z" fill="#181818" stroke="#181818"></path><path d="M409 299L482 193L380 223Z" fill="#303030" stroke="#303030"></path><path d="M380 223L263 122L319 239Z" fill="#1b1b1b" stroke="#1b1b1b"></path><path d="M438 381L530 311L409 299Z" fill="#181818" stroke="#181818"></path><path d="M399 67L263 122L380 223Z" fill="#2b2b2b" stroke="#2b2b2b"></path><path d="M319 239L171 209L223 276Z" fill="#282828" stroke="#282828"></path><path d="M429 488L514 393L438 381Z" fill="#1b1b1b" stroke="#1b1b1b"></path><path d="M438 381L514 393L530 311Z" fill="#2b2b2b" stroke="#2b2b2b"></path><path d="M263 122L171 209L319 239Z" fill="#222222" stroke="#222222"></path><path d="M223 276L161 383L288 301Z" fill="#1b1b1b" stroke="#1b1b1b"></path><path d="M482 193L399 67L380 223Z" fill="#1b1b1b" stroke="#1b1b1b"></path><path d="M310 403L429 488L438 381Z" fill="#1b1b1b" stroke="#1b1b1b"></path><path d="M105 293L161 383L223 276Z" fill="#333333" stroke="#333333"></path><path d="M310 403L274 485L429 488Z" fill="#303030" stroke="#303030"></path><path d="M161 383L274 485L310 403Z" fill="#282828" stroke="#282828"></path><path d="M534 483L572 369L514 393Z" fill="#2d2d2d" stroke="#2d2d2d"></path><path d="M514 393L572 369L530 311Z" fill="#252525" stroke="#252525"></path><path d="M530 311L593 279L482 193Z" fill="#222222" stroke="#222222"></path><path d="M572 369L593 279L530 311Z" fill="#303030" stroke="#303030"></path><path d="M482 193L477 72L399 67Z" fill="#2d2d2d" stroke="#2d2d2d"></path><path d="M563 133L477 72L482 193Z" fill="#303030" stroke="#303030"></path><path d="M285 0L202 100L263 122Z" fill="#202020" stroke="#202020"></path><path d="M263 122L202 100L171 209Z" fill="#202020" stroke="#202020"></path><path d="M605 168L563 133L482 193Z" fill="#181818" stroke="#181818"></path><path d="M66 98L117 218L171 209Z" fill="#333333" stroke="#333333"></path><path d="M171 209L105 293L223 276Z" fill="#1b1b1b" stroke="#1b1b1b"></path><path d="M117 218L105 293L171 209Z" fill="#202020" stroke="#202020"></path><path d="M593 279L605 168L482 193Z" fill="#1d1d1d" stroke="#1d1d1d"></path><path d="M429 488L534 483L514 393Z" fill="#1d1d1d" stroke="#1d1d1d"></path><path d="M105 293L111 381L161 383Z" fill="#1d1d1d" stroke="#1d1d1d"></path><path d="M161 383L164 493L274 485Z" fill="#1d1d1d" stroke="#1d1d1d"></path><path d="M477 72L362 0L399 67Z" fill="#282828" stroke="#282828"></path><path d="M399 67L285 0L263 122Z" fill="#222222" stroke="#222222"></path><path d="M362 0L285 0L399 67Z" fill="#2d2d2d" stroke="#2d2d2d"></path><path d="M111 381L164 493L161 383Z" fill="#202020" stroke="#202020"></path><path d="M274 485L394 600L429 488Z" fill="#333333" stroke="#333333"></path><path d="M581 600L596 494L534 483Z" fill="#202020" stroke="#202020"></path><path d="M534 483L596 494L572 369Z" fill="#222222" stroke="#222222"></path><path d="M572 369L682 301L593 279Z" fill="#282828" stroke="#282828"></path><path d="M593 279L682 301L605 168Z" fill="#303030" stroke="#303030"></path><path d="M485 600L534 483L429 488Z" fill="#222222" stroke="#222222"></path><path d="M679 404L682 301L572 369Z" fill="#2b2b2b" stroke="#2b2b2b"></path><path d="M563 133L539 0L477 72Z" fill="#181818" stroke="#181818"></path><path d="M477 72L539 0L362 0Z" fill="#1d1d1d" stroke="#1d1d1d"></path><path d="M569 0L539 0L563 133Z" fill="#303030" stroke="#303030"></path><path d="M569 0L563 133L684 75Z" fill="#181818" stroke="#181818"></path><path d="M285 600L394 600L274 485Z" fill="#181818" stroke="#181818"></path><path d="M285 0L173 0L202 100Z" fill="#202020" stroke="#202020"></path><path d="M202 100L66 98L171 209Z" fill="#333333" stroke="#333333"></path><path d="M178 600L285 600L274 485Z" fill="#2b2b2b" stroke="#2b2b2b"></path><path d="M120 0L66 98L202 100Z" fill="#333333" stroke="#333333"></path><path d="M117 218L0 224L105 293Z" fill="#202020" stroke="#202020"></path><path d="M0 432L69 472L111 381Z" fill="#202020" stroke="#202020"></path><path d="M596 494L679 404L572 369Z" fill="#252525" stroke="#252525"></path><path d="M684 75L563 133L605 168Z" fill="#1d1d1d" stroke="#1d1d1d"></path><path d="M394 600L485 600L429 488Z" fill="#202020" stroke="#202020"></path><path d="M0 328L111 381L105 293Z" fill="#181818" stroke="#181818"></path><path d="M111 381L69 472L164 493Z" fill="#202020" stroke="#202020"></path><path d="M164 493L178 600L274 485Z" fill="#2b2b2b" stroke="#2b2b2b"></path><path d="M66 98L0 224L117 218Z" fill="#202020" stroke="#202020"></path><path d="M173 0L120 0L202 100Z" fill="#1d1d1d" stroke="#1d1d1d"></path><path d="M0 224L0 328L105 293Z" fill="#2b2b2b" stroke="#2b2b2b"></path><path d="M96 600L178 600L164 493Z" fill="#202020" stroke="#202020"></path><path d="M729 174L684 75L605 168Z" fill="#2b2b2b" stroke="#2b2b2b"></path><path d="M765 214L729 174L682 301Z" fill="#222222" stroke="#222222"></path><path d="M682 301L729 174L605 168Z" fill="#252525" stroke="#252525"></path><path d="M596 494L717 507L679 404Z" fill="#202020" stroke="#202020"></path><path d="M485 600L581 600L534 483Z" fill="#1b1b1b" stroke="#1b1b1b"></path><path d="M0 328L0 432L111 381Z" fill="#222222" stroke="#222222"></path><path d="M69 472L96 600L164 493Z" fill="#1d1d1d" stroke="#1d1d1d"></path><path d="M66 98L0 82L0 224Z" fill="#303030" stroke="#303030"></path><path d="M0 0L0 82L66 98Z" fill="#1d1d1d" stroke="#1d1d1d"></path><path d="M786 290L765 214L682 301Z" fill="#222222" stroke="#222222"></path><path d="M792 72L708 0L684 75Z" fill="#222222" stroke="#222222"></path><path d="M0 532L96 600L69 472Z" fill="#282828" stroke="#282828"></path><path d="M679 404L786 290L682 301Z" fill="#181818" stroke="#181818"></path><path d="M826 367L786 290L679 404Z" fill="#303030" stroke="#303030"></path><path d="M702 600L717 507L596 494Z" fill="#2d2d2d" stroke="#2d2d2d"></path><path d="M792 72L684 75L729 174Z" fill="#181818" stroke="#181818"></path><path d="M684 75L708 0L569 0Z" fill="#1b1b1b" stroke="#1b1b1b"></path><path d="M792 72L729 174L765 214Z" fill="#252525" stroke="#252525"></path><path d="M0 432L0 532L69 472Z" fill="#282828" stroke="#282828"></path><path d="M120 0L0 0L66 98Z" fill="#1b1b1b" stroke="#1b1b1b"></path><path d="M581 600L702 600L596 494Z" fill="#222222" stroke="#222222"></path><path d="M783 495L826 367L679 404Z" fill="#2d2d2d" stroke="#2d2d2d"></path><path d="M783 495L679 404L717 507Z" fill="#181818" stroke="#181818"></path><path d="M900 174L792 72L765 214Z" fill="#333333" stroke="#333333"></path><path d="M900 174L765 214L786 290Z" fill="#333333" stroke="#333333"></path><path d="M794 600L783 495L717 507Z" fill="#282828" stroke="#282828"></path><path d="M0 532L0 600L96 600Z" fill="#1d1d1d" stroke="#1d1d1d"></path><path d="M900 0L813 0L792 72Z" fill="#2b2b2b" stroke="#2b2b2b"></path><path d="M792 72L813 0L708 0Z" fill="#202020" stroke="#202020"></path><path d="M900 417L900 311L826 367Z" fill="#181818" stroke="#181818"></path><path d="M826 367L900 311L786 290Z" fill="#333333" stroke="#333333"></path><path d="M702 600L794 600L717 507Z" fill="#2d2d2d" stroke="#2d2d2d"></path><path d="M783 495L900 417L826 367Z" fill="#282828" stroke="#282828"></path><path d="M900 311L900 174L786 290Z" fill="#1d1d1d" stroke="#1d1d1d"></path><path d="M900 467L900 417L783 495Z" fill="#222222" stroke="#222222"></path><path d="M900 174L900 115L792 72Z" fill="#222222" stroke="#222222"></path><path d="M900 600L900 467L783 495Z" fill="#303030" stroke="#303030"></path><path d="M900 115L900 0L792 72Z" fill="#333333" stroke="#333333"></path><path d="M794 600L900 600L783 495Z" fill="#333333" stroke="#333333"></path></g></svg>