<svg id="visual" viewBox="0 0 900 600" width="900" height="600" xmlns="http://www.w3.org/2000/svg" xmlns:xlink="http://www.w3.org/1999/xlink" version="1.1"><g stroke-width="1" stroke-linejoin="bevel"><path d="M422 329L309 367L405 381Z" fill="#222222" stroke="#222222"></path><path d="M422 329L312 263L309 367Z" fill="#333333" stroke="#333333"></path><path d="M422 329L373 224L312 263Z" fill="#303030" stroke="#303030"></path><path d="M309 367L430 472L405 381Z" fill="#282828" stroke="#282828"></path><path d="M405 381L491 429L422 329Z" fill="#1d1d1d" stroke="#1d1d1d"></path><path d="M430 472L491 429L405 381Z" fill="#303030" stroke="#303030"></path><path d="M422 329L519 169L373 224Z" fill="#2d2d2d" stroke="#2d2d2d"></path><path d="M491 429L534 322L422 329Z" fill="#303030" stroke="#303030"></path><path d="M168 312L198 392L309 367Z" fill="#333333" stroke="#333333"></path><path d="M309 367L272 496L430 472Z" fill="#2d2d2d" stroke="#2d2d2d"></path><path d="M373 224L303 172L312 263Z" fill="#181818" stroke="#181818"></path><path d="M312 263L168 312L309 367Z" fill="#2d2d2d" stroke="#2d2d2d"></path><path d="M421 133L303 172L373 224Z" fill="#2d2d2d" stroke="#2d2d2d"></path><path d="M198 392L272 496L309 367Z" fill="#2d2d2d" stroke="#2d2d2d"></path><path d="M199 180L168 312L312 263Z" fill="#1b1b1b" stroke="#1b1b1b"></path><path d="M430 472L460 525L491 429Z" fill="#303030" stroke="#303030"></path><path d="M491 429L569 380L534 322Z" fill="#1b1b1b" stroke="#1b1b1b"></path><path d="M361 600L460 525L430 472Z" fill="#252525" stroke="#252525"></path><path d="M608 532L569 380L491 429Z" fill="#303030" stroke="#303030"></path><path d="M519 169L422 329L534 322Z" fill="#1b1b1b" stroke="#1b1b1b"></path><path d="M519 169L421 133L373 224Z" fill="#2b2b2b" stroke="#2b2b2b"></path><path d="M199 134L199 180L303 172Z" fill="#202020" stroke="#202020"></path><path d="M303 172L199 180L312 263Z" fill="#252525" stroke="#252525"></path><path d="M572 234L519 169L534 322Z" fill="#333333" stroke="#333333"></path><path d="M569 380L590 288L534 322Z" fill="#2d2d2d" stroke="#2d2d2d"></path><path d="M590 288L572 234L534 322Z" fill="#2d2d2d" stroke="#2d2d2d"></path><path d="M168 312L129 413L198 392Z" fill="#333333" stroke="#333333"></path><path d="M198 392L170 498L272 496Z" fill="#303030" stroke="#303030"></path><path d="M108 265L129 413L168 312Z" fill="#252525" stroke="#252525"></path><path d="M129 413L170 498L198 392Z" fill="#222222" stroke="#222222"></path><path d="M272 496L361 600L430 472Z" fill="#222222" stroke="#222222"></path><path d="M307 63L199 134L303 172Z" fill="#181818" stroke="#181818"></path><path d="M199 180L108 265L168 312Z" fill="#282828" stroke="#282828"></path><path d="M292 600L361 600L272 496Z" fill="#2d2d2d" stroke="#2d2d2d"></path><path d="M108 166L108 265L199 180Z" fill="#1d1d1d" stroke="#1d1d1d"></path><path d="M125 600L135 482L0 494Z" fill="#2b2b2b" stroke="#2b2b2b"></path><path d="M129 413L135 482L170 498Z" fill="#252525" stroke="#252525"></path><path d="M172 600L292 600L272 496Z" fill="#2b2b2b" stroke="#2b2b2b"></path><path d="M172 600L272 496L170 498Z" fill="#252525" stroke="#252525"></path><path d="M421 133L307 63L303 172Z" fill="#202020" stroke="#202020"></path><path d="M387 0L307 63L421 133Z" fill="#282828" stroke="#282828"></path><path d="M567 72L474 71L519 169Z" fill="#333333" stroke="#333333"></path><path d="M519 169L474 71L421 133Z" fill="#2b2b2b" stroke="#2b2b2b"></path><path d="M361 600L511 600L460 525Z" fill="#202020" stroke="#202020"></path><path d="M460 525L608 532L491 429Z" fill="#181818" stroke="#181818"></path><path d="M199 134L108 166L199 180Z" fill="#1d1d1d" stroke="#1d1d1d"></path><path d="M107 139L108 166L199 134Z" fill="#252525" stroke="#252525"></path><path d="M511 600L608 532L460 525Z" fill="#333333" stroke="#333333"></path><path d="M569 380L703 420L590 288Z" fill="#181818" stroke="#181818"></path><path d="M125 600L172 600L170 498Z" fill="#2d2d2d" stroke="#2d2d2d"></path><path d="M113 0L107 139L199 134Z" fill="#222222" stroke="#222222"></path><path d="M0 224L0 289L108 265Z" fill="#282828" stroke="#282828"></path><path d="M691 109L567 72L572 234Z" fill="#2d2d2d" stroke="#2d2d2d"></path><path d="M572 234L567 72L519 169Z" fill="#252525" stroke="#252525"></path><path d="M474 71L387 0L421 133Z" fill="#181818" stroke="#181818"></path><path d="M532 0L387 0L474 71Z" fill="#252525" stroke="#252525"></path><path d="M307 63L196 0L199 134Z" fill="#1d1d1d" stroke="#1d1d1d"></path><path d="M387 0L303 0L307 63Z" fill="#282828" stroke="#282828"></path><path d="M608 532L703 420L569 380Z" fill="#2d2d2d" stroke="#2d2d2d"></path><path d="M590 288L735 205L572 234Z" fill="#181818" stroke="#181818"></path><path d="M135 482L125 600L170 498Z" fill="#282828" stroke="#282828"></path><path d="M0 494L135 482L129 413Z" fill="#222222" stroke="#222222"></path><path d="M511 600L611 600L608 532Z" fill="#333333" stroke="#333333"></path><path d="M608 532L698 525L703 420Z" fill="#222222" stroke="#222222"></path><path d="M0 224L108 265L108 166Z" fill="#333333" stroke="#333333"></path><path d="M108 265L0 402L129 413Z" fill="#2d2d2d" stroke="#2d2d2d"></path><path d="M0 289L0 402L108 265Z" fill="#2b2b2b" stroke="#2b2b2b"></path><path d="M703 420L737 309L590 288Z" fill="#303030" stroke="#303030"></path><path d="M303 0L196 0L307 63Z" fill="#2b2b2b" stroke="#2b2b2b"></path><path d="M0 107L0 224L108 166Z" fill="#333333" stroke="#333333"></path><path d="M615 0L532 0L567 72Z" fill="#282828" stroke="#282828"></path><path d="M567 72L532 0L474 71Z" fill="#2d2d2d" stroke="#2d2d2d"></path><path d="M0 107L108 166L107 139Z" fill="#202020" stroke="#202020"></path><path d="M611 600L698 525L608 532Z" fill="#202020" stroke="#202020"></path><path d="M703 420L785 366L737 309Z" fill="#2b2b2b" stroke="#2b2b2b"></path><path d="M0 402L0 494L129 413Z" fill="#303030" stroke="#303030"></path><path d="M737 309L735 205L590 288Z" fill="#252525" stroke="#252525"></path><path d="M735 205L691 109L572 234Z" fill="#1d1d1d" stroke="#1d1d1d"></path><path d="M196 0L113 0L199 134Z" fill="#252525" stroke="#252525"></path><path d="M691 109L615 0L567 72Z" fill="#2b2b2b" stroke="#2b2b2b"></path><path d="M803 535L785 366L703 420Z" fill="#202020" stroke="#202020"></path><path d="M737 309L830 306L735 205Z" fill="#1d1d1d" stroke="#1d1d1d"></path><path d="M113 0L0 107L107 139Z" fill="#2b2b2b" stroke="#2b2b2b"></path><path d="M0 494L0 600L125 600Z" fill="#1d1d1d" stroke="#1d1d1d"></path><path d="M611 600L731 600L698 525Z" fill="#2d2d2d" stroke="#2d2d2d"></path><path d="M698 525L803 535L703 420Z" fill="#1b1b1b" stroke="#1b1b1b"></path><path d="M813 0L665 0L691 109Z" fill="#1d1d1d" stroke="#1d1d1d"></path><path d="M691 109L665 0L615 0Z" fill="#202020" stroke="#202020"></path><path d="M900 313L830 306L900 375Z" fill="#2b2b2b" stroke="#2b2b2b"></path><path d="M785 366L830 306L737 309Z" fill="#222222" stroke="#222222"></path><path d="M735 205L829 168L691 109Z" fill="#2b2b2b" stroke="#2b2b2b"></path><path d="M731 600L803 535L698 525Z" fill="#333333" stroke="#333333"></path><path d="M113 0L0 0L0 107Z" fill="#303030" stroke="#303030"></path><path d="M830 306L829 168L735 205Z" fill="#1d1d1d" stroke="#1d1d1d"></path><path d="M731 600L821 600L803 535Z" fill="#2d2d2d" stroke="#2d2d2d"></path><path d="M900 375L830 306L785 366Z" fill="#202020" stroke="#202020"></path><path d="M900 84L837 88L829 168Z" fill="#252525" stroke="#252525"></path><path d="M829 168L837 88L691 109Z" fill="#181818" stroke="#181818"></path><path d="M900 195L829 168L830 306Z" fill="#1b1b1b" stroke="#1b1b1b"></path><path d="M900 375L785 366L803 535Z" fill="#222222" stroke="#222222"></path><path d="M900 522L900 375L803 535Z" fill="#1d1d1d" stroke="#1d1d1d"></path><path d="M900 313L900 195L830 306Z" fill="#1b1b1b" stroke="#1b1b1b"></path><path d="M900 0L813 0L837 88Z" fill="#202020" stroke="#202020"></path><path d="M837 88L813 0L691 109Z" fill="#303030" stroke="#303030"></path><path d="M821 600L900 522L803 535Z" fill="#252525" stroke="#252525"></path><path d="M900 195L900 84L829 168Z" fill="#222222" stroke="#222222"></path><path d="M821 600L900 600L900 522Z" fill="#2d2d2d" stroke="#2d2d2d"></path><path d="M900 84L900 0L837 88Z" fill="#2d2d2d" stroke="#2d2d2d"></path></g></svg>