<svg id="visual" viewBox="0 0 900 600" width="900" height="600" xmlns="http://www.w3.org/2000/svg" xmlns:xlink="http://www.w3.org/1999/xlink" version="1.1"><rect x="0" y="0" width="900" height="600" fill="#333333"></rect><g transform="translate(452.08776764330094 274.6573897914817)"><path d="M109.7 -112.1C155.2 -92.6 214 -70.4 240.9 -26.4C267.9 17.6 263 83.3 232.6 132.8C202.3 182.3 146.4 215.7 92.7 220.4C38.9 225.2 -12.9 201.4 -65.2 181.4C-117.6 161.4 -170.5 145.2 -209 106.9C-247.4 68.6 -271.4 8.3 -259.8 -43.7C-248.2 -95.8 -200.9 -139.4 -151.7 -158.2C-102.4 -177.1 -51.2 -171 -9.5 -159.7C32.1 -148.3 64.3 -131.6 109.7 -112.1" fill="#181818"></path></g></svg>