<svg id="visual" viewBox="0 0 900 600" width="900" height="600" xmlns="http://www.w3.org/2000/svg" xmlns:xlink="http://www.w3.org/1999/xlink" version="1.1"><rect x="0" y="0" width="900" height="600" fill="#333333"></rect><g transform="translate(417.28931217846264 316.6766824109392)"><path d="M154.5 -193C195.1 -150.1 219.2 -96.5 222.3 -44.3C225.4 7.9 207.5 58.7 176.7 92.6C145.9 126.6 102.2 143.6 54.2 170.5C6.2 197.3 -46.2 234 -84.1 223.5C-122 212.9 -145.4 155.2 -153.6 105.8C-161.8 56.3 -154.8 15.1 -145.4 -23.5C-136 -62.1 -124.2 -98.1 -99.6 -143.7C-75 -189.4 -37.5 -244.7 9.7 -256.3C57 -267.9 114 -235.8 154.5 -193" fill="#181818"></path></g></svg>