<svg id="visual" viewBox="0 0 900 600" width="900" height="600" xmlns="http://www.w3.org/2000/svg" xmlns:xlink="http://www.w3.org/1999/xlink" version="1.1"><rect x="0" y="0" width="900" height="600" fill="#333333"></rect><g transform="translate(499.6525850258955 261.2458000877908)"><path d="M101.3 -117.7C128.9 -97.6 147.2 -63.4 156.1 -25.6C165.1 12.2 164.8 53.6 148.3 88.7C131.7 123.8 98.9 152.6 56.2 178.7C13.5 204.9 -39.1 228.3 -88.4 220.2C-137.6 212.1 -183.6 172.3 -217.5 121.6C-251.5 71 -273.5 9.4 -254 -35C-234.5 -79.4 -173.5 -106.7 -124.2 -123.1C-75 -139.4 -37.5 -144.7 -0.3 -144.3C36.9 -143.9 73.7 -137.8 101.3 -117.7" fill="#181818"></path></g></svg>