<svg id="visual" viewBox="0 0 900 600" width="900" height="600" xmlns="http://www.w3.org/2000/svg" xmlns:xlink="http://www.w3.org/1999/xlink" version="1.1"><rect x="0" y="0" width="900" height="600" fill="#333333"></rect><g transform="translate(432.0102389293115 315.898991170528)"><path d="M117.5 -145.3C160.8 -103.6 210.4 -74.7 235.2 -27.6C259.9 19.4 259.9 84.7 225.1 115.9C190.3 147 120.8 144 61.7 162.5C2.5 181.1 -46.3 221.1 -82 213.3C-117.7 205.5 -140.2 149.7 -166.1 98.9C-191.9 48 -221 1.9 -216.1 -40.2C-211.1 -82.3 -172.1 -120.4 -130.4 -162.4C-88.7 -204.4 -44.4 -250.2 -3.6 -245.8C37.1 -241.5 74.1 -187 117.5 -145.3" fill="#181818"></path></g></svg>