<svg id="visual" viewBox="0 0 900 600" width="900" height="600" xmlns="http://www.w3.org/2000/svg" xmlns:xlink="http://www.w3.org/1999/xlink" version="1.1"><rect x="0" y="0" width="900" height="600" fill="#333333"></rect><g transform="translate(441.0300960733389 333.22268458278586)"><path d="M113.5 -135C162.8 -94 229.1 -73 240.2 -38.2C251.2 -3.4 207 45.3 169.5 86.2C132 127.2 101.2 160.4 62.1 177.8C22.9 195.1 -24.6 196.7 -78.1 188.5C-131.5 180.4 -190.9 162.4 -212.9 123.4C-234.8 84.4 -219.3 24.2 -208.3 -36.4C-197.2 -97 -190.5 -158 -156.5 -201.7C-122.6 -245.4 -61.3 -271.7 -14.6 -254.3C32.1 -237 64.3 -175.9 113.5 -135" fill="#181818"></path></g></svg>