<svg id="visual" viewBox="0 0 900 600" width="900" height="600" xmlns="http://www.w3.org/2000/svg" xmlns:xlink="http://www.w3.org/1999/xlink" version="1.1"><rect x="0" y="0" width="900" height="600" fill="#333333"></rect><g transform="translate(446.6049192563578 294.8066341735964)"><path d="M165.9 -196.7C211.3 -159.5 242.1 -103.8 238.1 -52.9C234.1 -1.9 195.4 44.3 163.2 88.7C130.9 133 105.1 175.5 61.9 207.4C18.7 239.3 -42 260.6 -98.2 249.1C-154.4 237.6 -206.3 193.3 -224.1 140.2C-242 87 -225.9 25 -198.9 -19C-172 -63 -134.2 -88.9 -99.2 -127.9C-64.3 -166.9 -32.1 -219 14 -235.7C60.2 -252.4 120.4 -233.8 165.9 -196.7" fill="#181818"></path></g></svg>