<svg id="visual" viewBox="0 0 900 600" width="900" height="600" xmlns="http://www.w3.org/2000/svg" xmlns:xlink="http://www.w3.org/1999/xlink" version="1.1"><rect x="0" y="0" width="900" height="600" fill="#333333"></rect><g transform="translate(440.63969668021923 308.5754131594512)"><path d="M119.9 -140.9C169.2 -101.6 232.3 -76.9 237.7 -42.5C243.1 -8.1 190.9 36 155.5 82.9C120.2 129.8 101.8 179.5 65.5 202.5C29.2 225.5 -25.1 221.8 -60.6 196.1C-96.2 170.3 -113.1 122.7 -144.6 78.4C-176.2 34.2 -222.5 -6.6 -219.2 -40.9C-215.9 -75.3 -162.9 -103.1 -118.1 -143.2C-73.3 -183.3 -36.6 -235.7 -0.6 -234.9C35.4 -234.1 70.7 -180.3 119.9 -140.9" fill="#181818"></path></g></svg>