<svg id="visual" viewBox="0 0 900 600" width="900" height="600" xmlns="http://www.w3.org/2000/svg" xmlns:xlink="http://www.w3.org/1999/xlink" version="1.1"><rect x="0" y="0" width="900" height="600" fill="#333333"></rect><g transform="translate(469.78931908480394 315.832804865834)"><path d="M126.9 -152.4C164.6 -119.5 195.6 -79.7 199.4 -38.1C203.3 3.5 180 47 154.9 88.4C129.8 129.9 102.9 169.2 68.2 177.7C33.5 186.1 -8.9 163.5 -64.9 153.7C-120.8 144 -190.3 147 -220.3 116.7C-250.3 86.4 -240.9 22.8 -220 -28.9C-199.1 -80.6 -166.7 -120.3 -128.1 -153C-89.6 -185.7 -44.8 -211.4 -0.1 -211.2C44.6 -211.1 89.1 -185.2 126.9 -152.4" fill="#181818"></path></g></svg>