<svg id="visual" viewBox="0 0 900 600" width="900" height="600" xmlns="http://www.w3.org/2000/svg" xmlns:xlink="http://www.w3.org/1999/xlink" version="1.1"><rect x="0" y="0" width="900" height="600" fill="#333333"></rect><g transform="translate(474.5544450631452 306.29554294561586)"><path d="M147.9 -169.9C184.3 -145.6 201.5 -92.1 195.3 -46.4C189.1 -0.7 159.5 37.2 132.1 68.5C104.7 99.8 79.6 124.6 46.5 143.4C13.5 162.3 -27.5 175.1 -79.8 175.2C-132.2 175.3 -196 162.6 -225.3 124.1C-254.6 85.6 -249.4 21.3 -227.8 -29.5C-206.1 -80.3 -168 -117.5 -127.3 -141C-86.6 -164.5 -43.3 -174.2 6.2 -181.7C55.7 -189.1 111.4 -194.1 147.9 -169.9" fill="#181818"></path></g></svg>