<svg id="visual" viewBox="0 0 900 600" width="900" height="600" xmlns="http://www.w3.org/2000/svg" xmlns:xlink="http://www.w3.org/1999/xlink" version="1.1"><rect x="0" y="0" width="900" height="600" fill="#333333"></rect><g transform="translate(449.12350568843726 326.69583610651785)"><path d="M153.7 -181.6C200.4 -144.1 240 -96.7 249.3 -44C258.6 8.8 237.6 66.9 203.8 110.4C170 153.8 123.5 182.6 76 193C28.6 203.3 -19.7 195.1 -54.2 172.4C-88.7 149.7 -109.3 112.3 -147.2 72.5C-185.1 32.6 -240.3 -9.7 -248.6 -58C-257 -106.2 -218.5 -160.4 -169.2 -197.3C-120 -234.3 -60 -254.2 -3.2 -250.3C53.6 -246.5 107.1 -219 153.7 -181.6" fill="#181818"></path></g></svg>