<svg id="visual" viewBox="0 0 900 600" width="900" height="600" xmlns="http://www.w3.org/2000/svg" xmlns:xlink="http://www.w3.org/1999/xlink" version="1.1"><rect x="0" y="0" width="900" height="600" fill="#365314"></rect><defs><linearGradient id="grad1_0" x1="33.3%" y1="0%" x2="100%" y2="100%"><stop offset="20%" stop-color="#0e1502" stop-opacity="1"></stop><stop offset="80%" stop-color="#0e1502" stop-opacity="1"></stop></linearGradient></defs><defs><linearGradient id="grad1_1" x1="33.3%" y1="0%" x2="100%" y2="100%"><stop offset="20%" stop-color="#0e1502" stop-opacity="1"></stop><stop offset="80%" stop-color="#252525" stop-opacity="1"></stop></linearGradient></defs><defs><linearGradient id="grad1_2" x1="33.3%" y1="0%" x2="100%" y2="100%"><stop offset="20%" stop-color="#365314" stop-opacity="1"></stop><stop offset="80%" stop-color="#252525" stop-opacity="1"></stop></linearGradient></defs><defs><linearGradient id="grad2_0" x1="0%" y1="0%" x2="66.7%" y2="100%"><stop offset="20%" stop-color="#0e1502" stop-opacity="1"></stop><stop offset="80%" stop-color="#0e1502" stop-opacity="1"></stop></linearGradient></defs><defs><linearGradient id="grad2_1" x1="0%" y1="0%" x2="66.7%" y2="100%"><stop offset="20%" stop-color="#252525" stop-opacity="1"></stop><stop offset="80%" stop-color="#0e1502" stop-opacity="1"></stop></linearGradient></defs><defs><linearGradient id="grad2_2" x1="0%" y1="0%" x2="66.7%" y2="100%"><stop offset="20%" stop-color="#252525" stop-opacity="1"></stop><stop offset="80%" stop-color="#365314" stop-opacity="1"></stop></linearGradient></defs><g transform="translate(900, 0)"><path d="M0 405.6C-34.8 374.1 -69.6 342.6 -107.2 330C-144.9 317.5 -185.3 323.9 -228.1 313.9C-270.8 303.9 -315.9 277.4 -328.2 238.4C-340.4 199.5 -319.7 148.1 -327.2 106.3C-334.6 64.5 -370.1 32.2 -405.6 0L0 0Z" fill="#1a2e05"></path><path d="M0 270.4C-23.2 249.4 -46.4 228.4 -71.5 220C-96.6 211.7 -123.5 216 -152 209.3C-180.6 202.6 -210.6 184.9 -218.8 158.9C-226.9 133 -213.2 98.7 -218.1 70.9C-223.1 43 -246.7 21.5 -270.4 0L0 0Z" fill="#0f1b03"></path><path d="M0 135.2C-11.6 124.7 -23.2 114.2 -35.7 110C-48.3 105.8 -61.8 108 -76 104.6C-90.3 101.3 -105.3 92.5 -109.4 79.5C-113.5 66.5 -106.6 49.4 -109.1 35.4C-111.5 21.5 -123.4 10.7 -135.2 0L0 0Z" fill="#0e1502"></path></g><g transform="translate(0, 600)"><path d="M0 -405.6C32.5 -369.6 65 -333.6 105.4 -324.3C145.7 -315 193.9 -332.3 234.5 -322.8C275.1 -313.3 308.1 -277 328.2 -238.4C348.2 -199.9 355.4 -159.1 366.2 -119C376.9 -78.9 391.3 -39.4 405.6 0L0 0Z" fill="#1a2e05"></path><path d="M0 -270.4C21.7 -246.4 43.3 -222.4 70.2 -216.2C97.2 -210 129.3 -221.5 156.4 -215.2C183.4 -208.9 205.4 -184.6 218.8 -158.9C232.2 -133.2 236.9 -106.1 244.1 -79.3C251.3 -52.6 260.8 -26.3 270.4 0L0 0Z" fill="#0f1b03"></path><path d="M0 -135.2C10.8 -123.2 21.7 -111.2 35.1 -108.1C48.6 -105 64.6 -110.8 78.2 -107.6C91.7 -104.4 102.7 -92.3 109.4 -79.5C116.1 -66.6 118.5 -53 122.1 -39.7C125.6 -26.3 130.4 -13.1 135.2 0L0 0Z" fill="#0e1502"></path></g></svg>