<svg id="visual" viewBox="0 0 900 600" width="900" height="600" xmlns="http://www.w3.org/2000/svg" xmlns:xlink="http://www.w3.org/1999/xlink" version="1.1"><rect x="0" y="0" width="900" height="600" fill="#67e8f9"></rect><defs><linearGradient id="grad1_0" x1="33.3%" y1="0%" x2="100%" y2="100%"><stop offset="20%" stop-color="#0891b2" stop-opacity="1"></stop><stop offset="80%" stop-color="#0891b2" stop-opacity="1"></stop></linearGradient></defs><defs><linearGradient id="grad1_1" x1="33.3%" y1="0%" x2="100%" y2="100%"><stop offset="20%" stop-color="#0891b2" stop-opacity="1"></stop><stop offset="80%" stop-color="#252525" stop-opacity="1"></stop></linearGradient></defs><defs><linearGradient id="grad1_2" x1="33.3%" y1="0%" x2="100%" y2="100%"><stop offset="20%" stop-color="#67e8f9" stop-opacity="1"></stop><stop offset="80%" stop-color="#252525" stop-opacity="1"></stop></linearGradient></defs><defs><linearGradient id="grad2_0" x1="0%" y1="0%" x2="66.7%" y2="100%"><stop offset="20%" stop-color="#0891b2" stop-opacity="1"></stop><stop offset="80%" stop-color="#0891b2" stop-opacity="1"></stop></linearGradient></defs><defs><linearGradient id="grad2_1" x1="0%" y1="0%" x2="66.7%" y2="100%"><stop offset="20%" stop-color="#252525" stop-opacity="1"></stop><stop offset="80%" stop-color="#0891b2" stop-opacity="1"></stop></linearGradient></defs><defs><linearGradient id="grad2_2" x1="0%" y1="0%" x2="66.7%" y2="100%"><stop offset="20%" stop-color="#252525" stop-opacity="1"></stop><stop offset="80%" stop-color="#67e8f9" stop-opacity="1"></stop></linearGradient></defs><g transform="translate(900, 0)"><path d="M0 405.6C-43.6 398.1 -87.2 390.5 -118.7 365.2C-150.1 339.9 -169.4 296.8 -196.3 270.2C-223.2 243.6 -257.8 233.6 -293.7 213.4C-329.6 193.1 -366.9 162.6 -385.8 125.3C-404.7 88.1 -405.1 44 -405.6 0L0 0Z" fill="#22d3ee"></path><path d="M0 270.4C-29.1 265.4 -58.1 260.4 -79.1 243.5C-100.1 226.6 -112.9 197.9 -130.9 180.1C-148.8 162.4 -171.8 155.8 -195.8 142.2C-219.7 128.7 -244.6 108.4 -257.2 83.6C-269.8 58.7 -270.1 29.4 -270.4 0L0 0Z" fill="#06b6d4"></path><path d="M0 135.2C-14.5 132.7 -29.1 130.2 -39.6 121.7C-50 113.3 -56.5 98.9 -65.4 90.1C-74.4 81.2 -85.9 77.9 -97.9 71.1C-109.9 64.4 -122.3 54.2 -128.6 41.8C-134.9 29.4 -135 14.7 -135.2 0L0 0Z" fill="#0891b2"></path></g><g transform="translate(0, 600)"><path d="M0 -405.6C43.4 -403.6 86.8 -401.6 125.3 -385.8C163.8 -369.9 197.4 -340.2 225.1 -309.9C252.8 -279.5 274.7 -248.6 300.1 -218.1C325.6 -187.5 354.6 -157.4 372.8 -121.1C391 -84.9 398.3 -42.4 405.6 0L0 0Z" fill="#22d3ee"></path><path d="M0 -270.4C28.9 -269.1 57.9 -267.8 83.6 -257.2C109.2 -246.6 131.6 -226.8 150.1 -206.6C168.6 -186.4 183.1 -165.7 200.1 -145.4C217.1 -125 236.4 -104.9 248.5 -80.8C260.7 -56.6 265.5 -28.3 270.4 0L0 0Z" fill="#06b6d4"></path><path d="M0 -135.2C14.5 -134.5 28.9 -133.9 41.8 -128.6C54.6 -123.3 65.8 -113.4 75 -103.3C84.3 -93.2 91.6 -82.9 100 -72.7C108.5 -62.5 118.2 -52.5 124.3 -40.4C130.3 -28.3 132.8 -14.1 135.2 0L0 0Z" fill="#0891b2"></path></g></svg>