<svg id="visual" viewBox="0 0 900 600" width="900" height="600" xmlns="http://www.w3.org/2000/svg" xmlns:xlink="http://www.w3.org/1999/xlink" version="1.1"><rect x="0" y="0" width="900" height="600" fill="#10b981"></rect><defs><linearGradient id="grad1_0" x1="33.3%" y1="0%" x2="100%" y2="100%"><stop offset="20%" stop-color="#a7f3d0" stop-opacity="1"></stop><stop offset="80%" stop-color="#a7f3d0" stop-opacity="1"></stop></linearGradient></defs><defs><linearGradient id="grad1_1" x1="33.3%" y1="0%" x2="100%" y2="100%"><stop offset="20%" stop-color="#a7f3d0" stop-opacity="1"></stop><stop offset="80%" stop-color="#252525" stop-opacity="1"></stop></linearGradient></defs><defs><linearGradient id="grad1_2" x1="33.3%" y1="0%" x2="100%" y2="100%"><stop offset="20%" stop-color="#10b981" stop-opacity="1"></stop><stop offset="80%" stop-color="#252525" stop-opacity="1"></stop></linearGradient></defs><defs><linearGradient id="grad2_0" x1="0%" y1="0%" x2="66.7%" y2="100%"><stop offset="20%" stop-color="#a7f3d0" stop-opacity="1"></stop><stop offset="80%" stop-color="#a7f3d0" stop-opacity="1"></stop></linearGradient></defs><defs><linearGradient id="grad2_1" x1="0%" y1="0%" x2="66.7%" y2="100%"><stop offset="20%" stop-color="#252525" stop-opacity="1"></stop><stop offset="80%" stop-color="#a7f3d0" stop-opacity="1"></stop></linearGradient></defs><defs><linearGradient id="grad2_2" x1="0%" y1="0%" x2="66.7%" y2="100%"><stop offset="20%" stop-color="#252525" stop-opacity="1"></stop><stop offset="80%" stop-color="#10b981" stop-opacity="1"></stop></linearGradient></defs><g transform="translate(900, 0)"><path d="M0 405.6C-48.7 410.2 -97.3 414.9 -125.3 385.8C-153.4 356.7 -160.7 293.9 -194.6 267.8C-228.4 241.7 -288.7 252.3 -319.6 232.2C-350.5 212.1 -352 161.2 -361.4 117.4C-370.8 73.6 -388.2 36.8 -405.6 0L0 0Z" fill="#34d399"></path><path d="M0 270.4C-32.4 273.5 -64.9 276.6 -83.6 257.2C-102.2 237.8 -107.2 195.9 -129.7 178.5C-152.3 161.1 -192.4 168.2 -213 154.8C-233.6 141.4 -234.6 107.5 -240.9 78.3C-247.2 49.1 -258.8 24.5 -270.4 0L0 0Z" fill="#6ee7b7"></path><path d="M0 135.2C-16.2 136.7 -32.4 138.3 -41.8 128.6C-51.1 118.9 -53.6 98 -64.9 89.3C-76.1 80.6 -96.2 84.1 -106.5 77.4C-116.8 70.7 -117.3 53.7 -120.5 39.1C-123.6 24.5 -129.4 12.3 -135.2 0L0 0Z" fill="#a7f3d0"></path></g><g transform="translate(0, 600)"><path d="M0 -405.6C40.8 -400.6 81.6 -395.5 125.3 -385.8C169.1 -376 215.7 -361.5 236.3 -325.2C256.9 -289 251.5 -231 267 -194C282.4 -157 318.7 -141 345.2 -112.2C371.8 -83.3 388.7 -41.7 405.6 0L0 0Z" fill="#34d399"></path><path d="M0 -270.4C27.2 -267.1 54.4 -263.7 83.6 -257.2C112.7 -250.7 143.8 -241 157.5 -216.8C171.3 -192.6 167.7 -154 178 -129.3C188.3 -104.7 212.4 -94 230.2 -74.8C247.9 -55.6 259.1 -27.8 270.4 0L0 0Z" fill="#6ee7b7"></path><path d="M0 -135.2C13.6 -133.5 27.2 -131.8 41.8 -128.6C56.4 -125.3 71.9 -120.5 78.8 -108.4C85.6 -96.3 83.8 -77 89 -64.7C94.1 -52.3 106.2 -47 115.1 -37.4C123.9 -27.8 129.6 -13.9 135.2 0L0 0Z" fill="#a7f3d0"></path></g></svg>