<svg id="visual" viewBox="0 0 900 600" width="900" height="600" xmlns="http://www.w3.org/2000/svg" xmlns:xlink="http://www.w3.org/1999/xlink" version="1.1"><rect x="0" y="0" width="900" height="600" fill="#a21caf"></rect><defs><linearGradient id="grad1_0" x1="33.3%" y1="0%" x2="100%" y2="100%"><stop offset="20%" stop-color="#e879f9" stop-opacity="1"></stop><stop offset="80%" stop-color="#e879f9" stop-opacity="1"></stop></linearGradient></defs><defs><linearGradient id="grad1_1" x1="33.3%" y1="0%" x2="100%" y2="100%"><stop offset="20%" stop-color="#e879f9" stop-opacity="1"></stop><stop offset="80%" stop-color="#252525" stop-opacity="1"></stop></linearGradient></defs><defs><linearGradient id="grad1_2" x1="33.3%" y1="0%" x2="100%" y2="100%"><stop offset="20%" stop-color="#a21caf" stop-opacity="1"></stop><stop offset="80%" stop-color="#252525" stop-opacity="1"></stop></linearGradient></defs><defs><linearGradient id="grad2_0" x1="0%" y1="0%" x2="66.7%" y2="100%"><stop offset="20%" stop-color="#e879f9" stop-opacity="1"></stop><stop offset="80%" stop-color="#e879f9" stop-opacity="1"></stop></linearGradient></defs><defs><linearGradient id="grad2_1" x1="0%" y1="0%" x2="66.7%" y2="100%"><stop offset="20%" stop-color="#252525" stop-opacity="1"></stop><stop offset="80%" stop-color="#e879f9" stop-opacity="1"></stop></linearGradient></defs><defs><linearGradient id="grad2_2" x1="0%" y1="0%" x2="66.7%" y2="100%"><stop offset="20%" stop-color="#252525" stop-opacity="1"></stop><stop offset="80%" stop-color="#a21caf" stop-opacity="1"></stop></linearGradient></defs><g transform="translate(900, 0)"><path d="M0 405.6C-40.9 399.4 -81.9 393.3 -124.5 383.3C-167.2 373.3 -211.6 359.5 -238.4 328.2C-265.2 296.8 -274.4 247.9 -288.8 209.8C-303.3 171.8 -323 144.7 -343.3 111.6C-363.7 78.4 -384.7 39.2 -405.6 0L0 0Z" fill="#c026d3"></path><path d="M0 270.4C-27.3 266.3 -54.6 262.2 -83 255.5C-111.5 248.9 -141.1 239.7 -158.9 218.8C-176.8 197.9 -182.9 165.2 -192.5 139.9C-202.2 114.5 -215.3 96.5 -228.9 74.4C-242.5 52.3 -256.4 26.1 -270.4 0L0 0Z" fill="#d946ef"></path><path d="M0 135.2C-13.6 133.1 -27.3 131.1 -41.5 127.8C-55.7 124.4 -70.5 119.8 -79.5 109.4C-88.4 98.9 -91.5 82.6 -96.3 69.9C-101.1 57.3 -107.7 48.2 -114.4 37.2C-121.2 26.1 -128.2 13.1 -135.2 0L0 0Z" fill="#e879f9"></path></g><g transform="translate(0, 600)"><path d="M0 -405.6C32.4 -368.8 64.8 -332 103.8 -319.6C142.8 -307.1 188.4 -319.2 222.8 -306.6C257.1 -294.1 280.3 -257 308.2 -223.9C336.1 -190.9 368.8 -162 385.8 -125.3C402.8 -88.7 404.2 -44.4 405.6 0L0 0Z" fill="#c026d3"></path><path d="M0 -270.4C21.6 -245.9 43.2 -221.3 69.2 -213C95.2 -204.8 125.6 -212.8 148.5 -204.4C171.4 -196 186.9 -171.3 205.5 -149.3C224.1 -127.3 245.8 -108 257.2 -83.6C268.5 -59.1 269.5 -29.6 270.4 0L0 0Z" fill="#d946ef"></path><path d="M0 -135.2C10.8 -122.9 21.6 -110.7 34.6 -106.5C47.6 -102.4 62.8 -106.4 74.3 -102.2C85.7 -98 93.4 -85.7 102.7 -74.6C112 -63.6 122.9 -54 128.6 -41.8C134.3 -29.6 134.7 -14.8 135.2 0L0 0Z" fill="#e879f9"></path></g></svg>