<svg id="visual" viewBox="0 0 900 600" width="900" height="600" xmlns="http://www.w3.org/2000/svg" xmlns:xlink="http://www.w3.org/1999/xlink" version="1.1"><rect x="0" y="0" width="900" height="600" fill="#f87171"></rect><defs><linearGradient id="grad1_0" x1="33.3%" y1="0%" x2="100%" y2="100%"><stop offset="20%" stop-color="#b91c1c" stop-opacity="1"></stop><stop offset="80%" stop-color="#b91c1c" stop-opacity="1"></stop></linearGradient></defs><defs><linearGradient id="grad1_1" x1="33.3%" y1="0%" x2="100%" y2="100%"><stop offset="20%" stop-color="#b91c1c" stop-opacity="1"></stop><stop offset="80%" stop-color="#252525" stop-opacity="1"></stop></linearGradient></defs><defs><linearGradient id="grad1_2" x1="33.3%" y1="0%" x2="100%" y2="100%"><stop offset="20%" stop-color="#f87171" stop-opacity="1"></stop><stop offset="80%" stop-color="#252525" stop-opacity="1"></stop></linearGradient></defs><defs><linearGradient id="grad2_0" x1="0%" y1="0%" x2="66.7%" y2="100%"><stop offset="20%" stop-color="#b91c1c" stop-opacity="1"></stop><stop offset="80%" stop-color="#b91c1c" stop-opacity="1"></stop></linearGradient></defs><defs><linearGradient id="grad2_1" x1="0%" y1="0%" x2="66.7%" y2="100%"><stop offset="20%" stop-color="#252525" stop-opacity="1"></stop><stop offset="80%" stop-color="#b91c1c" stop-opacity="1"></stop></linearGradient></defs><defs><linearGradient id="grad2_2" x1="0%" y1="0%" x2="66.7%" y2="100%"><stop offset="20%" stop-color="#252525" stop-opacity="1"></stop><stop offset="80%" stop-color="#f87171" stop-opacity="1"></stop></linearGradient></defs><g transform="translate(900, 0)"><path d="M0 405.6C-41.6 392.5 -83.3 379.4 -115 353.8C-146.7 328.2 -168.4 290.1 -190.4 262.1C-212.5 234.2 -234.7 216.4 -271.8 197.5C-309 178.6 -361 158.5 -385.8 125.3C-410.6 92.2 -408.1 46.1 -405.6 0L0 0Z" fill="#ef4444"></path><path d="M0 270.4C-27.8 261.7 -55.5 252.9 -76.6 235.9C-97.8 218.8 -112.3 193.4 -127 174.7C-141.6 156.1 -156.5 144.3 -181.2 131.7C-206 119 -240.7 105.6 -257.2 83.6C-273.7 61.5 -272.1 30.7 -270.4 0L0 0Z" fill="#dc2626"></path><path d="M0 135.2C-13.9 130.8 -27.8 126.5 -38.3 117.9C-48.9 109.4 -56.1 96.7 -63.5 87.4C-70.8 78.1 -78.2 72.1 -90.6 65.8C-103 59.5 -120.3 52.8 -128.6 41.8C-136.9 30.7 -136 15.4 -135.2 0L0 0Z" fill="#b91c1c"></path></g><g transform="translate(0, 600)"><path d="M0 -405.6C35.2 -370.1 70.4 -334.5 101 -311C131.7 -287.5 157.7 -276.1 193.4 -266.2C229 -256.3 274.3 -247.9 309.9 -225.1C345.5 -202.4 371.4 -165.3 385.8 -125.3C400.1 -85.4 402.9 -42.7 405.6 0L0 0Z" fill="#ef4444"></path><path d="M0 -270.4C23.5 -246.7 46.9 -223 67.4 -207.3C87.8 -191.7 105.2 -184 128.9 -177.4C152.7 -170.8 182.8 -165.2 206.6 -150.1C230.3 -134.9 247.6 -110.2 257.2 -83.6C266.8 -57 268.6 -28.5 270.4 0L0 0Z" fill="#dc2626"></path><path d="M0 -135.2C11.7 -123.4 23.5 -111.5 33.7 -103.7C43.9 -95.8 52.6 -92 64.5 -88.7C76.3 -85.4 91.4 -82.6 103.3 -75C115.2 -67.5 123.8 -55.1 128.6 -41.8C133.4 -28.5 134.3 -14.2 135.2 0L0 0Z" fill="#b91c1c"></path></g></svg>