<svg id="visual" viewBox="0 0 900 600" width="900" height="600" xmlns="http://www.w3.org/2000/svg" xmlns:xlink="http://www.w3.org/1999/xlink" version="1.1"><rect x="0" y="0" width="900" height="600" fill="#1c1917"></rect><defs><linearGradient id="grad1_0" x1="33.3%" y1="0%" x2="100%" y2="100%"><stop offset="20%" stop-color="#57534e" stop-opacity="1"></stop><stop offset="80%" stop-color="#57534e" stop-opacity="1"></stop></linearGradient></defs><defs><linearGradient id="grad1_1" x1="33.3%" y1="0%" x2="100%" y2="100%"><stop offset="20%" stop-color="#57534e" stop-opacity="1"></stop><stop offset="80%" stop-color="#252525" stop-opacity="1"></stop></linearGradient></defs><defs><linearGradient id="grad1_2" x1="33.3%" y1="0%" x2="100%" y2="100%"><stop offset="20%" stop-color="#1c1917" stop-opacity="1"></stop><stop offset="80%" stop-color="#252525" stop-opacity="1"></stop></linearGradient></defs><defs><linearGradient id="grad2_0" x1="0%" y1="0%" x2="66.7%" y2="100%"><stop offset="20%" stop-color="#57534e" stop-opacity="1"></stop><stop offset="80%" stop-color="#57534e" stop-opacity="1"></stop></linearGradient></defs><defs><linearGradient id="grad2_1" x1="0%" y1="0%" x2="66.7%" y2="100%"><stop offset="20%" stop-color="#252525" stop-opacity="1"></stop><stop offset="80%" stop-color="#57534e" stop-opacity="1"></stop></linearGradient></defs><defs><linearGradient id="grad2_2" x1="0%" y1="0%" x2="66.7%" y2="100%"><stop offset="20%" stop-color="#252525" stop-opacity="1"></stop><stop offset="80%" stop-color="#1c1917" stop-opacity="1"></stop></linearGradient></defs><g transform="translate(900, 0)"><path d="M0 405.6C-44 404.1 -88 402.6 -125.3 385.8C-162.7 368.9 -193.5 336.8 -222.2 305.8C-250.9 274.9 -277.6 245.2 -291.2 211.6C-304.9 178.1 -305.5 140.7 -322.4 104.8C-339.3 68.8 -372.5 34.4 -405.6 0L0 0Z" fill="#292524"></path><path d="M0 270.4C-29.3 269.4 -58.7 268.4 -83.6 257.2C-108.5 246 -129 224.5 -148.1 203.9C-167.3 183.2 -185.1 163.4 -194.2 141.1C-203.3 118.7 -203.7 93.8 -214.9 69.8C-226.2 45.9 -248.3 22.9 -270.4 0L0 0Z" fill="#44403c"></path><path d="M0 135.2C-14.7 134.7 -29.3 134.2 -41.8 128.6C-54.2 123 -64.5 112.3 -74.1 101.9C-83.6 91.6 -92.5 81.7 -97.1 70.5C-101.6 59.4 -101.8 46.9 -107.5 34.9C-113.1 22.9 -124.2 11.5 -135.2 0L0 0Z" fill="#57534e"></path></g><g transform="translate(0, 600)"><path d="M0 -405.6C33.3 -372 66.7 -338.4 106.3 -327.2C145.9 -315.9 191.9 -327 228.6 -314.7C265.4 -302.4 293 -266.8 319.6 -232.2C346.1 -197.5 371.6 -163.9 385.8 -125.3C399.9 -86.8 402.8 -43.4 405.6 0L0 0Z" fill="#292524"></path><path d="M0 -270.4C22.2 -248 44.4 -225.6 70.9 -218.1C97.3 -210.6 127.9 -218 152.4 -209.8C176.9 -201.6 195.3 -177.9 213 -154.8C230.7 -131.7 247.7 -109.3 257.2 -83.6C266.6 -57.9 268.5 -28.9 270.4 0L0 0Z" fill="#44403c"></path><path d="M0 -135.2C11.1 -124 22.2 -112.8 35.4 -109.1C48.6 -105.3 64 -109 76.2 -104.9C88.5 -100.8 97.7 -88.9 106.5 -77.4C115.4 -65.8 123.9 -54.6 128.6 -41.8C133.3 -28.9 134.3 -14.5 135.2 0L0 0Z" fill="#57534e"></path></g></svg>