<svg id="visual" viewBox="0 0 900 600" width="900" height="600" xmlns="http://www.w3.org/2000/svg" xmlns:xlink="http://www.w3.org/1999/xlink" version="1.1"><rect x="0" y="0" width="900" height="600" fill="#1e0333"></rect><defs><linearGradient id="grad1_0" x1="33.3%" y1="0%" x2="100%" y2="100%"><stop offset="20%" stop-color="#581c87" stop-opacity="1"></stop><stop offset="80%" stop-color="#581c87" stop-opacity="1"></stop></linearGradient></defs><defs><linearGradient id="grad1_1" x1="33.3%" y1="0%" x2="100%" y2="100%"><stop offset="20%" stop-color="#581c87" stop-opacity="1"></stop><stop offset="80%" stop-color="#252525" stop-opacity="1"></stop></linearGradient></defs><defs><linearGradient id="grad1_2" x1="33.3%" y1="0%" x2="100%" y2="100%"><stop offset="20%" stop-color="#1e0333" stop-opacity="1"></stop><stop offset="80%" stop-color="#252525" stop-opacity="1"></stop></linearGradient></defs><defs><linearGradient id="grad2_0" x1="0%" y1="0%" x2="66.7%" y2="100%"><stop offset="20%" stop-color="#581c87" stop-opacity="1"></stop><stop offset="80%" stop-color="#581c87" stop-opacity="1"></stop></linearGradient></defs><defs><linearGradient id="grad2_1" x1="0%" y1="0%" x2="66.7%" y2="100%"><stop offset="20%" stop-color="#252525" stop-opacity="1"></stop><stop offset="80%" stop-color="#581c87" stop-opacity="1"></stop></linearGradient></defs><defs><linearGradient id="grad2_2" x1="0%" y1="0%" x2="66.7%" y2="100%"><stop offset="20%" stop-color="#252525" stop-opacity="1"></stop><stop offset="80%" stop-color="#1e0333" stop-opacity="1"></stop></linearGradient></defs><g transform="translate(900, 0)"><path d="M0 405.6C-47.9 409.3 -95.7 413 -125.3 385.8C-155 358.5 -166.4 300.3 -196.3 270.2C-226.3 240.2 -274.8 238.3 -294.5 214C-314.1 189.6 -304.9 142.9 -318.6 103.5C-332.3 64.1 -369 32.1 -405.6 0L0 0Z" fill="#2a044e"></path><path d="M0 270.4C-31.9 272.9 -63.8 275.4 -83.6 257.2C-103.3 239 -110.9 200.2 -130.9 180.1C-150.9 160.1 -183.2 158.8 -196.3 142.6C-209.4 126.4 -203.3 95.3 -212.4 69C-221.5 42.7 -246 21.4 -270.4 0L0 0Z" fill="#3b0764"></path><path d="M0 135.2C-16 136.4 -31.9 137.7 -41.8 128.6C-51.7 119.5 -55.5 100.1 -65.4 90.1C-75.4 80.1 -91.6 79.4 -98.2 71.3C-104.7 63.2 -101.6 47.6 -106.2 34.5C-110.8 21.4 -123 10.7 -135.2 0L0 0Z" fill="#581c87"></path></g><g transform="translate(0, 600)"><path d="M0 -405.6C35.2 -382.6 70.4 -359.5 114.3 -351.9C158.3 -344.3 211.1 -352.1 238.4 -328.2C265.7 -304.2 267.5 -248.5 291.2 -211.6C315 -174.7 360.6 -156.7 383.3 -124.5C406 -92.4 405.8 -46.2 405.6 0L0 0Z" fill="#2a044e"></path><path d="M0 -270.4C23.5 -255 46.9 -239.7 76.2 -234.6C105.5 -229.5 140.7 -234.7 158.9 -218.8C177.1 -202.8 178.4 -165.7 194.2 -141.1C210 -116.5 240.4 -104.4 255.5 -83C270.7 -61.6 270.5 -30.8 270.4 0L0 0Z" fill="#3b0764"></path><path d="M0 -135.2C11.7 -127.5 23.5 -119.8 38.1 -117.3C52.8 -114.8 70.4 -117.4 79.5 -109.4C88.6 -101.4 89.2 -82.8 97.1 -70.5C105 -58.2 120.2 -52.2 127.8 -41.5C135.3 -30.8 135.3 -15.4 135.2 0L0 0Z" fill="#581c87"></path></g></svg>