<svg id="visual" viewBox="0 0 900 600" width="900" height="600" xmlns="http://www.w3.org/2000/svg" xmlns:xlink="http://www.w3.org/1999/xlink" version="1.1"><rect x="0" y="0" width="900" height="600" fill="#faf5ff"></rect><defs><linearGradient id="grad1_0" x1="33.3%" y1="0%" x2="100%" y2="100%"><stop offset="20%" stop-color="#d8b4fe" stop-opacity="1"></stop><stop offset="80%" stop-color="#d8b4fe" stop-opacity="1"></stop></linearGradient></defs><defs><linearGradient id="grad1_1" x1="33.3%" y1="0%" x2="100%" y2="100%"><stop offset="20%" stop-color="#d8b4fe" stop-opacity="1"></stop><stop offset="80%" stop-color="#252525" stop-opacity="1"></stop></linearGradient></defs><defs><linearGradient id="grad1_2" x1="33.3%" y1="0%" x2="100%" y2="100%"><stop offset="20%" stop-color="#faf5ff" stop-opacity="1"></stop><stop offset="80%" stop-color="#252525" stop-opacity="1"></stop></linearGradient></defs><defs><linearGradient id="grad2_0" x1="0%" y1="0%" x2="66.7%" y2="100%"><stop offset="20%" stop-color="#d8b4fe" stop-opacity="1"></stop><stop offset="80%" stop-color="#d8b4fe" stop-opacity="1"></stop></linearGradient></defs><defs><linearGradient id="grad2_1" x1="0%" y1="0%" x2="66.7%" y2="100%"><stop offset="20%" stop-color="#252525" stop-opacity="1"></stop><stop offset="80%" stop-color="#d8b4fe" stop-opacity="1"></stop></linearGradient></defs><defs><linearGradient id="grad2_2" x1="0%" y1="0%" x2="66.7%" y2="100%"><stop offset="20%" stop-color="#252525" stop-opacity="1"></stop><stop offset="80%" stop-color="#faf5ff" stop-opacity="1"></stop></linearGradient></defs><g transform="translate(900, 0)"><path d="M0 405.6C-31.4 370.3 -62.8 335 -106.9 329.1C-151.1 323.1 -208 346.4 -238.4 328.2C-268.8 309.9 -272.8 249.9 -287.2 208.7C-301.6 167.4 -326.6 144.8 -348.1 113.1C-369.6 81.4 -387.6 40.7 -405.6 0L0 0Z" fill="#f3e8ff"></path><path d="M0 270.4C-20.9 246.9 -41.8 223.4 -71.3 219.4C-100.7 215.4 -138.7 231 -158.9 218.8C-179.2 206.6 -181.8 166.6 -191.5 139.1C-201.1 111.6 -217.7 96.5 -232.1 75.4C-246.4 54.3 -258.4 27.1 -270.4 0L0 0Z" fill="#e9d5ff"></path><path d="M0 135.2C-10.5 123.4 -20.9 111.7 -35.6 109.7C-50.4 107.7 -69.3 115.5 -79.5 109.4C-89.6 103.3 -90.9 83.3 -95.7 69.6C-100.5 55.8 -108.9 48.3 -116 37.7C-123.2 27.1 -129.2 13.6 -135.2 0L0 0Z" fill="#d8b4fe"></path></g><g transform="translate(0, 600)"><path d="M0 -405.6C35 -374.3 70.1 -343 106.6 -328.1C143.1 -313.2 181.2 -314.7 221 -304.2C260.8 -293.7 302.5 -271.1 328.2 -238.4C353.8 -205.7 363.5 -162.9 373.8 -121.4C384 -80 394.8 -40 405.6 0L0 0Z" fill="#f3e8ff"></path><path d="M0 -270.4C23.4 -249.5 46.7 -228.7 71.1 -218.7C95.4 -208.8 120.8 -209.8 147.3 -202.8C173.9 -195.8 201.7 -180.7 218.8 -158.9C235.9 -137.1 242.3 -108.6 249.2 -81C256 -53.3 263.2 -26.7 270.4 0L0 0Z" fill="#e9d5ff"></path><path d="M0 -135.2C11.7 -124.8 23.4 -114.3 35.5 -109.4C47.7 -104.4 60.4 -104.9 73.7 -101.4C86.9 -97.9 100.8 -90.4 109.4 -79.5C117.9 -68.6 121.2 -54.3 124.6 -40.5C128 -26.7 131.6 -13.3 135.2 0L0 0Z" fill="#d8b4fe"></path></g></svg>