<svg id="visual" viewBox="0 0 900 600" width="900" height="600" xmlns="http://www.w3.org/2000/svg" xmlns:xlink="http://www.w3.org/1999/xlink" version="1.1"><rect x="0" y="0" width="900" height="600" fill="#d8b4fe"></rect><defs><linearGradient id="grad1_0" x1="33.3%" y1="0%" x2="100%" y2="100%"><stop offset="20%" stop-color="#9333ea" stop-opacity="1"></stop><stop offset="80%" stop-color="#9333ea" stop-opacity="1"></stop></linearGradient></defs><defs><linearGradient id="grad1_1" x1="33.3%" y1="0%" x2="100%" y2="100%"><stop offset="20%" stop-color="#9333ea" stop-opacity="1"></stop><stop offset="80%" stop-color="#252525" stop-opacity="1"></stop></linearGradient></defs><defs><linearGradient id="grad1_2" x1="33.3%" y1="0%" x2="100%" y2="100%"><stop offset="20%" stop-color="#d8b4fe" stop-opacity="1"></stop><stop offset="80%" stop-color="#252525" stop-opacity="1"></stop></linearGradient></defs><defs><linearGradient id="grad2_0" x1="0%" y1="0%" x2="66.7%" y2="100%"><stop offset="20%" stop-color="#9333ea" stop-opacity="1"></stop><stop offset="80%" stop-color="#9333ea" stop-opacity="1"></stop></linearGradient></defs><defs><linearGradient id="grad2_1" x1="0%" y1="0%" x2="66.7%" y2="100%"><stop offset="20%" stop-color="#252525" stop-opacity="1"></stop><stop offset="80%" stop-color="#9333ea" stop-opacity="1"></stop></linearGradient></defs><defs><linearGradient id="grad2_2" x1="0%" y1="0%" x2="66.7%" y2="100%"><stop offset="20%" stop-color="#252525" stop-opacity="1"></stop><stop offset="80%" stop-color="#d8b4fe" stop-opacity="1"></stop></linearGradient></defs><g transform="translate(900, 0)"><path d="M0 405.6C-31.1 369.3 -62.2 333 -106.3 327.2C-150.4 321.3 -207.3 345.8 -238.4 328.2C-269.5 310.5 -274.7 250.7 -287.2 208.7C-299.7 166.6 -319.5 142.4 -340.5 110.6C-361.4 78.8 -383.5 39.4 -405.6 0L0 0Z" fill="#c084fc"></path><path d="M0 270.4C-20.7 246.2 -41.5 222 -70.9 218.1C-100.2 214.2 -138.2 230.5 -158.9 218.8C-179.7 207 -183.1 167.1 -191.5 139.1C-199.8 111.1 -213 95 -227 73.8C-241 52.5 -255.7 26.3 -270.4 0L0 0Z" fill="#a855f7"></path><path d="M0 135.2C-10.4 123.1 -20.7 111 -35.4 109.1C-50.1 107.1 -69.1 115.3 -79.5 109.4C-89.8 103.5 -91.6 83.6 -95.7 69.6C-99.9 55.5 -106.5 47.5 -113.5 36.9C-120.5 26.3 -127.8 13.1 -135.2 0L0 0Z" fill="#9333ea"></path></g><g transform="translate(0, 600)"><path d="M0 -405.6C46.6 -408.3 93.2 -410.9 125.3 -385.8C157.5 -360.6 175.2 -307.6 197.5 -271.8C219.8 -236.1 246.8 -217.5 264.5 -192.2C282.3 -166.9 290.9 -134.8 312.9 -101.7C334.9 -68.5 370.3 -34.3 405.6 0L0 0Z" fill="#c084fc"></path><path d="M0 -270.4C31.1 -272.2 62.1 -274 83.6 -257.2C105 -240.4 116.8 -205.1 131.7 -181.2C146.5 -157.4 164.5 -145 176.4 -128.1C188.2 -111.3 193.9 -89.9 208.6 -67.8C223.3 -45.7 246.8 -22.8 270.4 0L0 0Z" fill="#a855f7"></path><path d="M0 -135.2C15.5 -136.1 31.1 -137 41.8 -128.6C52.5 -120.2 58.4 -102.5 65.8 -90.6C73.3 -78.7 82.3 -72.5 88.2 -64.1C94.1 -55.6 97 -44.9 104.3 -33.9C111.6 -22.8 123.4 -11.4 135.2 0L0 0Z" fill="#9333ea"></path></g></svg>