<svg id="visual" viewBox="0 0 900 600" width="900" height="600" xmlns="http://www.w3.org/2000/svg" xmlns:xlink="http://www.w3.org/1999/xlink" version="1.1"><rect width="900" height="600" fill="#f0abfc"></rect><g><g transform="translate(217 561)"><path d="M0 -100.4L86.9 -50.2L86.9 50.2L0 100.4L-86.9 50.2L-86.9 -50.2Z" fill="none" stroke="#fae8ff" stroke-width="2"></path></g><g transform="translate(505 42)"><path d="M0 -73L63.2 -36.5L63.2 36.5L0 73L-63.2 36.5L-63.2 -36.5Z" fill="none" stroke="#fae8ff" stroke-width="2"></path></g><g transform="translate(327 165)"><path d="M0 -91L78.8 -45.5L78.8 45.5L0 91L-78.8 45.5L-78.8 -45.5Z" fill="none" stroke="#fae8ff" stroke-width="2"></path></g><g transform="translate(1 57)"><path d="M0 -44L38.1 -22L38.1 22L0 44L-38.1 22L-38.1 -22Z" fill="none" stroke="#fae8ff" stroke-width="2"></path></g><g transform="translate(766 481)"><path d="M0 -99L85.7 -49.5L85.7 49.5L0 99L-85.7 49.5L-85.7 -49.5Z" fill="none" stroke="#fae8ff" stroke-width="2"></path></g><g transform="translate(495 289)"><path d="M0 -73L63.2 -36.5L63.2 36.5L0 73L-63.2 36.5L-63.2 -36.5Z" stroke="#fae8ff" fill="none" stroke-width="2"></path></g><g transform="translate(142 256)"><path d="M0 -70L60.6 -35L60.6 35L0 70L-60.6 35L-60.6 -35Z" stroke="#fae8ff" fill="none" stroke-width="2"></path></g><g transform="translate(726 48)"><path d="M0 -46L39.8 -23L39.8 23L0 46L-39.8 23L-39.8 -23Z" stroke="#fae8ff" fill="none" stroke-width="2"></path></g><g transform="translate(464 511)"><path d="M0 -67L58 -33.5L58 33.5L0 67L-58 33.5L-58 -33.5Z" stroke="#fae8ff" fill="none" stroke-width="2"></path></g><g transform="translate(895 263)"><path d="M0 -97L84 -48.5L84 48.5L0 97L-84 48.5L-84 -48.5Z" stroke="#fae8ff" fill="none" stroke-width="2"></path></g></g></svg>