<svg id="visual" viewBox="0 0 900 600" width="900" height="600" xmlns="http://www.w3.org/2000/svg" xmlns:xlink="http://www.w3.org/1999/xlink" version="1.1"><rect width="900" height="600" fill="#9d174d"></rect><g><g transform="translate(786 23)"><path d="M0 -100.4L86.9 -50.2L86.9 50.2L0 100.4L-86.9 50.2L-86.9 -50.2Z" fill="none" stroke="#831843" stroke-width="2"></path></g><g transform="translate(218 554)"><path d="M0 -32L27.7 -16L27.7 16L0 32L-27.7 16L-27.7 -16Z" fill="none" stroke="#831843" stroke-width="2"></path></g><g transform="translate(682 550)"><path d="M0 -38L32.9 -19L32.9 19L0 38L-32.9 19L-32.9 -19Z" fill="none" stroke="#831843" stroke-width="2"></path></g><g transform="translate(671 244)"><path d="M0 -52L45 -26L45 26L0 52L-45 26L-45 -26Z" fill="none" stroke="#831843" stroke-width="2"></path></g><g transform="translate(217 35)"><path d="M0 -43L37.2 -21.5L37.2 21.5L0 43L-37.2 21.5L-37.2 -21.5Z" fill="none" stroke="#831843" stroke-width="2"></path></g><g transform="translate(83 355)"><path d="M0 -32L27.7 -16L27.7 16L0 32L-27.7 16L-27.7 -16Z" stroke="#831843" fill="none" stroke-width="2"></path></g><g transform="translate(392 382)"><path d="M0 -48L41.6 -24L41.6 24L0 48L-41.6 24L-41.6 -24Z" stroke="#831843" fill="none" stroke-width="2"></path></g><g transform="translate(475 123)"><path d="M0 -52L45 -26L45 26L0 52L-45 26L-45 -26Z" stroke="#831843" fill="none" stroke-width="2"></path></g><g transform="translate(5 61)"><path d="M0 -49L42.4 -24.5L42.4 24.5L0 49L-42.4 24.5L-42.4 -24.5Z" stroke="#831843" fill="none" stroke-width="2"></path></g><g transform="translate(879 596)"><path d="M0 -92L79.7 -46L79.7 46L0 92L-79.7 46L-79.7 -46Z" stroke="#831843" fill="none" stroke-width="2"></path></g></g></svg>