<svg id="visual" viewBox="0 0 900 600" width="900" height="600" xmlns="http://www.w3.org/2000/svg" xmlns:xlink="http://www.w3.org/1999/xlink" version="1.1"><rect width="900" height="600" fill="#a3a3a3"></rect><g><g transform="translate(28 543)"><path d="M0 -100.4L86.9 -50.2L86.9 50.2L0 100.4L-86.9 50.2L-86.9 -50.2Z" fill="none" stroke="#d4d4d4" stroke-width="2"></path></g><g transform="translate(294 300)"><path d="M0 -39L33.8 -19.5L33.8 19.5L0 39L-33.8 19.5L-33.8 -19.5Z" fill="none" stroke="#d4d4d4" stroke-width="2"></path></g><g transform="translate(601 364)"><path d="M0 -47L40.7 -23.5L40.7 23.5L0 47L-40.7 23.5L-40.7 -23.5Z" fill="none" stroke="#d4d4d4" stroke-width="2"></path></g><g transform="translate(97 56)"><path d="M0 -76L65.8 -38L65.8 38L0 76L-65.8 38L-65.8 -38Z" fill="none" stroke="#d4d4d4" stroke-width="2"></path></g><g transform="translate(274 543)"><path d="M0 -65L56.3 -32.5L56.3 32.5L0 65L-56.3 32.5L-56.3 -32.5Z" fill="none" stroke="#d4d4d4" stroke-width="2"></path></g><g transform="translate(715 535)"><path d="M0 -62L53.7 -31L53.7 31L0 62L-53.7 31L-53.7 -31Z" stroke="#d4d4d4" fill="none" stroke-width="2"></path></g><g transform="translate(315 19)"><path d="M0 -37L32 -18.5L32 18.5L0 37L-32 18.5L-32 -18.5Z" stroke="#d4d4d4" fill="none" stroke-width="2"></path></g><g transform="translate(785 145)"><path d="M0 -35L30.3 -17.5L30.3 17.5L0 35L-30.3 17.5L-30.3 -17.5Z" stroke="#d4d4d4" fill="none" stroke-width="2"></path></g><g transform="translate(470 184)"><path d="M0 -91L78.8 -45.5L78.8 45.5L0 91L-78.8 45.5L-78.8 -45.5Z" stroke="#d4d4d4" fill="none" stroke-width="2"></path></g><g transform="translate(592 8)"><path d="M0 -43L37.2 -21.5L37.2 21.5L0 43L-37.2 21.5L-37.2 -21.5Z" stroke="#d4d4d4" fill="none" stroke-width="2"></path></g></g></svg>