<svg id="visual" viewBox="0 0 900 600" width="900" height="600" xmlns="http://www.w3.org/2000/svg" xmlns:xlink="http://www.w3.org/1999/xlink" version="1.1"><rect width="900" height="600" fill="#fef9c3"></rect><g><g transform="translate(657 248)"><path d="M0 -100.4L86.9 -50.2L86.9 50.2L0 100.4L-86.9 50.2L-86.9 -50.2Z" fill="none" stroke="#fde047" stroke-width="2"></path></g><g transform="translate(420 317)"><path d="M0 -30L26 -15L26 15L0 30L-26 15L-26 -15Z" fill="none" stroke="#fde047" stroke-width="2"></path></g><g transform="translate(383 555)"><path d="M0 -95L82.3 -47.5L82.3 47.5L0 95L-82.3 47.5L-82.3 -47.5Z" fill="none" stroke="#fde047" stroke-width="2"></path></g><g transform="translate(139 472)"><path d="M0 -69L59.8 -34.5L59.8 34.5L0 69L-59.8 34.5L-59.8 -34.5Z" fill="none" stroke="#fde047" stroke-width="2"></path></g><g transform="translate(856 48)"><path d="M0 -65L56.3 -32.5L56.3 32.5L0 65L-56.3 32.5L-56.3 -32.5Z" fill="none" stroke="#fde047" stroke-width="2"></path></g><g transform="translate(150 60)"><path d="M0 -75L65 -37.5L65 37.5L0 75L-65 37.5L-65 -37.5Z" stroke="#fde047" fill="none" stroke-width="2"></path></g><g transform="translate(771 538)"><path d="M0 -71L61.5 -35.5L61.5 35.5L0 71L-61.5 35.5L-61.5 -35.5Z" stroke="#fde047" fill="none" stroke-width="2"></path></g><g transform="translate(496 118)"><path d="M0 -85L73.6 -42.5L73.6 42.5L0 85L-73.6 42.5L-73.6 -42.5Z" stroke="#fde047" fill="none" stroke-width="2"></path></g><g transform="translate(887 373)"><path d="M0 -64L55.4 -32L55.4 32L0 64L-55.4 32L-55.4 -32Z" stroke="#fde047" fill="none" stroke-width="2"></path></g><g transform="translate(33 294)"><path d="M0 -59L51.1 -29.5L51.1 29.5L0 59L-51.1 29.5L-51.1 -29.5Z" stroke="#fde047" fill="none" stroke-width="2"></path></g></g></svg>