<svg id="visual" viewBox="0 0 900 600" width="900" height="600" xmlns="http://www.w3.org/2000/svg" xmlns:xlink="http://www.w3.org/1999/xlink" version="1.1"><rect width="900" height="600" fill="#1e40af"></rect><g><g transform="translate(172 599)"><path d="M0 -100.4L86.9 -50.2L86.9 50.2L0 100.4L-86.9 50.2L-86.9 -50.2Z" fill="none" stroke="#172554" stroke-width="2"></path></g><g transform="translate(757 488)"><path d="M0 -77L66.7 -38.5L66.7 38.5L0 77L-66.7 38.5L-66.7 -38.5Z" fill="none" stroke="#172554" stroke-width="2"></path></g><g transform="translate(354 462)"><path d="M0 -36L31.2 -18L31.2 18L0 36L-31.2 18L-31.2 -18Z" fill="none" stroke="#172554" stroke-width="2"></path></g><g transform="translate(548 223)"><path d="M0 -33L28.6 -16.5L28.6 16.5L0 33L-28.6 16.5L-28.6 -16.5Z" fill="none" stroke="#172554" stroke-width="2"></path></g><g transform="translate(754 137)"><path d="M0 -93L80.5 -46.5L80.5 46.5L0 93L-80.5 46.5L-80.5 -46.5Z" fill="none" stroke="#172554" stroke-width="2"></path></g><g transform="translate(249 76)"><path d="M0 -76L65.8 -38L65.8 38L0 76L-65.8 38L-65.8 -38Z" stroke="#172554" fill="none" stroke-width="2"></path></g><g transform="translate(36 335)"><path d="M0 -53L45.9 -26.5L45.9 26.5L0 53L-45.9 26.5L-45.9 -26.5Z" stroke="#172554" fill="none" stroke-width="2"></path></g><g transform="translate(485 13)"><path d="M0 -46L39.8 -23L39.8 23L0 46L-39.8 23L-39.8 -23Z" stroke="#172554" fill="none" stroke-width="2"></path></g><g transform="translate(42 115)"><path d="M0 -50L43.3 -25L43.3 25L0 50L-43.3 25L-43.3 -25Z" stroke="#172554" fill="none" stroke-width="2"></path></g><g transform="translate(566 585)"><path d="M0 -51L44.2 -25.5L44.2 25.5L0 51L-44.2 25.5L-44.2 -25.5Z" stroke="#172554" fill="none" stroke-width="2"></path></g></g></svg>