<svg id="visual" viewBox="0 0 900 600" width="900" height="600" xmlns="http://www.w3.org/2000/svg" xmlns:xlink="http://www.w3.org/1999/xlink" version="1.1"><rect width="900" height="600" fill="#050505"></rect><g><g transform="translate(404 415)"><path d="M0 -100.4L86.9 -50.2L86.9 50.2L0 100.4L-86.9 50.2L-86.9 -50.2Z" fill="none" stroke="#09090b" stroke-width="2"></path></g><g transform="translate(245 238)"><path d="M0 -73L63.2 -36.5L63.2 36.5L0 73L-63.2 36.5L-63.2 -36.5Z" fill="none" stroke="#09090b" stroke-width="2"></path></g><g transform="translate(9 466)"><path d="M0 -40L34.6 -20L34.6 20L0 40L-34.6 20L-34.6 -20Z" fill="none" stroke="#09090b" stroke-width="2"></path></g><g transform="translate(856 354)"><path d="M0 -69L59.8 -34.5L59.8 34.5L0 69L-59.8 34.5L-59.8 -34.5Z" fill="none" stroke="#09090b" stroke-width="2"></path></g><g transform="translate(841 21)"><path d="M0 -60L52 -30L52 30L0 60L-52 30L-52 -30Z" fill="none" stroke="#09090b" stroke-width="2"></path></g><g transform="translate(641 474)"><path d="M0 -54L46.8 -27L46.8 27L0 54L-46.8 27L-46.8 -27Z" stroke="#09090b" fill="none" stroke-width="2"></path></g><g transform="translate(29 77)"><path d="M0 -74L64.1 -37L64.1 37L0 74L-64.1 37L-64.1 -37Z" stroke="#09090b" fill="none" stroke-width="2"></path></g><g transform="translate(446 212)"><path d="M0 -73L63.2 -36.5L63.2 36.5L0 73L-63.2 36.5L-63.2 -36.5Z" stroke="#09090b" fill="none" stroke-width="2"></path></g><g transform="translate(244 547)"><path d="M0 -77L66.7 -38.5L66.7 38.5L0 77L-66.7 38.5L-66.7 -38.5Z" stroke="#09090b" fill="none" stroke-width="2"></path></g><g transform="translate(555 5)"><path d="M0 -51L44.2 -25.5L44.2 25.5L0 51L-44.2 25.5L-44.2 -25.5Z" stroke="#09090b" fill="none" stroke-width="2"></path></g></g></svg>