<svg id="visual" viewBox="0 0 900 600" width="900" height="600" xmlns="http://www.w3.org/2000/svg" xmlns:xlink="http://www.w3.org/1999/xlink" version="1.1"><rect width="900" height="600" fill="#404040"></rect><g><g transform="translate(71 176)"><path d="M0 -100.4L86.9 -50.2L86.9 50.2L0 100.4L-86.9 50.2L-86.9 -50.2Z" fill="none" stroke="#171717" stroke-width="2"></path></g><g transform="translate(458 537)"><path d="M0 -28L24.2 -14L24.2 14L0 28L-24.2 14L-24.2 -14Z" fill="none" stroke="#171717" stroke-width="2"></path></g><g transform="translate(857 224)"><path d="M0 -48L41.6 -24L41.6 24L0 48L-41.6 24L-41.6 -24Z" fill="none" stroke="#171717" stroke-width="2"></path></g><g transform="translate(694 541)"><path d="M0 -44L38.1 -22L38.1 22L0 44L-38.1 22L-38.1 -22Z" fill="none" stroke="#171717" stroke-width="2"></path></g><g transform="translate(419 39)"><path d="M0 -50L43.3 -25L43.3 25L0 50L-43.3 25L-43.3 -25Z" fill="none" stroke="#171717" stroke-width="2"></path></g><g transform="translate(515 246)"><path d="M0 -47L40.7 -23.5L40.7 23.5L0 47L-40.7 23.5L-40.7 -23.5Z" stroke="#171717" fill="none" stroke-width="2"></path></g><g transform="translate(152 549)"><path d="M0 -41L35.5 -20.5L35.5 20.5L0 41L-35.5 20.5L-35.5 -20.5Z" stroke="#171717" fill="none" stroke-width="2"></path></g><g transform="translate(284 274)"><path d="M0 -35L30.3 -17.5L30.3 17.5L0 35L-30.3 17.5L-30.3 -17.5Z" stroke="#171717" fill="none" stroke-width="2"></path></g><g transform="translate(673 81)"><path d="M0 -60L52 -30L52 30L0 60L-52 30L-52 -30Z" stroke="#171717" fill="none" stroke-width="2"></path></g><g transform="translate(898 589)"><path d="M0 -28L24.2 -14L24.2 14L0 28L-24.2 14L-24.2 -14Z" stroke="#171717" fill="none" stroke-width="2"></path></g></g></svg>