<svg id="visual" viewBox="0 0 900 600" width="900" height="600" xmlns="http://www.w3.org/2000/svg" xmlns:xlink="http://www.w3.org/1999/xlink" version="1.1"><rect width="900" height="600" fill="#404040"></rect><g><g transform="translate(474 440)"><path d="M0 -100.4L86.9 -50.2L86.9 50.2L0 100.4L-86.9 50.2L-86.9 -50.2Z" fill="none" stroke="#737373" stroke-width="2"></path></g><g transform="translate(500 63)"><path d="M0 -63L54.6 -31.5L54.6 31.5L0 63L-54.6 31.5L-54.6 -31.5Z" fill="none" stroke="#737373" stroke-width="2"></path></g><g transform="translate(399 249)"><path d="M0 -70L60.6 -35L60.6 35L0 70L-60.6 35L-60.6 -35Z" fill="none" stroke="#737373" stroke-width="2"></path></g><g transform="translate(109 483)"><path d="M0 -54L46.8 -27L46.8 27L0 54L-46.8 27L-46.8 -27Z" fill="none" stroke="#737373" stroke-width="2"></path></g><g transform="translate(681 345)"><path d="M0 -96L83.1 -48L83.1 48L0 96L-83.1 48L-83.1 -48Z" fill="none" stroke="#737373" stroke-width="2"></path></g><g transform="translate(885 347)"><path d="M0 -85L73.6 -42.5L73.6 42.5L0 85L-73.6 42.5L-73.6 -42.5Z" stroke="#737373" fill="none" stroke-width="2"></path></g><g transform="translate(773 30)"><path d="M0 -37L32 -18.5L32 18.5L0 37L-32 18.5L-32 -18.5Z" stroke="#737373" fill="none" stroke-width="2"></path></g><g transform="translate(662 598)"><path d="M0 -69L59.8 -34.5L59.8 34.5L0 69L-59.8 34.5L-59.8 -34.5Z" stroke="#737373" fill="none" stroke-width="2"></path></g><g transform="translate(115 217)"><path d="M0 -70L60.6 -35L60.6 35L0 70L-60.6 35L-60.6 -35Z" stroke="#737373" fill="none" stroke-width="2"></path></g><g transform="translate(194 31)"><path d="M0 -94L81.4 -47L81.4 47L0 94L-81.4 47L-81.4 -47Z" stroke="#737373" fill="none" stroke-width="2"></path></g></g></svg>