<svg id="visual" viewBox="0 0 900 600" width="900" height="600" xmlns="http://www.w3.org/2000/svg" xmlns:xlink="http://www.w3.org/1999/xlink" version="1.1"><rect width="900" height="600" fill="#a7f3d0"></rect><g><g transform="translate(340 403)"><path d="M0 -100.4L86.9 -50.2L86.9 50.2L0 100.4L-86.9 50.2L-86.9 -50.2Z" fill="#6ee7b7"></path></g><g transform="translate(128 490)"><path d="M0 -62L53.7 -31L53.7 31L0 62L-53.7 31L-53.7 -31Z" fill="#6ee7b7"></path></g><g transform="translate(423 206)"><path d="M0 -78L67.5 -39L67.5 39L0 78L-67.5 39L-67.5 -39Z" fill="#6ee7b7"></path></g><g transform="translate(895 391)"><path d="M0 -83L71.9 -41.5L71.9 41.5L0 83L-71.9 41.5L-71.9 -41.5Z" fill="#6ee7b7"></path></g><g transform="translate(898 37)"><path d="M0 -69L59.8 -34.5L59.8 34.5L0 69L-59.8 34.5L-59.8 -34.5Z" fill="#6ee7b7"></path></g><g transform="translate(135 15)"><path d="M0 -94L81.4 -47L81.4 47L0 94L-81.4 47L-81.4 -47Z" fill="#6ee7b7"></path></g><g transform="translate(772 560)"><path d="M0 -30L26 -15L26 15L0 30L-26 15L-26 -15Z" fill="#6ee7b7"></path></g><g transform="translate(678 258)"><path d="M0 -59L51.1 -29.5L51.1 29.5L0 59L-51.1 29.5L-51.1 -29.5Z" fill="#6ee7b7"></path></g><g transform="translate(550 586)"><path d="M0 -74L64.1 -37L64.1 37L0 74L-64.1 37L-64.1 -37Z" fill="#6ee7b7"></path></g><g transform="translate(24 302)"><path d="M0 -61L52.8 -30.5L52.8 30.5L0 61L-52.8 30.5L-52.8 -30.5Z" fill="#6ee7b7"></path></g></g></svg>