<svg id="visual" viewBox="0 0 900 600" width="900" height="600" xmlns="http://www.w3.org/2000/svg" xmlns:xlink="http://www.w3.org/1999/xlink" version="1.1"><rect width="900" height="600" fill="#a5b4fc"></rect><g><g transform="translate(365 311)"><path d="M0 -100.4L86.9 -50.2L86.9 50.2L0 100.4L-86.9 50.2L-86.9 -50.2Z" fill="#6366f1"></path></g><g transform="translate(16 584)"><path d="M0 -88L76.2 -44L76.2 44L0 88L-76.2 44L-76.2 -44Z" fill="#6366f1"></path></g><g transform="translate(872 106)"><path d="M0 -96L83.1 -48L83.1 48L0 96L-83.1 48L-83.1 -48Z" fill="#6366f1"></path></g><g transform="translate(569 503)"><path d="M0 -32L27.7 -16L27.7 16L0 32L-27.7 16L-27.7 -16Z" fill="#6366f1"></path></g><g transform="translate(209 508)"><path d="M0 -42L36.4 -21L36.4 21L0 42L-36.4 21L-36.4 -21Z" fill="#6366f1"></path></g><g transform="translate(36 39)"><path d="M0 -62L53.7 -31L53.7 31L0 62L-53.7 31L-53.7 -31Z" fill="#6366f1"></path></g><g transform="translate(547 121)"><path d="M0 -81L70.1 -40.5L70.1 40.5L0 81L-70.1 40.5L-70.1 -40.5Z" fill="#6366f1"></path></g><g transform="translate(690 320)"><path d="M0 -77L66.7 -38.5L66.7 38.5L0 77L-66.7 38.5L-66.7 -38.5Z" fill="#6366f1"></path></g><g transform="translate(96 325)"><path d="M0 -77L66.7 -38.5L66.7 38.5L0 77L-66.7 38.5L-66.7 -38.5Z" fill="#6366f1"></path></g><g transform="translate(893 386)"><path d="M0 -60L52 -30L52 30L0 60L-52 30L-52 -30Z" fill="#6366f1"></path></g></g></svg>