<svg id="visual" viewBox="0 0 900 600" width="900" height="600" xmlns="http://www.w3.org/2000/svg" xmlns:xlink="http://www.w3.org/1999/xlink" version="1.1"><g stroke-width="1" stroke-linejoin="bevel"><path d="M468 327L372 301L377 362Z" fill="#a855f7" stroke="#d8b4fe"></path><path d="M372 301L327 329L377 362Z" fill="#a855f7" stroke="#d8b4fe"></path><path d="M468 327L437 222L372 301Z" fill="#a855f7" stroke="#d8b4fe"></path><path d="M372 301L276 195L327 329Z" fill="#a855f7" stroke="#d8b4fe"></path><path d="M468 327L498 227L437 222Z" fill="#a855f7" stroke="#d8b4fe"></path><path d="M327 329L302 391L377 362Z" fill="#a855f7" stroke="#d8b4fe"></path><path d="M377 362L511 420L468 327Z" fill="#a855f7" stroke="#d8b4fe"></path><path d="M533 465L511 420L417 513Z" fill="#a855f7" stroke="#d8b4fe"></path><path d="M468 327L585 291L498 227Z" fill="#a855f7" stroke="#d8b4fe"></path><path d="M586 390L585 291L468 327Z" fill="#a855f7" stroke="#d8b4fe"></path><path d="M417 513L511 420L377 362Z" fill="#a855f7" stroke="#d8b4fe"></path><path d="M511 420L586 390L468 327Z" fill="#a855f7" stroke="#d8b4fe"></path><path d="M533 465L586 390L511 420Z" fill="#a855f7" stroke="#d8b4fe"></path><path d="M302 391L417 513L377 362Z" fill="#a855f7" stroke="#d8b4fe"></path><path d="M426 126L276 195L437 222Z" fill="#a855f7" stroke="#d8b4fe"></path><path d="M437 222L276 195L372 301Z" fill="#a855f7" stroke="#d8b4fe"></path><path d="M327 329L212 293L302 391Z" fill="#a855f7" stroke="#d8b4fe"></path><path d="M539 70L426 126L498 227Z" fill="#a855f7" stroke="#d8b4fe"></path><path d="M498 227L426 126L437 222Z" fill="#a855f7" stroke="#d8b4fe"></path><path d="M276 195L212 293L327 329Z" fill="#a855f7" stroke="#d8b4fe"></path><path d="M735 279L620 222L585 291Z" fill="#a855f7" stroke="#d8b4fe"></path><path d="M585 291L620 222L498 227Z" fill="#a855f7" stroke="#d8b4fe"></path><path d="M190 434L266 505L302 391Z" fill="#a855f7" stroke="#d8b4fe"></path><path d="M302 391L266 505L417 513Z" fill="#a855f7" stroke="#d8b4fe"></path><path d="M212 293L190 434L302 391Z" fill="#a855f7" stroke="#d8b4fe"></path><path d="M533 465L579 539L586 390Z" fill="#a855f7" stroke="#d8b4fe"></path><path d="M586 390L724 393L585 291Z" fill="#a855f7" stroke="#d8b4fe"></path><path d="M508 600L579 539L533 465Z" fill="#a855f7" stroke="#d8b4fe"></path><path d="M508 600L533 465L417 513Z" fill="#a855f7" stroke="#d8b4fe"></path><path d="M190 434L187 470L266 505Z" fill="#a855f7" stroke="#d8b4fe"></path><path d="M426 126L308 79L276 195Z" fill="#a855f7" stroke="#d8b4fe"></path><path d="M276 195L193 164L212 293Z" fill="#a855f7" stroke="#d8b4fe"></path><path d="M289 600L417 513L266 505Z" fill="#a855f7" stroke="#d8b4fe"></path><path d="M289 600L391 600L417 513Z" fill="#a855f7" stroke="#d8b4fe"></path><path d="M223 127L193 164L276 195Z" fill="#a855f7" stroke="#d8b4fe"></path><path d="M212 293L125 381L190 434Z" fill="#a855f7" stroke="#d8b4fe"></path><path d="M190 434L125 381L187 470Z" fill="#a855f7" stroke="#d8b4fe"></path><path d="M308 79L223 127L276 195Z" fill="#a855f7" stroke="#d8b4fe"></path><path d="M620 222L539 70L498 227Z" fill="#a855f7" stroke="#d8b4fe"></path><path d="M426 126L364 0L308 79Z" fill="#a855f7" stroke="#d8b4fe"></path><path d="M391 600L508 600L417 513Z" fill="#a855f7" stroke="#d8b4fe"></path><path d="M110 287L125 381L212 293Z" fill="#a855f7" stroke="#d8b4fe"></path><path d="M192 600L289 600L266 505Z" fill="#a855f7" stroke="#d8b4fe"></path><path d="M90 227L110 287L212 293Z" fill="#a855f7" stroke="#d8b4fe"></path><path d="M716 490L724 393L586 390Z" fill="#a855f7" stroke="#d8b4fe"></path><path d="M620 222L627 80L539 70Z" fill="#a855f7" stroke="#d8b4fe"></path><path d="M724 393L735 279L585 291Z" fill="#a855f7" stroke="#d8b4fe"></path><path d="M737 185L673 132L620 222Z" fill="#a855f7" stroke="#d8b4fe"></path><path d="M673 132L627 80L620 222Z" fill="#a855f7" stroke="#d8b4fe"></path><path d="M508 600L602 600L579 539Z" fill="#a855f7" stroke="#d8b4fe"></path><path d="M579 539L716 490L586 390Z" fill="#a855f7" stroke="#d8b4fe"></path><path d="M527 0L364 0L426 126Z" fill="#a855f7" stroke="#d8b4fe"></path><path d="M308 79L203 0L223 127Z" fill="#a855f7" stroke="#d8b4fe"></path><path d="M527 0L426 126L539 70Z" fill="#a855f7" stroke="#d8b4fe"></path><path d="M364 0L325 0L308 79Z" fill="#a855f7" stroke="#d8b4fe"></path><path d="M135 120L90 227L193 164Z" fill="#a855f7" stroke="#d8b4fe"></path><path d="M602 600L716 490L579 539Z" fill="#a855f7" stroke="#d8b4fe"></path><path d="M724 393L785 333L735 279Z" fill="#a855f7" stroke="#d8b4fe"></path><path d="M135 120L193 164L223 127Z" fill="#a855f7" stroke="#d8b4fe"></path><path d="M193 164L90 227L212 293Z" fill="#a855f7" stroke="#d8b4fe"></path><path d="M0 418L62 518L125 381Z" fill="#a855f7" stroke="#d8b4fe"></path><path d="M601 0L527 0L539 70Z" fill="#a855f7" stroke="#d8b4fe"></path><path d="M203 0L135 120L223 127Z" fill="#a855f7" stroke="#d8b4fe"></path><path d="M712 0L601 0L627 80Z" fill="#a855f7" stroke="#d8b4fe"></path><path d="M735 279L737 185L620 222Z" fill="#a855f7" stroke="#d8b4fe"></path><path d="M187 470L192 600L266 505Z" fill="#a855f7" stroke="#d8b4fe"></path><path d="M62 518L192 600L187 470Z" fill="#a855f7" stroke="#d8b4fe"></path><path d="M828 407L785 333L724 393Z" fill="#a855f7" stroke="#d8b4fe"></path><path d="M735 279L777 222L737 185Z" fill="#a855f7" stroke="#d8b4fe"></path><path d="M785 333L777 222L735 279Z" fill="#a855f7" stroke="#d8b4fe"></path><path d="M712 0L627 80L673 132Z" fill="#a855f7" stroke="#d8b4fe"></path><path d="M712 0L673 132L822 97Z" fill="#a855f7" stroke="#d8b4fe"></path><path d="M627 80L601 0L539 70Z" fill="#a855f7" stroke="#d8b4fe"></path><path d="M325 0L203 0L308 79Z" fill="#a855f7" stroke="#d8b4fe"></path><path d="M0 276L125 381L110 287Z" fill="#a855f7" stroke="#d8b4fe"></path><path d="M125 381L62 518L187 470Z" fill="#a855f7" stroke="#d8b4fe"></path><path d="M602 600L724 600L716 490Z" fill="#a855f7" stroke="#d8b4fe"></path><path d="M716 490L828 407L724 393Z" fill="#a855f7" stroke="#d8b4fe"></path><path d="M807 519L828 407L716 490Z" fill="#a855f7" stroke="#d8b4fe"></path><path d="M785 333L900 281L777 222Z" fill="#a855f7" stroke="#d8b4fe"></path><path d="M0 171L0 276L90 227Z" fill="#a855f7" stroke="#d8b4fe"></path><path d="M90 227L0 276L110 287Z" fill="#a855f7" stroke="#d8b4fe"></path><path d="M0 171L90 227L135 120Z" fill="#a855f7" stroke="#d8b4fe"></path><path d="M0 276L0 418L125 381Z" fill="#a855f7" stroke="#d8b4fe"></path><path d="M62 518L79 600L192 600Z" fill="#a855f7" stroke="#d8b4fe"></path><path d="M0 539L79 600L62 518Z" fill="#a855f7" stroke="#d8b4fe"></path><path d="M724 600L807 519L716 490Z" fill="#a855f7" stroke="#d8b4fe"></path><path d="M822 97L673 132L737 185Z" fill="#a855f7" stroke="#d8b4fe"></path><path d="M0 75L0 171L135 120Z" fill="#a855f7" stroke="#d8b4fe"></path><path d="M0 418L0 539L62 518Z" fill="#a855f7" stroke="#d8b4fe"></path><path d="M900 188L822 97L777 222Z" fill="#a855f7" stroke="#d8b4fe"></path><path d="M777 222L822 97L737 185Z" fill="#a855f7" stroke="#d8b4fe"></path><path d="M203 0L78 0L135 120Z" fill="#a855f7" stroke="#d8b4fe"></path><path d="M900 391L785 333L828 407Z" fill="#a855f7" stroke="#d8b4fe"></path><path d="M900 391L900 281L785 333Z" fill="#a855f7" stroke="#d8b4fe"></path><path d="M78 0L0 75L135 120Z" fill="#a855f7" stroke="#d8b4fe"></path><path d="M900 498L900 391L828 407Z" fill="#a855f7" stroke="#d8b4fe"></path><path d="M724 600L823 600L807 519Z" fill="#a855f7" stroke="#d8b4fe"></path><path d="M807 519L900 498L828 407Z" fill="#a855f7" stroke="#d8b4fe"></path><path d="M0 539L0 600L79 600Z" fill="#a855f7" stroke="#d8b4fe"></path><path d="M900 281L900 188L777 222Z" fill="#a855f7" stroke="#d8b4fe"></path><path d="M900 600L900 498L807 519Z" fill="#a855f7" stroke="#d8b4fe"></path><path d="M78 0L0 0L0 75Z" fill="#a855f7" stroke="#d8b4fe"></path><path d="M900 75L833 0L822 97Z" fill="#a855f7" stroke="#d8b4fe"></path><path d="M822 97L833 0L712 0Z" fill="#a855f7" stroke="#d8b4fe"></path><path d="M900 188L900 75L822 97Z" fill="#a855f7" stroke="#d8b4fe"></path><path d="M823 600L900 600L807 519Z" fill="#a855f7" stroke="#d8b4fe"></path><path d="M900 75L900 0L833 0Z" fill="#a855f7" stroke="#d8b4fe"></path></g></svg>