<svg id="visual" viewBox="0 0 900 600" width="900" height="600" xmlns="http://www.w3.org/2000/svg" xmlns:xlink="http://www.w3.org/1999/xlink" version="1.1"><g stroke-width="1" stroke-linejoin="bevel"><path d="M467 315L386 398L513 375Z" fill="#9d174d" stroke="#be185d"></path><path d="M386 398L398 465L513 375Z" fill="#9d174d" stroke="#be185d"></path><path d="M467 315L369 280L386 398Z" fill="#9d174d" stroke="#be185d"></path><path d="M369 280L333 307L386 398Z" fill="#9d174d" stroke="#be185d"></path><path d="M386 398L312 524L398 465Z" fill="#9d174d" stroke="#be185d"></path><path d="M398 465L527 494L513 375Z" fill="#9d174d" stroke="#be185d"></path><path d="M634 318L469 228L467 315Z" fill="#9d174d" stroke="#be185d"></path><path d="M467 315L420 218L369 280Z" fill="#9d174d" stroke="#be185d"></path><path d="M469 228L420 218L467 315Z" fill="#9d174d" stroke="#be185d"></path><path d="M276 169L230 295L333 307Z" fill="#9d174d" stroke="#be185d"></path><path d="M230 295L278 361L333 307Z" fill="#9d174d" stroke="#be185d"></path><path d="M333 307L278 361L386 398Z" fill="#9d174d" stroke="#be185d"></path><path d="M512 600L565 515L527 494Z" fill="#9d174d" stroke="#be185d"></path><path d="M527 494L619 439L513 375Z" fill="#9d174d" stroke="#be185d"></path><path d="M513 375L634 318L467 315Z" fill="#9d174d" stroke="#be185d"></path><path d="M565 515L619 439L527 494Z" fill="#9d174d" stroke="#be185d"></path><path d="M619 439L634 318L513 375Z" fill="#9d174d" stroke="#be185d"></path><path d="M278 361L312 524L386 398Z" fill="#9d174d" stroke="#be185d"></path><path d="M398 465L398 600L527 494Z" fill="#9d174d" stroke="#be185d"></path><path d="M312 524L398 600L398 465Z" fill="#9d174d" stroke="#be185d"></path><path d="M398 600L512 600L527 494Z" fill="#9d174d" stroke="#be185d"></path><path d="M729 532L706 432L619 439Z" fill="#9d174d" stroke="#be185d"></path><path d="M276 169L333 307L369 280Z" fill="#9d174d" stroke="#be185d"></path><path d="M278 361L222 488L312 524Z" fill="#9d174d" stroke="#be185d"></path><path d="M706 432L665 293L634 318Z" fill="#9d174d" stroke="#be185d"></path><path d="M634 318L636 161L469 228Z" fill="#9d174d" stroke="#be185d"></path><path d="M191 367L222 488L278 361Z" fill="#9d174d" stroke="#be185d"></path><path d="M312 524L329 600L398 600Z" fill="#9d174d" stroke="#be185d"></path><path d="M229 600L329 600L312 524Z" fill="#9d174d" stroke="#be185d"></path><path d="M230 295L191 367L278 361Z" fill="#9d174d" stroke="#be185d"></path><path d="M533 71L423 120L469 228Z" fill="#9d174d" stroke="#be185d"></path><path d="M469 228L423 120L420 218Z" fill="#9d174d" stroke="#be185d"></path><path d="M320 136L276 169L369 280Z" fill="#9d174d" stroke="#be185d"></path><path d="M512 600L583 600L565 515Z" fill="#9d174d" stroke="#be185d"></path><path d="M619 439L706 432L634 318Z" fill="#9d174d" stroke="#be185d"></path><path d="M729 532L619 439L565 515Z" fill="#9d174d" stroke="#be185d"></path><path d="M320 136L369 280L420 218Z" fill="#9d174d" stroke="#be185d"></path><path d="M230 295L127 337L191 367Z" fill="#9d174d" stroke="#be185d"></path><path d="M423 120L320 136L420 218Z" fill="#9d174d" stroke="#be185d"></path><path d="M781 225L694 232L665 293Z" fill="#9d174d" stroke="#be185d"></path><path d="M665 293L636 161L634 318Z" fill="#9d174d" stroke="#be185d"></path><path d="M694 232L636 161L665 293Z" fill="#9d174d" stroke="#be185d"></path><path d="M238 105L210 214L276 169Z" fill="#9d174d" stroke="#be185d"></path><path d="M276 169L210 214L230 295Z" fill="#9d174d" stroke="#be185d"></path><path d="M222 488L229 600L312 524Z" fill="#9d174d" stroke="#be185d"></path><path d="M104 600L229 600L222 488Z" fill="#9d174d" stroke="#be185d"></path><path d="M636 161L562 86L469 228Z" fill="#9d174d" stroke="#be185d"></path><path d="M277 0L238 105L320 136Z" fill="#9d174d" stroke="#be185d"></path><path d="M562 86L533 71L469 228Z" fill="#9d174d" stroke="#be185d"></path><path d="M686 600L729 532L565 515Z" fill="#9d174d" stroke="#be185d"></path><path d="M706 432L802 397L665 293Z" fill="#9d174d" stroke="#be185d"></path><path d="M127 337L128 410L191 367Z" fill="#9d174d" stroke="#be185d"></path><path d="M191 367L128 410L222 488Z" fill="#9d174d" stroke="#be185d"></path><path d="M210 214L127 337L230 295Z" fill="#9d174d" stroke="#be185d"></path><path d="M583 600L686 600L565 515Z" fill="#9d174d" stroke="#be185d"></path><path d="M377 0L320 136L423 120Z" fill="#9d174d" stroke="#be185d"></path><path d="M320 136L238 105L276 169Z" fill="#9d174d" stroke="#be185d"></path><path d="M210 214L85 227L127 337Z" fill="#9d174d" stroke="#be185d"></path><path d="M0 407L114 473L128 410Z" fill="#9d174d" stroke="#be185d"></path><path d="M128 410L114 473L222 488Z" fill="#9d174d" stroke="#be185d"></path><path d="M805 517L802 397L706 432Z" fill="#9d174d" stroke="#be185d"></path><path d="M694 232L705 128L636 161Z" fill="#9d174d" stroke="#be185d"></path><path d="M636 161L705 128L562 86Z" fill="#9d174d" stroke="#be185d"></path><path d="M599 0L460 0L533 71Z" fill="#9d174d" stroke="#be185d"></path><path d="M781 225L705 128L694 232Z" fill="#9d174d" stroke="#be185d"></path><path d="M831 308L781 225L665 293Z" fill="#9d174d" stroke="#be185d"></path><path d="M599 0L533 71L562 86Z" fill="#9d174d" stroke="#be185d"></path><path d="M533 71L460 0L423 120Z" fill="#9d174d" stroke="#be185d"></path><path d="M818 600L805 517L729 532Z" fill="#9d174d" stroke="#be185d"></path><path d="M729 532L805 517L706 432Z" fill="#9d174d" stroke="#be185d"></path><path d="M460 0L377 0L423 120Z" fill="#9d174d" stroke="#be185d"></path><path d="M900 380L831 308L802 397Z" fill="#9d174d" stroke="#be185d"></path><path d="M802 397L831 308L665 293Z" fill="#9d174d" stroke="#be185d"></path><path d="M110 74L85 227L210 214Z" fill="#9d174d" stroke="#be185d"></path><path d="M127 337L0 407L128 410Z" fill="#9d174d" stroke="#be185d"></path><path d="M677 0L599 0L562 86Z" fill="#9d174d" stroke="#be185d"></path><path d="M0 489L104 600L114 473Z" fill="#9d174d" stroke="#be185d"></path><path d="M114 473L104 600L222 488Z" fill="#9d174d" stroke="#be185d"></path><path d="M377 0L277 0L320 136Z" fill="#9d174d" stroke="#be185d"></path><path d="M238 105L110 74L210 214Z" fill="#9d174d" stroke="#be185d"></path><path d="M686 600L818 600L729 532Z" fill="#9d174d" stroke="#be185d"></path><path d="M900 480L900 380L802 397Z" fill="#9d174d" stroke="#be185d"></path><path d="M781 225L807 132L705 128Z" fill="#9d174d" stroke="#be185d"></path><path d="M705 128L677 0L562 86Z" fill="#9d174d" stroke="#be185d"></path><path d="M900 169L807 132L781 225Z" fill="#9d174d" stroke="#be185d"></path><path d="M770 0L677 0L705 128Z" fill="#9d174d" stroke="#be185d"></path><path d="M0 314L0 407L127 337Z" fill="#9d174d" stroke="#be185d"></path><path d="M900 480L802 397L805 517Z" fill="#9d174d" stroke="#be185d"></path><path d="M831 308L900 280L781 225Z" fill="#9d174d" stroke="#be185d"></path><path d="M0 237L0 314L85 227Z" fill="#9d174d" stroke="#be185d"></path><path d="M85 227L0 314L127 337Z" fill="#9d174d" stroke="#be185d"></path><path d="M184 0L110 74L238 105Z" fill="#9d174d" stroke="#be185d"></path><path d="M277 0L184 0L238 105Z" fill="#9d174d" stroke="#be185d"></path><path d="M0 407L0 489L114 473Z" fill="#9d174d" stroke="#be185d"></path><path d="M900 380L900 280L831 308Z" fill="#9d174d" stroke="#be185d"></path><path d="M900 600L900 480L805 517Z" fill="#9d174d" stroke="#be185d"></path><path d="M0 120L0 237L85 227Z" fill="#9d174d" stroke="#be185d"></path><path d="M900 0L770 0L807 132Z" fill="#9d174d" stroke="#be185d"></path><path d="M807 132L770 0L705 128Z" fill="#9d174d" stroke="#be185d"></path><path d="M900 280L900 169L781 225Z" fill="#9d174d" stroke="#be185d"></path><path d="M0 489L0 600L104 600Z" fill="#9d174d" stroke="#be185d"></path><path d="M818 600L900 600L805 517Z" fill="#9d174d" stroke="#be185d"></path><path d="M184 0L105 0L110 74Z" fill="#9d174d" stroke="#be185d"></path><path d="M110 74L0 120L85 227Z" fill="#9d174d" stroke="#be185d"></path><path d="M0 0L0 120L110 74Z" fill="#9d174d" stroke="#be185d"></path><path d="M900 169L900 125L807 132Z" fill="#9d174d" stroke="#be185d"></path><path d="M105 0L0 0L110 74Z" fill="#9d174d" stroke="#be185d"></path><path d="M900 125L900 0L807 132Z" fill="#9d174d" stroke="#be185d"></path></g></svg>