<svg id="visual" viewBox="0 0 900 600" width="900" height="600" xmlns="http://www.w3.org/2000/svg" xmlns:xlink="http://www.w3.org/1999/xlink" version="1.1"><g stroke-width="1" stroke-linejoin="bevel"><path d="M437 323L505 396L522 339Z" fill="#0369a1" stroke="#0284c7"></path><path d="M437 323L421 432L505 396Z" fill="#0369a1" stroke="#0284c7"></path><path d="M601 377L581 310L522 339Z" fill="#0369a1" stroke="#0284c7"></path><path d="M522 339L479 171L437 323Z" fill="#0369a1" stroke="#0284c7"></path><path d="M421 432L465 483L505 396Z" fill="#0369a1" stroke="#0284c7"></path><path d="M505 396L601 377L522 339Z" fill="#0369a1" stroke="#0284c7"></path><path d="M583 487L601 377L505 396Z" fill="#0369a1" stroke="#0284c7"></path><path d="M326 403L396 468L421 432Z" fill="#0369a1" stroke="#0284c7"></path><path d="M421 432L396 468L465 483Z" fill="#0369a1" stroke="#0284c7"></path><path d="M437 323L326 403L421 432Z" fill="#0369a1" stroke="#0284c7"></path><path d="M465 483L583 487L505 396Z" fill="#0369a1" stroke="#0284c7"></path><path d="M581 310L479 171L522 339Z" fill="#0369a1" stroke="#0284c7"></path><path d="M437 323L272 319L326 403Z" fill="#0369a1" stroke="#0284c7"></path><path d="M479 171L406 168L437 323Z" fill="#0369a1" stroke="#0284c7"></path><path d="M283 197L272 319L437 323Z" fill="#0369a1" stroke="#0284c7"></path><path d="M583 487L694 388L601 377Z" fill="#0369a1" stroke="#0284c7"></path><path d="M601 377L676 260L581 310Z" fill="#0369a1" stroke="#0284c7"></path><path d="M581 310L623 172L479 171Z" fill="#0369a1" stroke="#0284c7"></path><path d="M694 388L676 260L601 377Z" fill="#0369a1" stroke="#0284c7"></path><path d="M676 260L623 172L581 310Z" fill="#0369a1" stroke="#0284c7"></path><path d="M479 171L387 112L406 168Z" fill="#0369a1" stroke="#0284c7"></path><path d="M404 600L497 600L465 483Z" fill="#0369a1" stroke="#0284c7"></path><path d="M465 483L497 600L583 487Z" fill="#0369a1" stroke="#0284c7"></path><path d="M583 487L735 492L694 388Z" fill="#0369a1" stroke="#0284c7"></path><path d="M404 600L465 483L396 468Z" fill="#0369a1" stroke="#0284c7"></path><path d="M623 172L563 124L479 171Z" fill="#0369a1" stroke="#0284c7"></path><path d="M387 112L283 197L406 168Z" fill="#0369a1" stroke="#0284c7"></path><path d="M406 168L283 197L437 323Z" fill="#0369a1" stroke="#0284c7"></path><path d="M283 197L238 270L272 319Z" fill="#0369a1" stroke="#0284c7"></path><path d="M208 503L278 515L326 403Z" fill="#0369a1" stroke="#0284c7"></path><path d="M563 124L523 108L479 171Z" fill="#0369a1" stroke="#0284c7"></path><path d="M189 389L326 403L272 319Z" fill="#0369a1" stroke="#0284c7"></path><path d="M326 403L278 515L396 468Z" fill="#0369a1" stroke="#0284c7"></path><path d="M278 515L404 600L396 468Z" fill="#0369a1" stroke="#0284c7"></path><path d="M523 108L387 112L479 171Z" fill="#0369a1" stroke="#0284c7"></path><path d="M497 600L583 600L583 487Z" fill="#0369a1" stroke="#0284c7"></path><path d="M676 260L708 209L623 172Z" fill="#0369a1" stroke="#0284c7"></path><path d="M623 172L596 0L563 124Z" fill="#0369a1" stroke="#0284c7"></path><path d="M783 204L708 209L676 260Z" fill="#0369a1" stroke="#0284c7"></path><path d="M238 270L189 389L272 319Z" fill="#0369a1" stroke="#0284c7"></path><path d="M698 600L735 492L583 487Z" fill="#0369a1" stroke="#0284c7"></path><path d="M694 388L809 329L676 260Z" fill="#0369a1" stroke="#0284c7"></path><path d="M204 600L304 600L278 515Z" fill="#0369a1" stroke="#0284c7"></path><path d="M278 515L304 600L404 600Z" fill="#0369a1" stroke="#0284c7"></path><path d="M189 389L208 503L326 403Z" fill="#0369a1" stroke="#0284c7"></path><path d="M735 492L780 435L694 388Z" fill="#0369a1" stroke="#0284c7"></path><path d="M398 0L304 75L387 112Z" fill="#0369a1" stroke="#0284c7"></path><path d="M387 112L304 75L283 197Z" fill="#0369a1" stroke="#0284c7"></path><path d="M283 197L197 179L238 270Z" fill="#0369a1" stroke="#0284c7"></path><path d="M238 270L95 282L189 389Z" fill="#0369a1" stroke="#0284c7"></path><path d="M304 75L197 179L283 197Z" fill="#0369a1" stroke="#0284c7"></path><path d="M583 600L698 600L583 487Z" fill="#0369a1" stroke="#0284c7"></path><path d="M735 492L780 510L780 435Z" fill="#0369a1" stroke="#0284c7"></path><path d="M783 204L729 138L708 209Z" fill="#0369a1" stroke="#0284c7"></path><path d="M708 209L729 138L623 172Z" fill="#0369a1" stroke="#0284c7"></path><path d="M596 0L475 0L523 108Z" fill="#0369a1" stroke="#0284c7"></path><path d="M523 108L475 0L387 112Z" fill="#0369a1" stroke="#0284c7"></path><path d="M780 435L809 329L694 388Z" fill="#0369a1" stroke="#0284c7"></path><path d="M698 600L780 510L735 492Z" fill="#0369a1" stroke="#0284c7"></path><path d="M780 435L900 392L809 329Z" fill="#0369a1" stroke="#0284c7"></path><path d="M809 329L783 204L676 260Z" fill="#0369a1" stroke="#0284c7"></path><path d="M596 0L523 108L563 124Z" fill="#0369a1" stroke="#0284c7"></path><path d="M475 0L398 0L387 112Z" fill="#0369a1" stroke="#0284c7"></path><path d="M208 503L204 600L278 515Z" fill="#0369a1" stroke="#0284c7"></path><path d="M82 600L204 600L208 503Z" fill="#0369a1" stroke="#0284c7"></path><path d="M707 0L596 0L623 172Z" fill="#0369a1" stroke="#0284c7"></path><path d="M106 219L95 282L238 270Z" fill="#0369a1" stroke="#0284c7"></path><path d="M189 389L90 415L208 503Z" fill="#0369a1" stroke="#0284c7"></path><path d="M95 282L90 415L189 389Z" fill="#0369a1" stroke="#0284c7"></path><path d="M197 179L106 219L238 270Z" fill="#0369a1" stroke="#0284c7"></path><path d="M80 108L106 219L197 179Z" fill="#0369a1" stroke="#0284c7"></path><path d="M167 89L197 179L304 75Z" fill="#0369a1" stroke="#0284c7"></path><path d="M398 0L306 0L304 75Z" fill="#0369a1" stroke="#0284c7"></path><path d="M196 0L167 89L304 75Z" fill="#0369a1" stroke="#0284c7"></path><path d="M775 0L707 0L729 138Z" fill="#0369a1" stroke="#0284c7"></path><path d="M729 138L707 0L623 172Z" fill="#0369a1" stroke="#0284c7"></path><path d="M0 396L62 461L90 415Z" fill="#0369a1" stroke="#0284c7"></path><path d="M90 415L62 461L208 503Z" fill="#0369a1" stroke="#0284c7"></path><path d="M0 396L90 415L95 282Z" fill="#0369a1" stroke="#0284c7"></path><path d="M900 533L900 392L780 435Z" fill="#0369a1" stroke="#0284c7"></path><path d="M809 329L900 229L783 204Z" fill="#0369a1" stroke="#0284c7"></path><path d="M783 204L815 64L729 138Z" fill="#0369a1" stroke="#0284c7"></path><path d="M900 533L780 435L780 510Z" fill="#0369a1" stroke="#0284c7"></path><path d="M900 392L900 308L809 329Z" fill="#0369a1" stroke="#0284c7"></path><path d="M698 600L828 600L780 510Z" fill="#0369a1" stroke="#0284c7"></path><path d="M900 308L900 229L809 329Z" fill="#0369a1" stroke="#0284c7"></path><path d="M900 229L815 64L783 204Z" fill="#0369a1" stroke="#0284c7"></path><path d="M306 0L196 0L304 75Z" fill="#0369a1" stroke="#0284c7"></path><path d="M167 89L80 108L197 179Z" fill="#0369a1" stroke="#0284c7"></path><path d="M828 600L900 533L780 510Z" fill="#0369a1" stroke="#0284c7"></path><path d="M62 461L82 600L208 503Z" fill="#0369a1" stroke="#0284c7"></path><path d="M815 64L775 0L729 138Z" fill="#0369a1" stroke="#0284c7"></path><path d="M92 0L80 108L167 89Z" fill="#0369a1" stroke="#0284c7"></path><path d="M0 264L0 396L95 282Z" fill="#0369a1" stroke="#0284c7"></path><path d="M0 264L95 282L106 219Z" fill="#0369a1" stroke="#0284c7"></path><path d="M62 461L0 525L82 600Z" fill="#0369a1" stroke="#0284c7"></path><path d="M0 177L0 264L106 219Z" fill="#0369a1" stroke="#0284c7"></path><path d="M828 600L900 600L900 533Z" fill="#0369a1" stroke="#0284c7"></path><path d="M0 396L0 525L62 461Z" fill="#0369a1" stroke="#0284c7"></path><path d="M0 111L0 177L80 108Z" fill="#0369a1" stroke="#0284c7"></path><path d="M80 108L0 177L106 219Z" fill="#0369a1" stroke="#0284c7"></path><path d="M900 229L900 60L815 64Z" fill="#0369a1" stroke="#0284c7"></path><path d="M815 64L900 0L775 0Z" fill="#0369a1" stroke="#0284c7"></path><path d="M196 0L92 0L167 89Z" fill="#0369a1" stroke="#0284c7"></path><path d="M0 525L0 600L82 600Z" fill="#0369a1" stroke="#0284c7"></path><path d="M0 0L0 111L80 108Z" fill="#0369a1" stroke="#0284c7"></path><path d="M900 60L900 0L815 64Z" fill="#0369a1" stroke="#0284c7"></path><path d="M92 0L0 0L80 108Z" fill="#0369a1" stroke="#0284c7"></path></g></svg>