<svg id="visual" viewBox="0 0 900 600" width="900" height="600" xmlns="http://www.w3.org/2000/svg" xmlns:xlink="http://www.w3.org/1999/xlink" version="1.1"><g stroke-width="1" stroke-linejoin="bevel"><path d="M480 301L429 335L534 362Z" fill="#c2410c" stroke="#f97316"></path><path d="M534 362L590 333L480 301Z" fill="#c2410c" stroke="#f97316"></path><path d="M429 335L432 435L534 362Z" fill="#c2410c" stroke="#f97316"></path><path d="M534 362L560 507L561 367Z" fill="#c2410c" stroke="#f97316"></path><path d="M561 367L590 333L534 362Z" fill="#c2410c" stroke="#f97316"></path><path d="M432 435L482 498L534 362Z" fill="#c2410c" stroke="#f97316"></path><path d="M436 465L482 498L432 435Z" fill="#c2410c" stroke="#f97316"></path><path d="M703 367L682 309L590 333Z" fill="#c2410c" stroke="#f97316"></path><path d="M573 213L497 208L480 301Z" fill="#c2410c" stroke="#f97316"></path><path d="M480 301L332 235L429 335Z" fill="#c2410c" stroke="#f97316"></path><path d="M296 293L317 379L429 335Z" fill="#c2410c" stroke="#f97316"></path><path d="M429 335L317 379L432 435Z" fill="#c2410c" stroke="#f97316"></path><path d="M432 435L317 379L436 465Z" fill="#c2410c" stroke="#f97316"></path><path d="M590 333L573 213L480 301Z" fill="#c2410c" stroke="#f97316"></path><path d="M482 498L560 507L534 362Z" fill="#c2410c" stroke="#f97316"></path><path d="M438 162L332 235L480 301Z" fill="#c2410c" stroke="#f97316"></path><path d="M332 235L296 293L429 335Z" fill="#c2410c" stroke="#f97316"></path><path d="M497 208L438 162L480 301Z" fill="#c2410c" stroke="#f97316"></path><path d="M487 122L438 162L497 208Z" fill="#c2410c" stroke="#f97316"></path><path d="M703 367L590 333L561 367Z" fill="#c2410c" stroke="#f97316"></path><path d="M590 333L682 309L573 213Z" fill="#c2410c" stroke="#f97316"></path><path d="M675 515L703 367L561 367Z" fill="#c2410c" stroke="#f97316"></path><path d="M585 134L497 208L573 213Z" fill="#c2410c" stroke="#f97316"></path><path d="M585 134L487 122L497 208Z" fill="#c2410c" stroke="#f97316"></path><path d="M295 130L239 218L332 235Z" fill="#c2410c" stroke="#f97316"></path><path d="M393 600L471 600L482 498Z" fill="#c2410c" stroke="#f97316"></path><path d="M482 498L471 600L560 507Z" fill="#c2410c" stroke="#f97316"></path><path d="M560 507L675 515L561 367Z" fill="#c2410c" stroke="#f97316"></path><path d="M393 600L482 498L436 465Z" fill="#c2410c" stroke="#f97316"></path><path d="M676 184L585 134L573 213Z" fill="#c2410c" stroke="#f97316"></path><path d="M588 600L675 515L560 507Z" fill="#c2410c" stroke="#f97316"></path><path d="M184 414L291 533L317 379Z" fill="#c2410c" stroke="#f97316"></path><path d="M317 379L291 533L436 465Z" fill="#c2410c" stroke="#f97316"></path><path d="M291 533L393 600L436 465Z" fill="#c2410c" stroke="#f97316"></path><path d="M794 239L676 184L682 309Z" fill="#c2410c" stroke="#f97316"></path><path d="M682 309L676 184L573 213Z" fill="#c2410c" stroke="#f97316"></path><path d="M239 218L219 304L296 293Z" fill="#c2410c" stroke="#f97316"></path><path d="M296 293L219 304L317 379Z" fill="#c2410c" stroke="#f97316"></path><path d="M239 218L296 293L332 235Z" fill="#c2410c" stroke="#f97316"></path><path d="M471 600L588 600L560 507Z" fill="#c2410c" stroke="#f97316"></path><path d="M295 130L332 235L438 162Z" fill="#c2410c" stroke="#f97316"></path><path d="M291 533L338 600L393 600Z" fill="#c2410c" stroke="#f97316"></path><path d="M380 62L295 130L438 162Z" fill="#c2410c" stroke="#f97316"></path><path d="M103 371L184 414L219 304Z" fill="#c2410c" stroke="#f97316"></path><path d="M219 304L184 414L317 379Z" fill="#c2410c" stroke="#f97316"></path><path d="M291 533L165 600L338 600Z" fill="#c2410c" stroke="#f97316"></path><path d="M487 122L380 62L438 162Z" fill="#c2410c" stroke="#f97316"></path><path d="M514 0L380 62L487 122Z" fill="#c2410c" stroke="#f97316"></path><path d="M588 600L685 600L675 515Z" fill="#c2410c" stroke="#f97316"></path><path d="M824 427L802 300L703 367Z" fill="#c2410c" stroke="#f97316"></path><path d="M184 414L180 476L291 533Z" fill="#c2410c" stroke="#f97316"></path><path d="M778 492L703 367L675 515Z" fill="#c2410c" stroke="#f97316"></path><path d="M703 367L802 300L682 309Z" fill="#c2410c" stroke="#f97316"></path><path d="M774 600L778 492L675 515Z" fill="#c2410c" stroke="#f97316"></path><path d="M802 300L794 239L682 309Z" fill="#c2410c" stroke="#f97316"></path><path d="M676 184L690 72L585 134Z" fill="#c2410c" stroke="#f97316"></path><path d="M277 0L226 136L295 130Z" fill="#c2410c" stroke="#f97316"></path><path d="M295 130L226 136L239 218Z" fill="#c2410c" stroke="#f97316"></path><path d="M239 218L137 286L219 304Z" fill="#c2410c" stroke="#f97316"></path><path d="M134 212L137 286L239 218Z" fill="#c2410c" stroke="#f97316"></path><path d="M184 414L84 480L180 476Z" fill="#c2410c" stroke="#f97316"></path><path d="M778 492L824 427L703 367Z" fill="#c2410c" stroke="#f97316"></path><path d="M802 300L900 276L794 239Z" fill="#c2410c" stroke="#f97316"></path><path d="M796 64L690 72L676 184Z" fill="#c2410c" stroke="#f97316"></path><path d="M585 134L514 0L487 122Z" fill="#c2410c" stroke="#f97316"></path><path d="M590 0L514 0L585 134Z" fill="#c2410c" stroke="#f97316"></path><path d="M690 72L590 0L585 134Z" fill="#c2410c" stroke="#f97316"></path><path d="M380 62L277 0L295 130Z" fill="#c2410c" stroke="#f97316"></path><path d="M514 0L369 0L380 62Z" fill="#c2410c" stroke="#f97316"></path><path d="M226 136L134 212L239 218Z" fill="#c2410c" stroke="#f97316"></path><path d="M114 137L134 212L226 136Z" fill="#c2410c" stroke="#f97316"></path><path d="M0 397L103 371L0 262Z" fill="#c2410c" stroke="#f97316"></path><path d="M137 286L103 371L219 304Z" fill="#c2410c" stroke="#f97316"></path><path d="M685 600L774 600L675 515Z" fill="#c2410c" stroke="#f97316"></path><path d="M778 492L900 473L824 427Z" fill="#c2410c" stroke="#f97316"></path><path d="M122 600L165 600L180 476Z" fill="#c2410c" stroke="#f97316"></path><path d="M180 476L165 600L291 533Z" fill="#c2410c" stroke="#f97316"></path><path d="M369 0L277 0L380 62Z" fill="#c2410c" stroke="#f97316"></path><path d="M789 0L692 0L690 72Z" fill="#c2410c" stroke="#f97316"></path><path d="M690 72L692 0L590 0Z" fill="#c2410c" stroke="#f97316"></path><path d="M103 371L84 480L184 414Z" fill="#c2410c" stroke="#f97316"></path><path d="M900 473L900 380L824 427Z" fill="#c2410c" stroke="#f97316"></path><path d="M824 427L900 380L802 300Z" fill="#c2410c" stroke="#f97316"></path><path d="M794 239L796 64L676 184Z" fill="#c2410c" stroke="#f97316"></path><path d="M160 0L114 137L226 136Z" fill="#c2410c" stroke="#f97316"></path><path d="M0 262L103 371L137 286Z" fill="#c2410c" stroke="#f97316"></path><path d="M103 371L0 397L84 480Z" fill="#c2410c" stroke="#f97316"></path><path d="M900 380L900 276L802 300Z" fill="#c2410c" stroke="#f97316"></path><path d="M900 133L796 64L794 239Z" fill="#c2410c" stroke="#f97316"></path><path d="M84 480L122 600L180 476Z" fill="#c2410c" stroke="#f97316"></path><path d="M900 600L900 473L778 492Z" fill="#c2410c" stroke="#f97316"></path><path d="M900 276L900 208L794 239Z" fill="#c2410c" stroke="#f97316"></path><path d="M900 0L789 0L796 64Z" fill="#c2410c" stroke="#f97316"></path><path d="M796 64L789 0L690 72Z" fill="#c2410c" stroke="#f97316"></path><path d="M900 208L900 133L794 239Z" fill="#c2410c" stroke="#f97316"></path><path d="M277 0L160 0L226 136Z" fill="#c2410c" stroke="#f97316"></path><path d="M0 262L137 286L134 212Z" fill="#c2410c" stroke="#f97316"></path><path d="M84 480L0 513L122 600Z" fill="#c2410c" stroke="#f97316"></path><path d="M0 262L134 212L0 174Z" fill="#c2410c" stroke="#f97316"></path><path d="M774 600L900 600L778 492Z" fill="#c2410c" stroke="#f97316"></path><path d="M0 174L134 212L114 137Z" fill="#c2410c" stroke="#f97316"></path><path d="M0 397L0 513L84 480Z" fill="#c2410c" stroke="#f97316"></path><path d="M0 91L0 174L114 137Z" fill="#c2410c" stroke="#f97316"></path><path d="M160 0L92 0L114 137Z" fill="#c2410c" stroke="#f97316"></path><path d="M0 513L0 600L122 600Z" fill="#c2410c" stroke="#f97316"></path><path d="M92 0L0 91L114 137Z" fill="#c2410c" stroke="#f97316"></path><path d="M900 133L900 0L796 64Z" fill="#c2410c" stroke="#f97316"></path><path d="M92 0L0 0L0 91Z" fill="#c2410c" stroke="#f97316"></path></g></svg>