<svg id="visual" viewBox="0 0 900 600" width="900" height="600" xmlns="http://www.w3.org/2000/svg" xmlns:xlink="http://www.w3.org/1999/xlink" version="1.1"><g stroke-width="1" stroke-linejoin="bevel"><path d="M473 266L475 199L384 214Z" fill="#f3f4f6" stroke="#d1d5db"></path><path d="M384 214L408 320L473 266Z" fill="#f3f4f6" stroke="#d1d5db"></path><path d="M384 214L303 265L408 320Z" fill="#f3f4f6" stroke="#d1d5db"></path><path d="M598 277L577 212L473 266Z" fill="#f3f4f6" stroke="#d1d5db"></path><path d="M473 266L577 212L475 199Z" fill="#f3f4f6" stroke="#d1d5db"></path><path d="M478 71L421 76L475 199Z" fill="#f3f4f6" stroke="#d1d5db"></path><path d="M475 199L421 76L384 214Z" fill="#f3f4f6" stroke="#d1d5db"></path><path d="M384 214L275 168L303 265Z" fill="#f3f4f6" stroke="#d1d5db"></path><path d="M577 212L478 71L475 199Z" fill="#f3f4f6" stroke="#d1d5db"></path><path d="M311 431L425 400L408 320Z" fill="#f3f4f6" stroke="#d1d5db"></path><path d="M408 320L425 400L473 266Z" fill="#f3f4f6" stroke="#d1d5db"></path><path d="M529 429L598 277L473 266Z" fill="#f3f4f6" stroke="#d1d5db"></path><path d="M280 88L275 168L384 214Z" fill="#f3f4f6" stroke="#d1d5db"></path><path d="M275 168L236 215L303 265Z" fill="#f3f4f6" stroke="#d1d5db"></path><path d="M303 265L311 431L408 320Z" fill="#f3f4f6" stroke="#d1d5db"></path><path d="M309 0L280 88L421 76Z" fill="#f3f4f6" stroke="#d1d5db"></path><path d="M421 76L280 88L384 214Z" fill="#f3f4f6" stroke="#d1d5db"></path><path d="M275 168L233 73L236 215Z" fill="#f3f4f6" stroke="#d1d5db"></path><path d="M236 215L220 267L303 265Z" fill="#f3f4f6" stroke="#d1d5db"></path><path d="M425 400L529 429L473 266Z" fill="#f3f4f6" stroke="#d1d5db"></path><path d="M220 267L311 431L303 265Z" fill="#f3f4f6" stroke="#d1d5db"></path><path d="M425 400L512 464L529 429Z" fill="#f3f4f6" stroke="#d1d5db"></path><path d="M621 0L473 0L478 71Z" fill="#f3f4f6" stroke="#d1d5db"></path><path d="M478 71L473 0L421 76Z" fill="#f3f4f6" stroke="#d1d5db"></path><path d="M473 0L389 0L421 76Z" fill="#f3f4f6" stroke="#d1d5db"></path><path d="M529 429L615 382L598 277Z" fill="#f3f4f6" stroke="#d1d5db"></path><path d="M362 496L512 464L425 400Z" fill="#f3f4f6" stroke="#d1d5db"></path><path d="M529 429L594 507L615 382Z" fill="#f3f4f6" stroke="#d1d5db"></path><path d="M691 239L634 89L577 212Z" fill="#f3f4f6" stroke="#d1d5db"></path><path d="M577 212L634 89L478 71Z" fill="#f3f4f6" stroke="#d1d5db"></path><path d="M691 239L577 212L598 277Z" fill="#f3f4f6" stroke="#d1d5db"></path><path d="M280 88L233 73L275 168Z" fill="#f3f4f6" stroke="#d1d5db"></path><path d="M236 215L105 205L220 267Z" fill="#f3f4f6" stroke="#d1d5db"></path><path d="M309 0L233 73L280 88Z" fill="#f3f4f6" stroke="#d1d5db"></path><path d="M674 338L691 239L598 277Z" fill="#f3f4f6" stroke="#d1d5db"></path><path d="M389 0L309 0L421 76Z" fill="#f3f4f6" stroke="#d1d5db"></path><path d="M720 433L674 338L615 382Z" fill="#f3f4f6" stroke="#d1d5db"></path><path d="M615 382L674 338L598 277Z" fill="#f3f4f6" stroke="#d1d5db"></path><path d="M176 463L314 471L311 431Z" fill="#f3f4f6" stroke="#d1d5db"></path><path d="M311 431L362 496L425 400Z" fill="#f3f4f6" stroke="#d1d5db"></path><path d="M314 471L362 496L311 431Z" fill="#f3f4f6" stroke="#d1d5db"></path><path d="M707 80L621 0L634 89Z" fill="#f3f4f6" stroke="#d1d5db"></path><path d="M634 89L621 0L478 71Z" fill="#f3f4f6" stroke="#d1d5db"></path><path d="M691 239L707 80L634 89Z" fill="#f3f4f6" stroke="#d1d5db"></path><path d="M512 464L594 507L529 429Z" fill="#f3f4f6" stroke="#d1d5db"></path><path d="M502 600L594 507L512 464Z" fill="#f3f4f6" stroke="#d1d5db"></path><path d="M98 307L174 431L220 267Z" fill="#f3f4f6" stroke="#d1d5db"></path><path d="M220 267L174 431L311 431Z" fill="#f3f4f6" stroke="#d1d5db"></path><path d="M298 600L395 600L362 496Z" fill="#f3f4f6" stroke="#d1d5db"></path><path d="M117 81L105 205L236 215Z" fill="#f3f4f6" stroke="#d1d5db"></path><path d="M674 338L761 303L691 239Z" fill="#f3f4f6" stroke="#d1d5db"></path><path d="M691 239L833 174L707 80Z" fill="#f3f4f6" stroke="#d1d5db"></path><path d="M720 433L761 303L674 338Z" fill="#f3f4f6" stroke="#d1d5db"></path><path d="M105 205L98 307L220 267Z" fill="#f3f4f6" stroke="#d1d5db"></path><path d="M174 431L176 463L311 431Z" fill="#f3f4f6" stroke="#d1d5db"></path><path d="M115 423L176 463L174 431Z" fill="#f3f4f6" stroke="#d1d5db"></path><path d="M695 468L720 433L615 382Z" fill="#f3f4f6" stroke="#d1d5db"></path><path d="M233 73L117 81L236 215Z" fill="#f3f4f6" stroke="#d1d5db"></path><path d="M169 0L117 81L233 73Z" fill="#f3f4f6" stroke="#d1d5db"></path><path d="M309 0L169 0L233 73Z" fill="#f3f4f6" stroke="#d1d5db"></path><path d="M594 507L695 468L615 382Z" fill="#f3f4f6" stroke="#d1d5db"></path><path d="M298 600L362 496L314 471Z" fill="#f3f4f6" stroke="#d1d5db"></path><path d="M362 496L395 600L512 464Z" fill="#f3f4f6" stroke="#d1d5db"></path><path d="M594 507L686 600L695 468Z" fill="#f3f4f6" stroke="#d1d5db"></path><path d="M98 307L115 423L174 431Z" fill="#f3f4f6" stroke="#d1d5db"></path><path d="M395 600L502 600L512 464Z" fill="#f3f4f6" stroke="#d1d5db"></path><path d="M766 0L737 0L707 80Z" fill="#f3f4f6" stroke="#d1d5db"></path><path d="M707 80L737 0L621 0Z" fill="#f3f4f6" stroke="#d1d5db"></path><path d="M181 600L298 600L176 463Z" fill="#f3f4f6" stroke="#d1d5db"></path><path d="M176 463L298 600L314 471Z" fill="#f3f4f6" stroke="#d1d5db"></path><path d="M900 199L833 174L900 281Z" fill="#f3f4f6" stroke="#d1d5db"></path><path d="M761 303L833 174L691 239Z" fill="#f3f4f6" stroke="#d1d5db"></path><path d="M821 71L766 0L707 80Z" fill="#f3f4f6" stroke="#d1d5db"></path><path d="M824 472L792 420L720 433Z" fill="#f3f4f6" stroke="#d1d5db"></path><path d="M720 433L792 420L761 303Z" fill="#f3f4f6" stroke="#d1d5db"></path><path d="M824 472L720 433L695 468Z" fill="#f3f4f6" stroke="#d1d5db"></path><path d="M502 600L630 600L594 507Z" fill="#f3f4f6" stroke="#d1d5db"></path><path d="M833 174L821 71L707 80Z" fill="#f3f4f6" stroke="#d1d5db"></path><path d="M169 0L74 0L117 81Z" fill="#f3f4f6" stroke="#d1d5db"></path><path d="M117 81L0 164L105 205Z" fill="#f3f4f6" stroke="#d1d5db"></path><path d="M105 205L0 325L98 307Z" fill="#f3f4f6" stroke="#d1d5db"></path><path d="M0 383L77 473L115 423Z" fill="#f3f4f6" stroke="#d1d5db"></path><path d="M115 423L77 473L176 463Z" fill="#f3f4f6" stroke="#d1d5db"></path><path d="M0 383L115 423L98 307Z" fill="#f3f4f6" stroke="#d1d5db"></path><path d="M0 79L0 164L117 81Z" fill="#f3f4f6" stroke="#d1d5db"></path><path d="M0 164L0 325L105 205Z" fill="#f3f4f6" stroke="#d1d5db"></path><path d="M630 600L686 600L594 507Z" fill="#f3f4f6" stroke="#d1d5db"></path><path d="M125 600L181 600L176 463Z" fill="#f3f4f6" stroke="#d1d5db"></path><path d="M823 600L824 472L695 468Z" fill="#f3f4f6" stroke="#d1d5db"></path><path d="M900 281L833 174L761 303Z" fill="#f3f4f6" stroke="#d1d5db"></path><path d="M0 325L0 383L98 307Z" fill="#f3f4f6" stroke="#d1d5db"></path><path d="M77 473L125 600L176 463Z" fill="#f3f4f6" stroke="#d1d5db"></path><path d="M74 0L0 79L117 81Z" fill="#f3f4f6" stroke="#d1d5db"></path><path d="M900 281L761 303L792 420Z" fill="#f3f4f6" stroke="#d1d5db"></path><path d="M833 174L900 104L821 71Z" fill="#f3f4f6" stroke="#d1d5db"></path><path d="M900 410L900 281L792 420Z" fill="#f3f4f6" stroke="#d1d5db"></path><path d="M0 521L125 600L77 473Z" fill="#f3f4f6" stroke="#d1d5db"></path><path d="M900 199L900 104L833 174Z" fill="#f3f4f6" stroke="#d1d5db"></path><path d="M821 71L900 0L766 0Z" fill="#f3f4f6" stroke="#d1d5db"></path><path d="M74 0L0 0L0 79Z" fill="#f3f4f6" stroke="#d1d5db"></path><path d="M900 497L900 410L824 472Z" fill="#f3f4f6" stroke="#d1d5db"></path><path d="M824 472L900 410L792 420Z" fill="#f3f4f6" stroke="#d1d5db"></path><path d="M900 104L900 0L821 71Z" fill="#f3f4f6" stroke="#d1d5db"></path><path d="M0 383L0 521L77 473Z" fill="#f3f4f6" stroke="#d1d5db"></path><path d="M686 600L823 600L695 468Z" fill="#f3f4f6" stroke="#d1d5db"></path><path d="M823 600L900 497L824 472Z" fill="#f3f4f6" stroke="#d1d5db"></path><path d="M0 521L0 600L125 600Z" fill="#f3f4f6" stroke="#d1d5db"></path><path d="M823 600L900 600L900 497Z" fill="#f3f4f6" stroke="#d1d5db"></path></g></svg>