<svg id="visual" viewBox="0 0 900 600" width="900" height="600" xmlns="http://www.w3.org/2000/svg" xmlns:xlink="http://www.w3.org/1999/xlink" version="1.1"><g stroke-width="1" stroke-linejoin="bevel"><path d="M405 290L413 377L502 270Z" fill="#ea580c" stroke="#fb923c"></path><path d="M413 377L538 360L502 270Z" fill="#ea580c" stroke="#fb923c"></path><path d="M592 315L500 236L502 270Z" fill="#ea580c" stroke="#fb923c"></path><path d="M502 270L500 236L405 290Z" fill="#ea580c" stroke="#fb923c"></path><path d="M538 360L592 315L502 270Z" fill="#ea580c" stroke="#fb923c"></path><path d="M413 377L461 481L538 360Z" fill="#ea580c" stroke="#fb923c"></path><path d="M538 360L596 423L592 315Z" fill="#ea580c" stroke="#fb923c"></path><path d="M413 377L437 483L461 481Z" fill="#ea580c" stroke="#fb923c"></path><path d="M461 481L596 423L538 360Z" fill="#ea580c" stroke="#fb923c"></path><path d="M500 236L415 172L405 290Z" fill="#ea580c" stroke="#fb923c"></path><path d="M268 267L318 406L405 290Z" fill="#ea580c" stroke="#fb923c"></path><path d="M405 290L318 406L413 377Z" fill="#ea580c" stroke="#fb923c"></path><path d="M413 377L318 406L437 483Z" fill="#ea580c" stroke="#fb923c"></path><path d="M610 188L484 138L500 236Z" fill="#ea580c" stroke="#fb923c"></path><path d="M500 236L484 138L415 172Z" fill="#ea580c" stroke="#fb923c"></path><path d="M361 90L335 186L415 172Z" fill="#ea580c" stroke="#fb923c"></path><path d="M415 172L335 186L405 290Z" fill="#ea580c" stroke="#fb923c"></path><path d="M678 214L610 188L592 315Z" fill="#ea580c" stroke="#fb923c"></path><path d="M592 315L610 188L500 236Z" fill="#ea580c" stroke="#fb923c"></path><path d="M335 186L268 267L405 290Z" fill="#ea580c" stroke="#fb923c"></path><path d="M461 481L626 464L596 423Z" fill="#ea580c" stroke="#fb923c"></path><path d="M737 388L710 260L592 315Z" fill="#ea580c" stroke="#fb923c"></path><path d="M215 506L310 488L318 406Z" fill="#ea580c" stroke="#fb923c"></path><path d="M318 406L310 488L437 483Z" fill="#ea580c" stroke="#fb923c"></path><path d="M710 260L678 214L592 315Z" fill="#ea580c" stroke="#fb923c"></path><path d="M610 188L627 134L484 138Z" fill="#ea580c" stroke="#fb923c"></path><path d="M678 214L627 134L610 188Z" fill="#ea580c" stroke="#fb923c"></path><path d="M737 388L592 315L596 423Z" fill="#ea580c" stroke="#fb923c"></path><path d="M678 214L706 81L627 134Z" fill="#ea580c" stroke="#fb923c"></path><path d="M484 138L361 90L415 172Z" fill="#ea580c" stroke="#fb923c"></path><path d="M335 186L208 172L268 267Z" fill="#ea580c" stroke="#fb923c"></path><path d="M367 0L361 90L484 138Z" fill="#ea580c" stroke="#fb923c"></path><path d="M437 483L461 600L461 481Z" fill="#ea580c" stroke="#fb923c"></path><path d="M461 481L615 600L626 464Z" fill="#ea580c" stroke="#fb923c"></path><path d="M410 600L461 600L437 483Z" fill="#ea580c" stroke="#fb923c"></path><path d="M310 488L410 600L437 483Z" fill="#ea580c" stroke="#fb923c"></path><path d="M626 464L737 388L596 423Z" fill="#ea580c" stroke="#fb923c"></path><path d="M703 508L737 388L626 464Z" fill="#ea580c" stroke="#fb923c"></path><path d="M208 172L169 317L268 267Z" fill="#ea580c" stroke="#fb923c"></path><path d="M268 267L169 317L318 406Z" fill="#ea580c" stroke="#fb923c"></path><path d="M361 90L289 86L335 186Z" fill="#ea580c" stroke="#fb923c"></path><path d="M615 600L703 508L626 464Z" fill="#ea580c" stroke="#fb923c"></path><path d="M169 317L173 401L318 406Z" fill="#ea580c" stroke="#fb923c"></path><path d="M310 488L270 600L410 600Z" fill="#ea580c" stroke="#fb923c"></path><path d="M289 86L208 172L335 186Z" fill="#ea580c" stroke="#fb923c"></path><path d="M173 401L215 506L318 406Z" fill="#ea580c" stroke="#fb923c"></path><path d="M461 600L615 600L461 481Z" fill="#ea580c" stroke="#fb923c"></path><path d="M215 506L270 600L310 488Z" fill="#ea580c" stroke="#fb923c"></path><path d="M627 134L532 0L484 138Z" fill="#ea580c" stroke="#fb923c"></path><path d="M361 90L367 0L289 86Z" fill="#ea580c" stroke="#fb923c"></path><path d="M277 0L224 91L289 86Z" fill="#ea580c" stroke="#fb923c"></path><path d="M289 86L224 91L208 172Z" fill="#ea580c" stroke="#fb923c"></path><path d="M208 172L132 174L169 317Z" fill="#ea580c" stroke="#fb923c"></path><path d="M173 401L139 463L215 506Z" fill="#ea580c" stroke="#fb923c"></path><path d="M215 506L219 600L270 600Z" fill="#ea580c" stroke="#fb923c"></path><path d="M169 317L135 419L173 401Z" fill="#ea580c" stroke="#fb923c"></path><path d="M90 275L135 419L169 317Z" fill="#ea580c" stroke="#fb923c"></path><path d="M532 0L367 0L484 138Z" fill="#ea580c" stroke="#fb923c"></path><path d="M763 95L706 81L678 214Z" fill="#ea580c" stroke="#fb923c"></path><path d="M627 134L618 0L532 0Z" fill="#ea580c" stroke="#fb923c"></path><path d="M817 204L678 214L710 260Z" fill="#ea580c" stroke="#fb923c"></path><path d="M135 419L139 463L173 401Z" fill="#ea580c" stroke="#fb923c"></path><path d="M615 600L697 600L703 508Z" fill="#ea580c" stroke="#fb923c"></path><path d="M835 398L830 334L737 388Z" fill="#ea580c" stroke="#fb923c"></path><path d="M706 81L618 0L627 134Z" fill="#ea580c" stroke="#fb923c"></path><path d="M106 600L219 600L215 506Z" fill="#ea580c" stroke="#fb923c"></path><path d="M125 128L132 174L208 172Z" fill="#ea580c" stroke="#fb923c"></path><path d="M801 475L737 388L703 508Z" fill="#ea580c" stroke="#fb923c"></path><path d="M737 388L830 334L710 260Z" fill="#ea580c" stroke="#fb923c"></path><path d="M774 600L801 475L703 508Z" fill="#ea580c" stroke="#fb923c"></path><path d="M830 334L817 204L710 260Z" fill="#ea580c" stroke="#fb923c"></path><path d="M132 174L90 275L169 317Z" fill="#ea580c" stroke="#fb923c"></path><path d="M0 520L106 600L139 463Z" fill="#ea580c" stroke="#fb923c"></path><path d="M367 0L277 0L289 86Z" fill="#ea580c" stroke="#fb923c"></path><path d="M224 91L125 128L208 172Z" fill="#ea580c" stroke="#fb923c"></path><path d="M801 475L835 398L737 388Z" fill="#ea580c" stroke="#fb923c"></path><path d="M817 204L763 95L678 214Z" fill="#ea580c" stroke="#fb923c"></path><path d="M706 81L688 0L618 0Z" fill="#ea580c" stroke="#fb923c"></path><path d="M88 0L125 128L224 91Z" fill="#ea580c" stroke="#fb923c"></path><path d="M0 178L0 268L90 275Z" fill="#ea580c" stroke="#fb923c"></path><path d="M763 95L688 0L706 81Z" fill="#ea580c" stroke="#fb923c"></path><path d="M277 0L220 0L224 91Z" fill="#ea580c" stroke="#fb923c"></path><path d="M697 600L774 600L703 508Z" fill="#ea580c" stroke="#fb923c"></path><path d="M801 475L900 434L835 398Z" fill="#ea580c" stroke="#fb923c"></path><path d="M900 434L900 288L835 398Z" fill="#ea580c" stroke="#fb923c"></path><path d="M835 398L900 288L830 334Z" fill="#ea580c" stroke="#fb923c"></path><path d="M830 334L900 288L817 204Z" fill="#ea580c" stroke="#fb923c"></path><path d="M817 204L900 138L763 95Z" fill="#ea580c" stroke="#fb923c"></path><path d="M0 520L139 463L135 419Z" fill="#ea580c" stroke="#fb923c"></path><path d="M139 463L106 600L215 506Z" fill="#ea580c" stroke="#fb923c"></path><path d="M900 528L900 434L801 475Z" fill="#ea580c" stroke="#fb923c"></path><path d="M900 288L900 199L817 204Z" fill="#ea580c" stroke="#fb923c"></path><path d="M763 95L817 0L688 0Z" fill="#ea580c" stroke="#fb923c"></path><path d="M90 275L0 370L135 419Z" fill="#ea580c" stroke="#fb923c"></path><path d="M0 268L0 370L90 275Z" fill="#ea580c" stroke="#fb923c"></path><path d="M0 178L132 174L125 128Z" fill="#ea580c" stroke="#fb923c"></path><path d="M0 178L90 275L132 174Z" fill="#ea580c" stroke="#fb923c"></path><path d="M900 199L900 138L817 204Z" fill="#ea580c" stroke="#fb923c"></path><path d="M774 600L900 528L801 475Z" fill="#ea580c" stroke="#fb923c"></path><path d="M900 138L817 0L763 95Z" fill="#ea580c" stroke="#fb923c"></path><path d="M0 126L0 178L125 128Z" fill="#ea580c" stroke="#fb923c"></path><path d="M220 0L88 0L224 91Z" fill="#ea580c" stroke="#fb923c"></path><path d="M0 370L0 520L135 419Z" fill="#ea580c" stroke="#fb923c"></path><path d="M88 0L0 126L125 128Z" fill="#ea580c" stroke="#fb923c"></path><path d="M774 600L900 600L900 528Z" fill="#ea580c" stroke="#fb923c"></path><path d="M0 520L0 600L106 600Z" fill="#ea580c" stroke="#fb923c"></path><path d="M900 138L900 0L817 0Z" fill="#ea580c" stroke="#fb923c"></path><path d="M88 0L0 0L0 126Z" fill="#ea580c" stroke="#fb923c"></path></g></svg>