<svg id="visual" viewBox="0 0 900 600" width="900" height="600" xmlns="http://www.w3.org/2000/svg" xmlns:xlink="http://www.w3.org/1999/xlink" version="1.1"><g stroke-width="1" stroke-linejoin="bevel"><path d="M383 325L306 322L388 369Z" fill="#166534" stroke="#16a34a"></path><path d="M306 322L295 403L388 369Z" fill="#166534" stroke="#16a34a"></path><path d="M383 325L299 212L306 322Z" fill="#166534" stroke="#16a34a"></path><path d="M306 322L198 288L295 403Z" fill="#166534" stroke="#16a34a"></path><path d="M299 212L198 288L306 322Z" fill="#166534" stroke="#16a34a"></path><path d="M295 403L433 490L388 369Z" fill="#166534" stroke="#16a34a"></path><path d="M523 297L424 199L383 325Z" fill="#166534" stroke="#16a34a"></path><path d="M198 288L184 411L295 403Z" fill="#166534" stroke="#16a34a"></path><path d="M295 403L335 530L433 490Z" fill="#166534" stroke="#16a34a"></path><path d="M523 297L383 325L388 369Z" fill="#166534" stroke="#16a34a"></path><path d="M383 325L424 199L299 212Z" fill="#166534" stroke="#16a34a"></path><path d="M182 532L335 530L295 403Z" fill="#166534" stroke="#16a34a"></path><path d="M527 408L523 297L388 369Z" fill="#166534" stroke="#16a34a"></path><path d="M299 212L201 225L198 288Z" fill="#166534" stroke="#16a34a"></path><path d="M79 310L91 417L184 411Z" fill="#166534" stroke="#16a34a"></path><path d="M433 490L527 408L388 369Z" fill="#166534" stroke="#16a34a"></path><path d="M477 600L521 484L433 490Z" fill="#166534" stroke="#16a34a"></path><path d="M433 490L521 484L527 408Z" fill="#166534" stroke="#16a34a"></path><path d="M523 297L511 189L424 199Z" fill="#166534" stroke="#16a34a"></path><path d="M424 199L338 91L299 212Z" fill="#166534" stroke="#16a34a"></path><path d="M184 411L182 532L295 403Z" fill="#166534" stroke="#16a34a"></path><path d="M239 600L320 600L335 530Z" fill="#166534" stroke="#16a34a"></path><path d="M335 530L384 600L433 490Z" fill="#166534" stroke="#16a34a"></path><path d="M320 600L384 600L335 530Z" fill="#166534" stroke="#16a34a"></path><path d="M79 310L184 411L198 288Z" fill="#166534" stroke="#16a34a"></path><path d="M184 411L119 495L182 532Z" fill="#166534" stroke="#16a34a"></path><path d="M422 91L338 91L424 199Z" fill="#166534" stroke="#16a34a"></path><path d="M299 212L214 77L201 225Z" fill="#166534" stroke="#16a34a"></path><path d="M477 600L561 498L521 484Z" fill="#166534" stroke="#16a34a"></path><path d="M521 484L561 498L527 408Z" fill="#166534" stroke="#16a34a"></path><path d="M627 298L578 223L523 297Z" fill="#166534" stroke="#16a34a"></path><path d="M523 297L578 223L511 189Z" fill="#166534" stroke="#16a34a"></path><path d="M91 417L119 495L184 411Z" fill="#166534" stroke="#16a34a"></path><path d="M627 298L523 297L527 408Z" fill="#166534" stroke="#16a34a"></path><path d="M476 105L422 91L424 199Z" fill="#166534" stroke="#16a34a"></path><path d="M81 172L79 310L201 225Z" fill="#166534" stroke="#16a34a"></path><path d="M201 225L79 310L198 288Z" fill="#166534" stroke="#16a34a"></path><path d="M80 600L239 600L182 532Z" fill="#166534" stroke="#16a34a"></path><path d="M182 532L239 600L335 530Z" fill="#166534" stroke="#16a34a"></path><path d="M476 105L424 199L511 189Z" fill="#166534" stroke="#16a34a"></path><path d="M624 102L476 105L511 189Z" fill="#166534" stroke="#16a34a"></path><path d="M384 600L477 600L433 490Z" fill="#166534" stroke="#16a34a"></path><path d="M633 409L627 298L527 408Z" fill="#166534" stroke="#16a34a"></path><path d="M561 498L633 409L527 408Z" fill="#166534" stroke="#16a34a"></path><path d="M304 0L214 77L338 91Z" fill="#166534" stroke="#16a34a"></path><path d="M338 91L214 77L299 212Z" fill="#166534" stroke="#16a34a"></path><path d="M214 77L137 119L201 225Z" fill="#166534" stroke="#16a34a"></path><path d="M137 119L81 172L201 225Z" fill="#166534" stroke="#16a34a"></path><path d="M91 417L0 475L119 495Z" fill="#166534" stroke="#16a34a"></path><path d="M79 310L0 390L91 417Z" fill="#166534" stroke="#16a34a"></path><path d="M0 275L0 390L79 310Z" fill="#166534" stroke="#16a34a"></path><path d="M622 600L669 472L561 498Z" fill="#166534" stroke="#16a34a"></path><path d="M561 498L669 472L633 409Z" fill="#166534" stroke="#16a34a"></path><path d="M633 409L701 392L627 298Z" fill="#166534" stroke="#16a34a"></path><path d="M81 172L0 275L79 310Z" fill="#166534" stroke="#16a34a"></path><path d="M505 0L377 0L422 91Z" fill="#166534" stroke="#16a34a"></path><path d="M422 91L377 0L338 91Z" fill="#166534" stroke="#16a34a"></path><path d="M377 0L304 0L338 91Z" fill="#166534" stroke="#16a34a"></path><path d="M214 77L75 0L137 119Z" fill="#166534" stroke="#16a34a"></path><path d="M669 472L701 392L633 409Z" fill="#166534" stroke="#16a34a"></path><path d="M627 298L709 236L578 223Z" fill="#166534" stroke="#16a34a"></path><path d="M119 495L80 600L182 532Z" fill="#166534" stroke="#16a34a"></path><path d="M0 475L80 600L119 495Z" fill="#166534" stroke="#16a34a"></path><path d="M701 392L704 314L627 298Z" fill="#166534" stroke="#16a34a"></path><path d="M578 223L624 102L511 189Z" fill="#166534" stroke="#16a34a"></path><path d="M476 105L505 0L422 91Z" fill="#166534" stroke="#16a34a"></path><path d="M0 390L0 475L91 417Z" fill="#166534" stroke="#16a34a"></path><path d="M304 0L237 0L214 77Z" fill="#166534" stroke="#16a34a"></path><path d="M0 91L0 200L81 172Z" fill="#166534" stroke="#16a34a"></path><path d="M477 600L622 600L561 498Z" fill="#166534" stroke="#16a34a"></path><path d="M771 393L704 314L701 392Z" fill="#166534" stroke="#16a34a"></path><path d="M0 91L81 172L137 119Z" fill="#166534" stroke="#16a34a"></path><path d="M81 172L0 200L0 275Z" fill="#166534" stroke="#16a34a"></path><path d="M667 114L624 102L578 223Z" fill="#166534" stroke="#16a34a"></path><path d="M704 314L709 236L627 298Z" fill="#166534" stroke="#16a34a"></path><path d="M764 306L709 236L704 314Z" fill="#166534" stroke="#16a34a"></path><path d="M581 0L505 0L476 105Z" fill="#166534" stroke="#16a34a"></path><path d="M709 236L667 114L578 223Z" fill="#166534" stroke="#16a34a"></path><path d="M624 102L581 0L476 105Z" fill="#166534" stroke="#16a34a"></path><path d="M771 393L701 392L778 495Z" fill="#166534" stroke="#16a34a"></path><path d="M771 393L764 306L704 314Z" fill="#166534" stroke="#16a34a"></path><path d="M709 236L764 190L667 114Z" fill="#166534" stroke="#16a34a"></path><path d="M0 475L0 600L80 600Z" fill="#166534" stroke="#16a34a"></path><path d="M670 0L581 0L624 102Z" fill="#166534" stroke="#16a34a"></path><path d="M778 495L701 392L669 472Z" fill="#166534" stroke="#16a34a"></path><path d="M75 0L0 91L137 119Z" fill="#166534" stroke="#16a34a"></path><path d="M622 600L701 600L669 472Z" fill="#166534" stroke="#16a34a"></path><path d="M237 0L75 0L214 77Z" fill="#166534" stroke="#16a34a"></path><path d="M764 306L764 190L709 236Z" fill="#166534" stroke="#16a34a"></path><path d="M667 114L670 0L624 102Z" fill="#166534" stroke="#16a34a"></path><path d="M900 236L764 190L764 306Z" fill="#166534" stroke="#16a34a"></path><path d="M701 600L778 495L669 472Z" fill="#166534" stroke="#16a34a"></path><path d="M900 86L772 68L764 190Z" fill="#166534" stroke="#16a34a"></path><path d="M772 68L670 0L667 114Z" fill="#166534" stroke="#16a34a"></path><path d="M701 600L762 600L778 495Z" fill="#166534" stroke="#16a34a"></path><path d="M75 0L0 0L0 91Z" fill="#166534" stroke="#16a34a"></path><path d="M900 323L764 306L771 393Z" fill="#166534" stroke="#16a34a"></path><path d="M764 190L772 68L667 114Z" fill="#166534" stroke="#16a34a"></path><path d="M900 0L773 0L772 68Z" fill="#166534" stroke="#16a34a"></path><path d="M772 68L773 0L670 0Z" fill="#166534" stroke="#16a34a"></path><path d="M900 419L771 393L778 495Z" fill="#166534" stroke="#16a34a"></path><path d="M900 419L900 323L771 393Z" fill="#166534" stroke="#16a34a"></path><path d="M900 473L900 419L778 495Z" fill="#166534" stroke="#16a34a"></path><path d="M900 323L900 236L764 306Z" fill="#166534" stroke="#16a34a"></path><path d="M900 600L900 473L778 495Z" fill="#166534" stroke="#16a34a"></path><path d="M762 600L900 600L778 495Z" fill="#166534" stroke="#16a34a"></path><path d="M900 236L900 86L764 190Z" fill="#166534" stroke="#16a34a"></path><path d="M900 86L900 0L772 68Z" fill="#166534" stroke="#16a34a"></path></g></svg>