<svg id="visual" viewBox="0 0 900 600" width="900" height="600" xmlns="http://www.w3.org/2000/svg" xmlns:xlink="http://www.w3.org/1999/xlink" version="1.1"><g stroke-width="1" stroke-linejoin="bevel"><path d="M461 261L426 211L366 278Z" fill="#f1f5f9" stroke="#e2e8f0"></path><path d="M283 227L296 266L366 278Z" fill="#f1f5f9" stroke="#e2e8f0"></path><path d="M461 261L527 214L426 211Z" fill="#f1f5f9" stroke="#e2e8f0"></path><path d="M426 211L283 227L366 278Z" fill="#f1f5f9" stroke="#e2e8f0"></path><path d="M296 266L383 399L366 278Z" fill="#f1f5f9" stroke="#e2e8f0"></path><path d="M366 278L383 399L461 261Z" fill="#f1f5f9" stroke="#e2e8f0"></path><path d="M461 261L566 273L527 214Z" fill="#f1f5f9" stroke="#e2e8f0"></path><path d="M564 410L566 273L461 261Z" fill="#f1f5f9" stroke="#e2e8f0"></path><path d="M539 137L389 84L426 211Z" fill="#f1f5f9" stroke="#e2e8f0"></path><path d="M426 211L294 110L283 227Z" fill="#f1f5f9" stroke="#e2e8f0"></path><path d="M617 231L539 137L527 214Z" fill="#f1f5f9" stroke="#e2e8f0"></path><path d="M527 214L539 137L426 211Z" fill="#f1f5f9" stroke="#e2e8f0"></path><path d="M283 227L229 295L296 266Z" fill="#f1f5f9" stroke="#e2e8f0"></path><path d="M296 266L272 430L383 399Z" fill="#f1f5f9" stroke="#e2e8f0"></path><path d="M190 216L229 295L283 227Z" fill="#f1f5f9" stroke="#e2e8f0"></path><path d="M383 399L476 435L461 261Z" fill="#f1f5f9" stroke="#e2e8f0"></path><path d="M389 84L294 110L426 211Z" fill="#f1f5f9" stroke="#e2e8f0"></path><path d="M383 399L408 461L476 435Z" fill="#f1f5f9" stroke="#e2e8f0"></path><path d="M303 465L408 461L383 399Z" fill="#f1f5f9" stroke="#e2e8f0"></path><path d="M662 326L617 231L566 273Z" fill="#f1f5f9" stroke="#e2e8f0"></path><path d="M566 273L617 231L527 214Z" fill="#f1f5f9" stroke="#e2e8f0"></path><path d="M518 504L564 410L476 435Z" fill="#f1f5f9" stroke="#e2e8f0"></path><path d="M476 435L564 410L461 261Z" fill="#f1f5f9" stroke="#e2e8f0"></path><path d="M229 295L272 430L296 266Z" fill="#f1f5f9" stroke="#e2e8f0"></path><path d="M294 110L190 216L283 227Z" fill="#f1f5f9" stroke="#e2e8f0"></path><path d="M229 295L208 406L272 430Z" fill="#f1f5f9" stroke="#e2e8f0"></path><path d="M272 430L303 465L383 399Z" fill="#f1f5f9" stroke="#e2e8f0"></path><path d="M617 231L602 102L539 137Z" fill="#f1f5f9" stroke="#e2e8f0"></path><path d="M539 137L436 0L389 84Z" fill="#f1f5f9" stroke="#e2e8f0"></path><path d="M113 415L208 406L229 295Z" fill="#f1f5f9" stroke="#e2e8f0"></path><path d="M272 430L204 471L303 465Z" fill="#f1f5f9" stroke="#e2e8f0"></path><path d="M564 410L662 326L566 273Z" fill="#f1f5f9" stroke="#e2e8f0"></path><path d="M617 231L697 103L602 102Z" fill="#f1f5f9" stroke="#e2e8f0"></path><path d="M539 0L436 0L539 137Z" fill="#f1f5f9" stroke="#e2e8f0"></path><path d="M389 84L325 0L294 110Z" fill="#f1f5f9" stroke="#e2e8f0"></path><path d="M399 600L518 504L408 461Z" fill="#f1f5f9" stroke="#e2e8f0"></path><path d="M408 461L518 504L476 435Z" fill="#f1f5f9" stroke="#e2e8f0"></path><path d="M564 410L696 474L662 326Z" fill="#f1f5f9" stroke="#e2e8f0"></path><path d="M436 0L325 0L389 84Z" fill="#f1f5f9" stroke="#e2e8f0"></path><path d="M294 110L173 118L190 216Z" fill="#f1f5f9" stroke="#e2e8f0"></path><path d="M193 0L173 118L294 110Z" fill="#f1f5f9" stroke="#e2e8f0"></path><path d="M113 415L204 471L208 406Z" fill="#f1f5f9" stroke="#e2e8f0"></path><path d="M602 102L539 0L539 137Z" fill="#f1f5f9" stroke="#e2e8f0"></path><path d="M518 504L574 497L564 410Z" fill="#f1f5f9" stroke="#e2e8f0"></path><path d="M208 406L204 471L272 430Z" fill="#f1f5f9" stroke="#e2e8f0"></path><path d="M334 600L399 600L408 461Z" fill="#f1f5f9" stroke="#e2e8f0"></path><path d="M113 415L229 295L65 307Z" fill="#f1f5f9" stroke="#e2e8f0"></path><path d="M662 326L710 211L617 231Z" fill="#f1f5f9" stroke="#e2e8f0"></path><path d="M602 102L621 0L539 0Z" fill="#f1f5f9" stroke="#e2e8f0"></path><path d="M710 211L697 103L617 231Z" fill="#f1f5f9" stroke="#e2e8f0"></path><path d="M193 0L121 99L173 118Z" fill="#f1f5f9" stroke="#e2e8f0"></path><path d="M173 118L78 207L190 216Z" fill="#f1f5f9" stroke="#e2e8f0"></path><path d="M668 0L621 0L602 102Z" fill="#f1f5f9" stroke="#e2e8f0"></path><path d="M65 307L229 295L190 216Z" fill="#f1f5f9" stroke="#e2e8f0"></path><path d="M121 99L78 207L173 118Z" fill="#f1f5f9" stroke="#e2e8f0"></path><path d="M325 0L193 0L294 110Z" fill="#f1f5f9" stroke="#e2e8f0"></path><path d="M334 600L408 461L303 465Z" fill="#f1f5f9" stroke="#e2e8f0"></path><path d="M518 504L511 600L574 497Z" fill="#f1f5f9" stroke="#e2e8f0"></path><path d="M334 600L303 465L220 600Z" fill="#f1f5f9" stroke="#e2e8f0"></path><path d="M78 207L65 307L190 216Z" fill="#f1f5f9" stroke="#e2e8f0"></path><path d="M220 600L303 465L204 471Z" fill="#f1f5f9" stroke="#e2e8f0"></path><path d="M399 600L511 600L518 504Z" fill="#f1f5f9" stroke="#e2e8f0"></path><path d="M662 326L766 289L710 211Z" fill="#f1f5f9" stroke="#e2e8f0"></path><path d="M710 211L811 203L697 103Z" fill="#f1f5f9" stroke="#e2e8f0"></path><path d="M735 417L766 289L662 326Z" fill="#f1f5f9" stroke="#e2e8f0"></path><path d="M696 474L564 410L574 497Z" fill="#f1f5f9" stroke="#e2e8f0"></path><path d="M678 600L696 474L574 497Z" fill="#f1f5f9" stroke="#e2e8f0"></path><path d="M696 474L735 417L662 326Z" fill="#f1f5f9" stroke="#e2e8f0"></path><path d="M791 0L668 0L697 103Z" fill="#f1f5f9" stroke="#e2e8f0"></path><path d="M697 103L668 0L602 102Z" fill="#f1f5f9" stroke="#e2e8f0"></path><path d="M511 600L602 600L574 497Z" fill="#f1f5f9" stroke="#e2e8f0"></path><path d="M117 600L220 600L204 471Z" fill="#f1f5f9" stroke="#e2e8f0"></path><path d="M900 279L811 203L766 289Z" fill="#f1f5f9" stroke="#e2e8f0"></path><path d="M766 289L811 203L710 211Z" fill="#f1f5f9" stroke="#e2e8f0"></path><path d="M776 496L804 376L735 417Z" fill="#f1f5f9" stroke="#e2e8f0"></path><path d="M735 417L804 376L766 289Z" fill="#f1f5f9" stroke="#e2e8f0"></path><path d="M776 496L735 417L696 474Z" fill="#f1f5f9" stroke="#e2e8f0"></path><path d="M193 0L93 0L121 99Z" fill="#f1f5f9" stroke="#e2e8f0"></path><path d="M0 91L0 234L78 207Z" fill="#f1f5f9" stroke="#e2e8f0"></path><path d="M78 207L0 234L65 307Z" fill="#f1f5f9" stroke="#e2e8f0"></path><path d="M0 91L78 207L121 99Z" fill="#f1f5f9" stroke="#e2e8f0"></path><path d="M65 307L0 381L113 415Z" fill="#f1f5f9" stroke="#e2e8f0"></path><path d="M113 415L67 526L204 471Z" fill="#f1f5f9" stroke="#e2e8f0"></path><path d="M0 234L0 324L65 307Z" fill="#f1f5f9" stroke="#e2e8f0"></path><path d="M0 324L0 381L65 307Z" fill="#f1f5f9" stroke="#e2e8f0"></path><path d="M602 600L678 600L574 497Z" fill="#f1f5f9" stroke="#e2e8f0"></path><path d="M678 600L776 496L696 474Z" fill="#f1f5f9" stroke="#e2e8f0"></path><path d="M0 467L67 526L113 415Z" fill="#f1f5f9" stroke="#e2e8f0"></path><path d="M93 0L0 91L121 99Z" fill="#f1f5f9" stroke="#e2e8f0"></path><path d="M811 203L820 81L697 103Z" fill="#f1f5f9" stroke="#e2e8f0"></path><path d="M900 204L820 81L811 203Z" fill="#f1f5f9" stroke="#e2e8f0"></path><path d="M67 526L117 600L204 471Z" fill="#f1f5f9" stroke="#e2e8f0"></path><path d="M820 81L791 0L697 103Z" fill="#f1f5f9" stroke="#e2e8f0"></path><path d="M0 381L0 467L113 415Z" fill="#f1f5f9" stroke="#e2e8f0"></path><path d="M67 526L0 600L117 600Z" fill="#f1f5f9" stroke="#e2e8f0"></path><path d="M93 0L0 0L0 91Z" fill="#f1f5f9" stroke="#e2e8f0"></path><path d="M900 434L900 279L804 376Z" fill="#f1f5f9" stroke="#e2e8f0"></path><path d="M804 376L900 279L766 289Z" fill="#f1f5f9" stroke="#e2e8f0"></path><path d="M820 81L900 0L791 0Z" fill="#f1f5f9" stroke="#e2e8f0"></path><path d="M900 279L900 204L811 203Z" fill="#f1f5f9" stroke="#e2e8f0"></path><path d="M900 491L900 434L776 496Z" fill="#f1f5f9" stroke="#e2e8f0"></path><path d="M776 496L900 434L804 376Z" fill="#f1f5f9" stroke="#e2e8f0"></path><path d="M900 204L900 71L820 81Z" fill="#f1f5f9" stroke="#e2e8f0"></path><path d="M0 467L0 600L67 526Z" fill="#f1f5f9" stroke="#e2e8f0"></path><path d="M835 600L900 491L776 496Z" fill="#f1f5f9" stroke="#e2e8f0"></path><path d="M678 600L835 600L776 496Z" fill="#f1f5f9" stroke="#e2e8f0"></path><path d="M900 71L900 0L820 81Z" fill="#f1f5f9" stroke="#e2e8f0"></path><path d="M835 600L900 600L900 491Z" fill="#f1f5f9" stroke="#e2e8f0"></path></g></svg>