<svg id="visual" viewBox="0 0 900 600" width="900" height="600" xmlns="http://www.w3.org/2000/svg" xmlns:xlink="http://www.w3.org/1999/xlink" version="1.1"><g stroke-width="1" stroke-linejoin="bevel"><path d="M433 274L506 173L404 184Z" fill="#d4d4d8" stroke="#f4f4f5"></path><path d="M506 173L436 112L404 184Z" fill="#d4d4d8" stroke="#f4f4f5"></path><path d="M500 132L436 112L506 173Z" fill="#d4d4d8" stroke="#f4f4f5"></path><path d="M433 274L576 231L506 173Z" fill="#d4d4d8" stroke="#f4f4f5"></path><path d="M506 173L613 60L500 132Z" fill="#d4d4d8" stroke="#f4f4f5"></path><path d="M433 274L513 331L576 231Z" fill="#d4d4d8" stroke="#f4f4f5"></path><path d="M272 193L335 293L404 184Z" fill="#d4d4d8" stroke="#f4f4f5"></path><path d="M404 184L335 293L433 274Z" fill="#d4d4d8" stroke="#f4f4f5"></path><path d="M433 274L360 367L513 331Z" fill="#d4d4d8" stroke="#f4f4f5"></path><path d="M513 331L591 336L576 231Z" fill="#d4d4d8" stroke="#f4f4f5"></path><path d="M335 293L360 367L433 274Z" fill="#d4d4d8" stroke="#f4f4f5"></path><path d="M513 331L592 366L591 336Z" fill="#d4d4d8" stroke="#f4f4f5"></path><path d="M273 76L272 193L404 184Z" fill="#d4d4d8" stroke="#f4f4f5"></path><path d="M335 293L320 394L360 367Z" fill="#d4d4d8" stroke="#f4f4f5"></path><path d="M429 466L536 396L513 331Z" fill="#d4d4d8" stroke="#f4f4f5"></path><path d="M536 396L592 366L513 331Z" fill="#d4d4d8" stroke="#f4f4f5"></path><path d="M570 0L462 0L500 132Z" fill="#d4d4d8" stroke="#f4f4f5"></path><path d="M500 132L462 0L436 112Z" fill="#d4d4d8" stroke="#f4f4f5"></path><path d="M436 112L273 76L404 184Z" fill="#d4d4d8" stroke="#f4f4f5"></path><path d="M673 127L506 173L576 231Z" fill="#d4d4d8" stroke="#f4f4f5"></path><path d="M673 127L613 60L506 173Z" fill="#d4d4d8" stroke="#f4f4f5"></path><path d="M673 127L576 231L700 189Z" fill="#d4d4d8" stroke="#f4f4f5"></path><path d="M462 0L407 0L436 112Z" fill="#d4d4d8" stroke="#f4f4f5"></path><path d="M239 317L320 394L335 293Z" fill="#d4d4d8" stroke="#f4f4f5"></path><path d="M360 367L429 466L513 331Z" fill="#d4d4d8" stroke="#f4f4f5"></path><path d="M700 189L576 231L709 290Z" fill="#d4d4d8" stroke="#f4f4f5"></path><path d="M407 0L273 76L436 112Z" fill="#d4d4d8" stroke="#f4f4f5"></path><path d="M273 76L220 182L272 193Z" fill="#d4d4d8" stroke="#f4f4f5"></path><path d="M272 193L239 317L335 293Z" fill="#d4d4d8" stroke="#f4f4f5"></path><path d="M220 182L239 317L272 193Z" fill="#d4d4d8" stroke="#f4f4f5"></path><path d="M709 290L576 231L591 336Z" fill="#d4d4d8" stroke="#f4f4f5"></path><path d="M714 0L570 0L613 60Z" fill="#d4d4d8" stroke="#f4f4f5"></path><path d="M613 60L570 0L500 132Z" fill="#d4d4d8" stroke="#f4f4f5"></path><path d="M320 394L429 466L360 367Z" fill="#d4d4d8" stroke="#f4f4f5"></path><path d="M696 484L691 388L592 366Z" fill="#d4d4d8" stroke="#f4f4f5"></path><path d="M691 388L709 290L591 336Z" fill="#d4d4d8" stroke="#f4f4f5"></path><path d="M429 466L474 482L536 396Z" fill="#d4d4d8" stroke="#f4f4f5"></path><path d="M592 366L691 388L591 336Z" fill="#d4d4d8" stroke="#f4f4f5"></path><path d="M407 0L292 0L273 76Z" fill="#d4d4d8" stroke="#f4f4f5"></path><path d="M273 76L192 101L220 182Z" fill="#d4d4d8" stroke="#f4f4f5"></path><path d="M569 528L592 366L536 396Z" fill="#d4d4d8" stroke="#f4f4f5"></path><path d="M169 0L192 101L273 76Z" fill="#d4d4d8" stroke="#f4f4f5"></path><path d="M73 364L223 412L239 317Z" fill="#d4d4d8" stroke="#f4f4f5"></path><path d="M239 317L223 412L320 394Z" fill="#d4d4d8" stroke="#f4f4f5"></path><path d="M320 394L262 482L429 466Z" fill="#d4d4d8" stroke="#f4f4f5"></path><path d="M462 600L569 528L474 482Z" fill="#d4d4d8" stroke="#f4f4f5"></path><path d="M133 176L239 317L220 182Z" fill="#d4d4d8" stroke="#f4f4f5"></path><path d="M709 290L767 278L700 189Z" fill="#d4d4d8" stroke="#f4f4f5"></path><path d="M772 68L714 0L673 127Z" fill="#d4d4d8" stroke="#f4f4f5"></path><path d="M784 391L767 278L709 290Z" fill="#d4d4d8" stroke="#f4f4f5"></path><path d="M192 101L133 176L220 182Z" fill="#d4d4d8" stroke="#f4f4f5"></path><path d="M462 600L474 482L429 466Z" fill="#d4d4d8" stroke="#f4f4f5"></path><path d="M474 482L569 528L536 396Z" fill="#d4d4d8" stroke="#f4f4f5"></path><path d="M223 412L262 482L320 394Z" fill="#d4d4d8" stroke="#f4f4f5"></path><path d="M772 68L673 127L700 189Z" fill="#d4d4d8" stroke="#f4f4f5"></path><path d="M673 127L714 0L613 60Z" fill="#d4d4d8" stroke="#f4f4f5"></path><path d="M767 278L803 214L700 189Z" fill="#d4d4d8" stroke="#f4f4f5"></path><path d="M803 214L772 68L700 189Z" fill="#d4d4d8" stroke="#f4f4f5"></path><path d="M73 364L216 475L223 412Z" fill="#d4d4d8" stroke="#f4f4f5"></path><path d="M223 412L216 475L262 482Z" fill="#d4d4d8" stroke="#f4f4f5"></path><path d="M569 528L696 484L592 366Z" fill="#d4d4d8" stroke="#f4f4f5"></path><path d="M691 388L784 391L709 290Z" fill="#d4d4d8" stroke="#f4f4f5"></path><path d="M900 291L900 204L803 214Z" fill="#d4d4d8" stroke="#f4f4f5"></path><path d="M192 101L117 77L133 176Z" fill="#d4d4d8" stroke="#f4f4f5"></path><path d="M292 0L169 0L273 76Z" fill="#d4d4d8" stroke="#f4f4f5"></path><path d="M696 484L784 391L691 388Z" fill="#d4d4d8" stroke="#f4f4f5"></path><path d="M169 0L117 77L192 101Z" fill="#d4d4d8" stroke="#f4f4f5"></path><path d="M383 600L462 600L429 466Z" fill="#d4d4d8" stroke="#f4f4f5"></path><path d="M569 528L578 600L696 484Z" fill="#d4d4d8" stroke="#f4f4f5"></path><path d="M383 600L429 466L262 482Z" fill="#d4d4d8" stroke="#f4f4f5"></path><path d="M290 600L383 600L262 482Z" fill="#d4d4d8" stroke="#f4f4f5"></path><path d="M462 600L578 600L569 528Z" fill="#d4d4d8" stroke="#f4f4f5"></path><path d="M0 204L69 317L133 176Z" fill="#d4d4d8" stroke="#f4f4f5"></path><path d="M133 176L69 317L239 317Z" fill="#d4d4d8" stroke="#f4f4f5"></path><path d="M69 317L73 364L239 317Z" fill="#d4d4d8" stroke="#f4f4f5"></path><path d="M187 600L262 482L216 475Z" fill="#d4d4d8" stroke="#f4f4f5"></path><path d="M187 600L290 600L262 482Z" fill="#d4d4d8" stroke="#f4f4f5"></path><path d="M900 81L839 0L772 68Z" fill="#d4d4d8" stroke="#f4f4f5"></path><path d="M772 68L839 0L714 0Z" fill="#d4d4d8" stroke="#f4f4f5"></path><path d="M900 81L772 68L803 214Z" fill="#d4d4d8" stroke="#f4f4f5"></path><path d="M900 291L803 214L767 278Z" fill="#d4d4d8" stroke="#f4f4f5"></path><path d="M784 391L900 291L767 278Z" fill="#d4d4d8" stroke="#f4f4f5"></path><path d="M900 379L900 291L784 391Z" fill="#d4d4d8" stroke="#f4f4f5"></path><path d="M834 511L784 391L696 484Z" fill="#d4d4d8" stroke="#f4f4f5"></path><path d="M169 0L61 0L117 77Z" fill="#d4d4d8" stroke="#f4f4f5"></path><path d="M0 122L0 204L133 176Z" fill="#d4d4d8" stroke="#f4f4f5"></path><path d="M73 364L128 528L216 475Z" fill="#d4d4d8" stroke="#f4f4f5"></path><path d="M0 122L133 176L117 77Z" fill="#d4d4d8" stroke="#f4f4f5"></path><path d="M69 317L0 336L73 364Z" fill="#d4d4d8" stroke="#f4f4f5"></path><path d="M73 364L0 492L128 528Z" fill="#d4d4d8" stroke="#f4f4f5"></path><path d="M900 204L900 81L803 214Z" fill="#d4d4d8" stroke="#f4f4f5"></path><path d="M578 600L724 600L696 484Z" fill="#d4d4d8" stroke="#f4f4f5"></path><path d="M61 0L0 122L117 77Z" fill="#d4d4d8" stroke="#f4f4f5"></path><path d="M834 511L900 379L784 391Z" fill="#d4d4d8" stroke="#f4f4f5"></path><path d="M128 528L187 600L216 475Z" fill="#d4d4d8" stroke="#f4f4f5"></path><path d="M0 204L0 336L69 317Z" fill="#d4d4d8" stroke="#f4f4f5"></path><path d="M724 600L834 511L696 484Z" fill="#d4d4d8" stroke="#f4f4f5"></path><path d="M0 336L0 377L73 364Z" fill="#d4d4d8" stroke="#f4f4f5"></path><path d="M128 528L139 600L187 600Z" fill="#d4d4d8" stroke="#f4f4f5"></path><path d="M900 81L900 0L839 0Z" fill="#d4d4d8" stroke="#f4f4f5"></path><path d="M0 600L139 600L128 528Z" fill="#d4d4d8" stroke="#f4f4f5"></path><path d="M61 0L0 0L0 122Z" fill="#d4d4d8" stroke="#f4f4f5"></path><path d="M724 600L827 600L834 511Z" fill="#d4d4d8" stroke="#f4f4f5"></path><path d="M834 511L900 517L900 379Z" fill="#d4d4d8" stroke="#f4f4f5"></path><path d="M827 600L900 517L834 511Z" fill="#d4d4d8" stroke="#f4f4f5"></path><path d="M0 377L0 492L73 364Z" fill="#d4d4d8" stroke="#f4f4f5"></path><path d="M827 600L900 600L900 517Z" fill="#d4d4d8" stroke="#f4f4f5"></path><path d="M0 492L0 600L128 528Z" fill="#d4d4d8" stroke="#f4f4f5"></path></g></svg>