<svg id="visual" viewBox="0 0 900 600" width="900" height="600" xmlns="http://www.w3.org/2000/svg" xmlns:xlink="http://www.w3.org/1999/xlink" version="1.1"><g stroke-width="1" stroke-linejoin="bevel"><path d="M433 319L477 400L481 337Z" fill="#eab308" stroke="#fde047"></path><path d="M433 319L404 425L477 400Z" fill="#eab308" stroke="#fde047"></path><path d="M433 319L333 374L404 425Z" fill="#eab308" stroke="#fde047"></path><path d="M272 464L415 477L404 425Z" fill="#eab308" stroke="#fde047"></path><path d="M404 425L415 477L477 400Z" fill="#eab308" stroke="#fde047"></path><path d="M528 520L567 372L477 400Z" fill="#eab308" stroke="#fde047"></path><path d="M477 400L567 372L481 337Z" fill="#eab308" stroke="#fde047"></path><path d="M433 319L330 300L333 374Z" fill="#eab308" stroke="#fde047"></path><path d="M567 372L568 278L481 337Z" fill="#eab308" stroke="#fde047"></path><path d="M481 337L568 278L433 319Z" fill="#eab308" stroke="#fde047"></path><path d="M433 319L370 199L330 300Z" fill="#eab308" stroke="#fde047"></path><path d="M415 477L528 520L477 400Z" fill="#eab308" stroke="#fde047"></path><path d="M524 169L370 199L433 319Z" fill="#eab308" stroke="#fde047"></path><path d="M370 199L311 222L330 300Z" fill="#eab308" stroke="#fde047"></path><path d="M175 413L272 464L333 374Z" fill="#eab308" stroke="#fde047"></path><path d="M186 327L333 374L330 300Z" fill="#eab308" stroke="#fde047"></path><path d="M333 374L272 464L404 425Z" fill="#eab308" stroke="#fde047"></path><path d="M415 477L426 600L528 520Z" fill="#eab308" stroke="#fde047"></path><path d="M568 278L524 169L433 319Z" fill="#eab308" stroke="#fde047"></path><path d="M528 520L616 515L567 372Z" fill="#eab308" stroke="#fde047"></path><path d="M567 372L700 362L568 278Z" fill="#eab308" stroke="#fde047"></path><path d="M333 600L426 600L415 477Z" fill="#eab308" stroke="#fde047"></path><path d="M528 520L585 600L616 515Z" fill="#eab308" stroke="#fde047"></path><path d="M616 515L673 460L567 372Z" fill="#eab308" stroke="#fde047"></path><path d="M568 278L634 188L524 169Z" fill="#eab308" stroke="#fde047"></path><path d="M426 600L536 600L528 520Z" fill="#eab308" stroke="#fde047"></path><path d="M616 515L677 600L673 460Z" fill="#eab308" stroke="#fde047"></path><path d="M673 460L700 362L567 372Z" fill="#eab308" stroke="#fde047"></path><path d="M272 464L333 600L415 477Z" fill="#eab308" stroke="#fde047"></path><path d="M311 222L186 327L330 300Z" fill="#eab308" stroke="#fde047"></path><path d="M272 464L223 526L333 600Z" fill="#eab308" stroke="#fde047"></path><path d="M686 230L634 188L568 278Z" fill="#eab308" stroke="#fde047"></path><path d="M370 199L333 124L311 222Z" fill="#eab308" stroke="#fde047"></path><path d="M311 222L191 163L186 327Z" fill="#eab308" stroke="#fde047"></path><path d="M373 97L333 124L370 199Z" fill="#eab308" stroke="#fde047"></path><path d="M469 98L370 199L524 169Z" fill="#eab308" stroke="#fde047"></path><path d="M588 75L469 98L524 169Z" fill="#eab308" stroke="#fde047"></path><path d="M175 413L223 526L272 464Z" fill="#eab308" stroke="#fde047"></path><path d="M186 327L175 413L333 374Z" fill="#eab308" stroke="#fde047"></path><path d="M536 600L585 600L528 520Z" fill="#eab308" stroke="#fde047"></path><path d="M469 98L373 97L370 199Z" fill="#eab308" stroke="#fde047"></path><path d="M700 362L686 230L568 278Z" fill="#eab308" stroke="#fde047"></path><path d="M799 308L739 285L700 362Z" fill="#eab308" stroke="#fde047"></path><path d="M700 362L739 285L686 230Z" fill="#eab308" stroke="#fde047"></path><path d="M220 62L191 163L333 124Z" fill="#eab308" stroke="#fde047"></path><path d="M333 124L191 163L311 222Z" fill="#eab308" stroke="#fde047"></path><path d="M64 406L132 475L175 413Z" fill="#eab308" stroke="#fde047"></path><path d="M634 188L588 75L524 169Z" fill="#eab308" stroke="#fde047"></path><path d="M469 98L422 0L373 97Z" fill="#eab308" stroke="#fde047"></path><path d="M738 139L588 75L634 188Z" fill="#eab308" stroke="#fde047"></path><path d="M738 139L634 188L686 230Z" fill="#eab308" stroke="#fde047"></path><path d="M64 406L175 413L186 327Z" fill="#eab308" stroke="#fde047"></path><path d="M175 413L132 475L223 526Z" fill="#eab308" stroke="#fde047"></path><path d="M223 526L199 600L333 600Z" fill="#eab308" stroke="#fde047"></path><path d="M585 600L677 600L616 515Z" fill="#eab308" stroke="#fde047"></path><path d="M832 383L799 308L700 362Z" fill="#eab308" stroke="#fde047"></path><path d="M132 475L199 600L223 526Z" fill="#eab308" stroke="#fde047"></path><path d="M191 163L114 281L186 327Z" fill="#eab308" stroke="#fde047"></path><path d="M832 383L700 362L824 466Z" fill="#eab308" stroke="#fde047"></path><path d="M812 165L738 139L686 230Z" fill="#eab308" stroke="#fde047"></path><path d="M515 0L422 0L469 98Z" fill="#eab308" stroke="#fde047"></path><path d="M277 0L220 62L333 124Z" fill="#eab308" stroke="#fde047"></path><path d="M812 165L686 230L739 285Z" fill="#eab308" stroke="#fde047"></path><path d="M588 75L515 0L469 98Z" fill="#eab308" stroke="#fde047"></path><path d="M588 0L515 0L588 75Z" fill="#eab308" stroke="#fde047"></path><path d="M277 0L333 124L373 97Z" fill="#eab308" stroke="#fde047"></path><path d="M191 163L110 168L114 281Z" fill="#eab308" stroke="#fde047"></path><path d="M114 281L64 406L186 327Z" fill="#eab308" stroke="#fde047"></path><path d="M132 475L86 600L199 600Z" fill="#eab308" stroke="#fde047"></path><path d="M124 116L110 168L191 163Z" fill="#eab308" stroke="#fde047"></path><path d="M0 329L0 371L64 406Z" fill="#eab308" stroke="#fde047"></path><path d="M824 466L700 362L673 460Z" fill="#eab308" stroke="#fde047"></path><path d="M799 308L812 165L739 285Z" fill="#eab308" stroke="#fde047"></path><path d="M692 0L588 0L588 75Z" fill="#eab308" stroke="#fde047"></path><path d="M677 600L824 466L673 460Z" fill="#eab308" stroke="#fde047"></path><path d="M422 0L277 0L373 97Z" fill="#eab308" stroke="#fde047"></path><path d="M220 62L124 116L191 163Z" fill="#eab308" stroke="#fde047"></path><path d="M117 0L124 116L220 62Z" fill="#eab308" stroke="#fde047"></path><path d="M900 281L812 165L799 308Z" fill="#eab308" stroke="#fde047"></path><path d="M738 139L692 0L588 75Z" fill="#eab308" stroke="#fde047"></path><path d="M0 477L86 600L132 475Z" fill="#eab308" stroke="#fde047"></path><path d="M812 165L783 103L738 139Z" fill="#eab308" stroke="#fde047"></path><path d="M0 329L64 406L114 281Z" fill="#eab308" stroke="#fde047"></path><path d="M64 406L0 477L132 475Z" fill="#eab308" stroke="#fde047"></path><path d="M0 329L114 281L0 208Z" fill="#eab308" stroke="#fde047"></path><path d="M783 103L692 0L738 139Z" fill="#eab308" stroke="#fde047"></path><path d="M277 0L192 0L220 62Z" fill="#eab308" stroke="#fde047"></path><path d="M0 208L114 281L110 168Z" fill="#eab308" stroke="#fde047"></path><path d="M0 371L0 477L64 406Z" fill="#eab308" stroke="#fde047"></path><path d="M824 466L900 381L832 383Z" fill="#eab308" stroke="#fde047"></path><path d="M832 383L900 281L799 308Z" fill="#eab308" stroke="#fde047"></path><path d="M677 600L837 600L824 466Z" fill="#eab308" stroke="#fde047"></path><path d="M824 466L900 515L900 381Z" fill="#eab308" stroke="#fde047"></path><path d="M900 381L900 281L832 383Z" fill="#eab308" stroke="#fde047"></path><path d="M812 165L900 108L783 103Z" fill="#eab308" stroke="#fde047"></path><path d="M0 63L110 168L124 116Z" fill="#eab308" stroke="#fde047"></path><path d="M0 63L0 208L110 168Z" fill="#eab308" stroke="#fde047"></path><path d="M837 600L900 515L824 466Z" fill="#eab308" stroke="#fde047"></path><path d="M192 0L117 0L220 62Z" fill="#eab308" stroke="#fde047"></path><path d="M900 281L900 190L812 165Z" fill="#eab308" stroke="#fde047"></path><path d="M783 103L808 0L692 0Z" fill="#eab308" stroke="#fde047"></path><path d="M0 477L0 600L86 600Z" fill="#eab308" stroke="#fde047"></path><path d="M837 600L900 600L900 515Z" fill="#eab308" stroke="#fde047"></path><path d="M900 108L808 0L783 103Z" fill="#eab308" stroke="#fde047"></path><path d="M900 190L900 108L812 165Z" fill="#eab308" stroke="#fde047"></path><path d="M117 0L0 63L124 116Z" fill="#eab308" stroke="#fde047"></path><path d="M117 0L0 0L0 63Z" fill="#eab308" stroke="#fde047"></path><path d="M900 108L900 0L808 0Z" fill="#eab308" stroke="#fde047"></path></g></svg>