<svg id="visual" viewBox="0 0 900 600" width="900" height="600" xmlns="http://www.w3.org/2000/svg" xmlns:xlink="http://www.w3.org/1999/xlink" version="1.1"><rect x="0" y="0" width="900" height="600" fill="#f472b6"></rect><path d="M0 376L21.5 363.7C43 351.3 86 326.7 128.8 311.2C171.7 295.7 214.3 289.3 257.2 293.2C300 297 343 311 385.8 329.2C428.7 347.3 471.3 369.7 514.2 367.2C557 364.7 600 337.3 642.8 323.3C685.7 309.3 728.3 308.7 771.2 315.3C814 322 857 336 878.5 343L900 350L900 601L878.5 601C857 601 814 601 771.2 601C728.3 601 685.7 601 642.8 601C600 601 557 601 514.2 601C471.3 601 428.7 601 385.8 601C343 601 300 601 257.2 601C214.3 601 171.7 601 128.8 601C86 601 43 601 21.5 601L0 601Z" fill="#f9a8d4"></path><path d="M0 366L21.5 382.7C43 399.3 86 432.7 128.8 438.3C171.7 444 214.3 422 257.2 407.8C300 393.7 343 387.3 385.8 384.5C428.7 381.7 471.3 382.3 514.2 392.5C557 402.7 600 422.3 642.8 423.8C685.7 425.3 728.3 408.7 771.2 400.3C814 392 857 392 878.5 392L900 392L900 601L878.5 601C857 601 814 601 771.2 601C728.3 601 685.7 601 642.8 601C600 601 557 601 514.2 601C471.3 601 428.7 601 385.8 601C343 601 300 601 257.2 601C214.3 601 171.7 601 128.8 601C86 601 43 601 21.5 601L0 601Z" fill="#fbcfe8"></path><path d="M0 485L21.5 486.2C43 487.3 86 489.7 128.8 487.2C171.7 484.7 214.3 477.3 257.2 480C300 482.7 343 495.3 385.8 493.8C428.7 492.3 471.3 476.7 514.2 470.3C557 464 600 467 642.8 466.7C685.7 466.3 728.3 462.7 771.2 467.2C814 471.7 857 484.3 878.5 490.7L900 497L900 601L878.5 601C857 601 814 601 771.2 601C728.3 601 685.7 601 642.8 601C600 601 557 601 514.2 601C471.3 601 428.7 601 385.8 601C343 601 300 601 257.2 601C214.3 601 171.7 601 128.8 601C86 601 43 601 21.5 601L0 601Z" fill="#fce7f3"></path></svg>