<svg id="visual" viewBox="0 0 900 600" width="900" height="600" xmlns="http://www.w3.org/2000/svg" xmlns:xlink="http://www.w3.org/1999/xlink" version="1.1"><rect x="0" y="0" width="900" height="600" fill="#404040"></rect><path d="M0 346L21.5 348.5C43 351 86 356 128.8 352.5C171.7 349 214.3 337 257.2 329.3C300 321.7 343 318.3 385.8 323.8C428.7 329.3 471.3 343.7 514.2 351C557 358.3 600 358.7 642.8 346.2C685.7 333.7 728.3 308.3 771.2 302.3C814 296.3 857 309.7 878.5 316.3L900 323L900 601L878.5 601C857 601 814 601 771.2 601C728.3 601 685.7 601 642.8 601C600 601 557 601 514.2 601C471.3 601 428.7 601 385.8 601C343 601 300 601 257.2 601C214.3 601 171.7 601 128.8 601C86 601 43 601 21.5 601L0 601Z" fill="#525252"></path><path d="M0 399L21.5 398.5C43 398 86 397 128.8 407.5C171.7 418 214.3 440 257.2 442.2C300 444.3 343 426.7 385.8 418C428.7 409.3 471.3 409.7 514.2 406.2C557 402.7 600 395.3 642.8 395.2C685.7 395 728.3 402 771.2 406.3C814 410.7 857 412.3 878.5 413.2L900 414L900 601L878.5 601C857 601 814 601 771.2 601C728.3 601 685.7 601 642.8 601C600 601 557 601 514.2 601C471.3 601 428.7 601 385.8 601C343 601 300 601 257.2 601C214.3 601 171.7 601 128.8 601C86 601 43 601 21.5 601L0 601Z" fill="#737373"></path><path d="M0 459L21.5 469.8C43 480.7 86 502.3 128.8 512.5C171.7 522.7 214.3 521.3 257.2 513C300 504.7 343 489.3 385.8 487.8C428.7 486.3 471.3 498.7 514.2 505.2C557 511.7 600 512.3 642.8 511.5C685.7 510.7 728.3 508.3 771.2 498.3C814 488.3 857 470.7 878.5 461.8L900 453L900 601L878.5 601C857 601 814 601 771.2 601C728.3 601 685.7 601 642.8 601C600 601 557 601 514.2 601C471.3 601 428.7 601 385.8 601C343 601 300 601 257.2 601C214.3 601 171.7 601 128.8 601C86 601 43 601 21.5 601L0 601Z" fill="#a3a3a3"></path></svg>