<svg id="visual" viewBox="0 0 900 600" width="900" height="600" xmlns="http://www.w3.org/2000/svg" xmlns:xlink="http://www.w3.org/1999/xlink" version="1.1"><rect x="0" y="0" width="900" height="600" fill="#fb923c"></rect><path d="M0 406L21.5 385.3C43 364.7 86 323.3 128.8 313.7C171.7 304 214.3 326 257.2 334C300 342 343 336 385.8 339C428.7 342 471.3 354 514.2 360.7C557 367.3 600 368.7 642.8 359.3C685.7 350 728.3 330 771.2 323.5C814 317 857 324 878.5 327.5L900 331L900 601L878.5 601C857 601 814 601 771.2 601C728.3 601 685.7 601 642.8 601C600 601 557 601 514.2 601C471.3 601 428.7 601 385.8 601C343 601 300 601 257.2 601C214.3 601 171.7 601 128.8 601C86 601 43 601 21.5 601L0 601Z" fill="#f97316"></path><path d="M0 439L21.5 433C43 427 86 415 128.8 404.7C171.7 394.3 214.3 385.7 257.2 386.8C300 388 343 399 385.8 410C428.7 421 471.3 432 514.2 433.8C557 435.7 600 428.3 642.8 417.2C685.7 406 728.3 391 771.2 392.5C814 394 857 412 878.5 421L900 430L900 601L878.5 601C857 601 814 601 771.2 601C728.3 601 685.7 601 642.8 601C600 601 557 601 514.2 601C471.3 601 428.7 601 385.8 601C343 601 300 601 257.2 601C214.3 601 171.7 601 128.8 601C86 601 43 601 21.5 601L0 601Z" fill="#ea580c"></path><path d="M0 527L21.5 527.8C43 528.7 86 530.3 128.8 526.8C171.7 523.3 214.3 514.7 257.2 513.8C300 513 343 520 385.8 520.5C428.7 521 471.3 515 514.2 515.7C557 516.3 600 523.7 642.8 526.7C685.7 529.7 728.3 528.3 771.2 521C814 513.7 857 500.3 878.5 493.7L900 487L900 601L878.5 601C857 601 814 601 771.2 601C728.3 601 685.7 601 642.8 601C600 601 557 601 514.2 601C471.3 601 428.7 601 385.8 601C343 601 300 601 257.2 601C214.3 601 171.7 601 128.8 601C86 601 43 601 21.5 601L0 601Z" fill="#c2410c"></path></svg>