<svg id="visual" viewBox="0 0 900 600" width="900" height="600" xmlns="http://www.w3.org/2000/svg" xmlns:xlink="http://www.w3.org/1999/xlink" version="1.1"><rect x="0" y="0" width="900" height="600" fill="#92400e"></rect><path d="M0 296L21.5 312.8C43 329.7 86 363.3 128.8 371.8C171.7 380.3 214.3 363.7 257.2 348.8C300 334 343 321 385.8 311C428.7 301 471.3 294 514.2 306.3C557 318.7 600 350.3 642.8 351.3C685.7 352.3 728.3 322.7 771.2 320.8C814 319 857 345 878.5 358L900 371L900 601L878.5 601C857 601 814 601 771.2 601C728.3 601 685.7 601 642.8 601C600 601 557 601 514.2 601C471.3 601 428.7 601 385.8 601C343 601 300 601 257.2 601C214.3 601 171.7 601 128.8 601C86 601 43 601 21.5 601L0 601Z" fill="#78350f"></path><path d="M0 440L21.5 442C43 444 86 448 128.8 453.7C171.7 459.3 214.3 466.7 257.2 464.8C300 463 343 452 385.8 445.8C428.7 439.7 471.3 438.3 514.2 442.7C557 447 600 457 642.8 459C685.7 461 728.3 455 771.2 450C814 445 857 441 878.5 439L900 437L900 601L878.5 601C857 601 814 601 771.2 601C728.3 601 685.7 601 642.8 601C600 601 557 601 514.2 601C471.3 601 428.7 601 385.8 601C343 601 300 601 257.2 601C214.3 601 171.7 601 128.8 601C86 601 43 601 21.5 601L0 601Z" fill="#451a03"></path><path d="M0 453L21.5 460.8C43 468.7 86 484.3 128.8 497.7C171.7 511 214.3 522 257.2 526.7C300 531.3 343 529.7 385.8 518.3C428.7 507 471.3 486 514.2 482.8C557 479.7 600 494.3 642.8 500.2C685.7 506 728.3 503 771.2 497.7C814 492.3 857 484.7 878.5 480.8L900 477L900 601L878.5 601C857 601 814 601 771.2 601C728.3 601 685.7 601 642.8 601C600 601 557 601 514.2 601C471.3 601 428.7 601 385.8 601C343 601 300 601 257.2 601C214.3 601 171.7 601 128.8 601C86 601 43 601 21.5 601L0 601Z" fill="#2e1003"></path></svg>