<svg id="visual" viewBox="0 0 900 600" width="900" height="600" xmlns="http://www.w3.org/2000/svg" xmlns:xlink="http://www.w3.org/1999/xlink" version="1.1"><rect x="0" y="0" width="900" height="600" fill="#713f12"></rect><path d="M0 378L21.5 371.5C43 365 86 352 128.8 338.7C171.7 325.3 214.3 311.7 257.2 318.7C300 325.7 343 353.3 385.8 360.8C428.7 368.3 471.3 355.7 514.2 340C557 324.3 600 305.7 642.8 299.7C685.7 293.7 728.3 300.3 771.2 314C814 327.7 857 348.3 878.5 358.7L900 369L900 601L878.5 601C857 601 814 601 771.2 601C728.3 601 685.7 601 642.8 601C600 601 557 601 514.2 601C471.3 601 428.7 601 385.8 601C343 601 300 601 257.2 601C214.3 601 171.7 601 128.8 601C86 601 43 601 21.5 601L0 601Z" fill="#422006"></path><path d="M0 462L21.5 461.3C43 460.7 86 459.3 128.8 444.5C171.7 429.7 214.3 401.3 257.2 386.5C300 371.7 343 370.3 385.8 384.2C428.7 398 471.3 427 514.2 444.7C557 462.3 600 468.7 642.8 456.5C685.7 444.3 728.3 413.7 771.2 395.5C814 377.3 857 371.7 878.5 368.8L900 366L900 601L878.5 601C857 601 814 601 771.2 601C728.3 601 685.7 601 642.8 601C600 601 557 601 514.2 601C471.3 601 428.7 601 385.8 601C343 601 300 601 257.2 601C214.3 601 171.7 601 128.8 601C86 601 43 601 21.5 601L0 601Z" fill="#2d1b06"></path><path d="M0 527L21.5 518.7C43 510.3 86 493.7 128.8 492.8C171.7 492 214.3 507 257.2 505.7C300 504.3 343 486.7 385.8 485.5C428.7 484.3 471.3 499.7 514.2 499.2C557 498.7 600 482.3 642.8 479.5C685.7 476.7 728.3 487.3 771.2 489.2C814 491 857 484 878.5 480.5L900 477L900 601L878.5 601C857 601 814 601 771.2 601C728.3 601 685.7 601 642.8 601C600 601 557 601 514.2 601C471.3 601 428.7 601 385.8 601C343 601 300 601 257.2 601C214.3 601 171.7 601 128.8 601C86 601 43 601 21.5 601L0 601Z" fill="#1e1404"></path></svg>