<svg id="visual" viewBox="0 0 900 600" width="900" height="600" xmlns="http://www.w3.org/2000/svg" xmlns:xlink="http://www.w3.org/1999/xlink" version="1.1"><rect x="0" y="0" width="900" height="600" fill="#059669"></rect><path d="M0 294L21.5 303.5C43 313 86 332 128.8 334.7C171.7 337.3 214.3 323.7 257.2 321.5C300 319.3 343 328.7 385.8 344.2C428.7 359.7 471.3 381.3 514.2 383C557 384.7 600 366.3 642.8 355C685.7 343.7 728.3 339.3 771.2 328.5C814 317.7 857 300.3 878.5 291.7L900 283L900 601L878.5 601C857 601 814 601 771.2 601C728.3 601 685.7 601 642.8 601C600 601 557 601 514.2 601C471.3 601 428.7 601 385.8 601C343 601 300 601 257.2 601C214.3 601 171.7 601 128.8 601C86 601 43 601 21.5 601L0 601Z" fill="#10b981"></path><path d="M0 466L21.5 454.7C43 443.3 86 420.7 128.8 416.7C171.7 412.7 214.3 427.3 257.2 422.8C300 418.3 343 394.7 385.8 387C428.7 379.3 471.3 387.7 514.2 402.8C557 418 600 440 642.8 435.8C685.7 431.7 728.3 401.3 771.2 392.3C814 383.3 857 395.7 878.5 401.8L900 408L900 601L878.5 601C857 601 814 601 771.2 601C728.3 601 685.7 601 642.8 601C600 601 557 601 514.2 601C471.3 601 428.7 601 385.8 601C343 601 300 601 257.2 601C214.3 601 171.7 601 128.8 601C86 601 43 601 21.5 601L0 601Z" fill="#34d399"></path><path d="M0 458L21.5 459.5C43 461 86 464 128.8 465C171.7 466 214.3 465 257.2 469.8C300 474.7 343 485.3 385.8 495.7C428.7 506 471.3 516 514.2 512.8C557 509.7 600 493.3 642.8 488.2C685.7 483 728.3 489 771.2 490C814 491 857 487 878.5 485L900 483L900 601L878.5 601C857 601 814 601 771.2 601C728.3 601 685.7 601 642.8 601C600 601 557 601 514.2 601C471.3 601 428.7 601 385.8 601C343 601 300 601 257.2 601C214.3 601 171.7 601 128.8 601C86 601 43 601 21.5 601L0 601Z" fill="#6ee7b7"></path></svg>