<svg id="visual" viewBox="0 0 900 600" width="900" height="600" xmlns="http://www.w3.org/2000/svg" xmlns:xlink="http://www.w3.org/1999/xlink" version="1.1"><rect x="0" y="0" width="900" height="600" fill="#0f1e3a"></rect><path d="M0 330L21.5 328.5C43 327 86 324 128.8 321.7C171.7 319.3 214.3 317.7 257.2 325.5C300 333.3 343 350.7 385.8 360.2C428.7 369.7 471.3 371.3 514.2 372.7C557 374 600 375 642.8 360.7C685.7 346.3 728.3 316.7 771.2 308.2C814 299.7 857 312.3 878.5 318.7L900 325L900 601L878.5 601C857 601 814 601 771.2 601C728.3 601 685.7 601 642.8 601C600 601 557 601 514.2 601C471.3 601 428.7 601 385.8 601C343 601 300 601 257.2 601C214.3 601 171.7 601 128.8 601C86 601 43 601 21.5 601L0 601Z" fill="#172554"></path><path d="M0 396L21.5 396.2C43 396.3 86 396.7 128.8 406C171.7 415.3 214.3 433.7 257.2 446.7C300 459.7 343 467.3 385.8 467.7C428.7 468 471.3 461 514.2 446.3C557 431.7 600 409.3 642.8 399.2C685.7 389 728.3 391 771.2 389.8C814 388.7 857 384.3 878.5 382.2L900 380L900 601L878.5 601C857 601 814 601 771.2 601C728.3 601 685.7 601 642.8 601C600 601 557 601 514.2 601C471.3 601 428.7 601 385.8 601C343 601 300 601 257.2 601C214.3 601 171.7 601 128.8 601C86 601 43 601 21.5 601L0 601Z" fill="#1e3a8a"></path><path d="M0 463L21.5 463.3C43 463.7 86 464.3 128.8 474.8C171.7 485.3 214.3 505.7 257.2 510.7C300 515.7 343 505.3 385.8 498.7C428.7 492 471.3 489 514.2 495.2C557 501.3 600 516.7 642.8 513.8C685.7 511 728.3 490 771.2 484.7C814 479.3 857 489.7 878.5 494.8L900 500L900 601L878.5 601C857 601 814 601 771.2 601C728.3 601 685.7 601 642.8 601C600 601 557 601 514.2 601C471.3 601 428.7 601 385.8 601C343 601 300 601 257.2 601C214.3 601 171.7 601 128.8 601C86 601 43 601 21.5 601L0 601Z" fill="#1e40af"></path></svg>