<svg id="visual" viewBox="0 0 900 600" width="900" height="600" xmlns="http://www.w3.org/2000/svg" xmlns:xlink="http://www.w3.org/1999/xlink" version="1.1"><rect x="0" y="0" width="900" height="600" fill="#134e4a"></rect><path d="M0 292L21.5 292.5C43 293 86 294 128.8 299.3C171.7 304.7 214.3 314.3 257.2 326.3C300 338.3 343 352.7 385.8 351.3C428.7 350 471.3 333 514.2 330.8C557 328.7 600 341.3 642.8 352C685.7 362.7 728.3 371.3 771.2 366.5C814 361.7 857 343.3 878.5 334.2L900 325L900 601L878.5 601C857 601 814 601 771.2 601C728.3 601 685.7 601 642.8 601C600 601 557 601 514.2 601C471.3 601 428.7 601 385.8 601C343 601 300 601 257.2 601C214.3 601 171.7 601 128.8 601C86 601 43 601 21.5 601L0 601Z" fill="#042f2e"></path><path d="M0 388L21.5 399.2C43 410.3 86 432.7 128.8 445.3C171.7 458 214.3 461 257.2 457C300 453 343 442 385.8 442.5C428.7 443 471.3 455 514.2 453.5C557 452 600 437 642.8 433.3C685.7 429.7 728.3 437.3 771.2 431.3C814 425.3 857 405.7 878.5 395.8L900 386L900 601L878.5 601C857 601 814 601 771.2 601C728.3 601 685.7 601 642.8 601C600 601 557 601 514.2 601C471.3 601 428.7 601 385.8 601C343 601 300 601 257.2 601C214.3 601 171.7 601 128.8 601C86 601 43 601 21.5 601L0 601Z" fill="#03221f"></path><path d="M0 453L21.5 460C43 467 86 481 128.8 489.8C171.7 498.7 214.3 502.3 257.2 497.3C300 492.3 343 478.7 385.8 479.7C428.7 480.7 471.3 496.3 514.2 499.7C557 503 600 494 642.8 497C685.7 500 728.3 515 771.2 515.8C814 516.7 857 503.3 878.5 496.7L900 490L900 601L878.5 601C857 601 814 601 771.2 601C728.3 601 685.7 601 642.8 601C600 601 557 601 514.2 601C471.3 601 428.7 601 385.8 601C343 601 300 601 257.2 601C214.3 601 171.7 601 128.8 601C86 601 43 601 21.5 601L0 601Z" fill="#021b16"></path></svg>