<svg id="visual" viewBox="0 0 900 600" width="900" height="600" xmlns="http://www.w3.org/2000/svg" xmlns:xlink="http://www.w3.org/1999/xlink" version="1.1"><rect x="0" y="0" width="900" height="600" fill="#7c2d12"></rect><path d="M0 383L21.5 372.2C43 361.3 86 339.7 128.8 337C171.7 334.3 214.3 350.7 257.2 364C300 377.3 343 387.7 385.8 382.5C428.7 377.3 471.3 356.7 514.2 358.2C557 359.7 600 383.3 642.8 386.3C685.7 389.3 728.3 371.7 771.2 353.5C814 335.3 857 316.7 878.5 307.3L900 298L900 601L878.5 601C857 601 814 601 771.2 601C728.3 601 685.7 601 642.8 601C600 601 557 601 514.2 601C471.3 601 428.7 601 385.8 601C343 601 300 601 257.2 601C214.3 601 171.7 601 128.8 601C86 601 43 601 21.5 601L0 601Z" fill="#9a3412"></path><path d="M0 411L21.5 404.7C43 398.3 86 385.7 128.8 381C171.7 376.3 214.3 379.7 257.2 381.2C300 382.7 343 382.3 385.8 385.2C428.7 388 471.3 394 514.2 403C557 412 600 424 642.8 435.3C685.7 446.7 728.3 457.3 771.2 457C814 456.7 857 445.3 878.5 439.7L900 434L900 601L878.5 601C857 601 814 601 771.2 601C728.3 601 685.7 601 642.8 601C600 601 557 601 514.2 601C471.3 601 428.7 601 385.8 601C343 601 300 601 257.2 601C214.3 601 171.7 601 128.8 601C86 601 43 601 21.5 601L0 601Z" fill="#c2410c"></path><path d="M0 474L21.5 472.2C43 470.3 86 466.7 128.8 469.5C171.7 472.3 214.3 481.7 257.2 481C300 480.3 343 469.7 385.8 475C428.7 480.3 471.3 501.7 514.2 511.5C557 521.3 600 519.7 642.8 511C685.7 502.3 728.3 486.7 771.2 481.7C814 476.7 857 482.3 878.5 485.2L900 488L900 601L878.5 601C857 601 814 601 771.2 601C728.3 601 685.7 601 642.8 601C600 601 557 601 514.2 601C471.3 601 428.7 601 385.8 601C343 601 300 601 257.2 601C214.3 601 171.7 601 128.8 601C86 601 43 601 21.5 601L0 601Z" fill="#ea580c"></path></svg>