<svg id="visual" viewBox="0 0 960 540" width="960" height="540" xmlns="http://www.w3.org/2000/svg" xmlns:xlink="http://www.w3.org/1999/xlink" version="1.1"><rect width="960" height="540" fill="#001220"></rect><g><g transform="translate(111 211)"><path d="M0 -92.7L80.3 -46.3L80.3 46.3L0 92.7L-80.3 46.3L-80.3 -46.3Z" fill="none" stroke="#003772" stroke-width="2"></path></g><g transform="translate(952 234)"><path d="M0 -87L75.3 -43.5L75.3 43.5L0 87L-75.3 43.5L-75.3 -43.5Z" fill="none" stroke="#003772" stroke-width="2"></path></g><g transform="translate(658 441)"><path d="M0 -89L77.1 -44.5L77.1 44.5L0 89L-77.1 44.5L-77.1 -44.5Z" fill="none" stroke="#003772" stroke-width="2"></path></g><g transform="translate(493 206)"><path d="M0 -25L21.7 -12.5L21.7 12.5L0 25L-21.7 12.5L-21.7 -12.5Z" fill="none" stroke="#003772" stroke-width="2"></path></g><g transform="translate(909 49)"><path d="M0 -48L41.6 -24L41.6 24L0 48L-41.6 24L-41.6 -24Z" fill="none" stroke="#003772" stroke-width="2"></path></g><g transform="translate(721 83)"><path d="M0 -34L29.4 -17L29.4 17L0 34L-29.4 17L-29.4 -17Z" fill="none" stroke="#003772" stroke-width="2"></path></g><g transform="translate(189 415)"><path d="M0 -53L45.9 -26.5L45.9 26.5L0 53L-45.9 26.5L-45.9 -26.5Z" stroke="#003772" fill="none" stroke-width="2"></path></g><g transform="translate(469 516)"><path d="M0 -42L36.4 -21L36.4 21L0 42L-36.4 21L-36.4 -21Z" stroke="#003772" fill="none" stroke-width="2"></path></g><g transform="translate(311 12)"><path d="M0 -66L57.2 -33L57.2 33L0 66L-57.2 33L-57.2 -33Z" stroke="#003772" fill="none" stroke-width="2"></path></g><g transform="translate(874 425)"><path d="M0 -51L44.2 -25.5L44.2 25.5L0 51L-44.2 25.5L-44.2 -25.5Z" stroke="#003772" fill="none" stroke-width="2"></path></g><g transform="translate(299 229)"><path d="M0 -21L18.2 -10.5L18.2 10.5L0 21L-18.2 10.5L-18.2 -10.5Z" stroke="#003772" fill="none" stroke-width="2"></path></g><g transform="translate(29 26)"><path d="M0 -57L49.4 -28.5L49.4 28.5L0 57L-49.4 28.5L-49.4 -28.5Z" stroke="#003772" fill="none" stroke-width="2"></path></g><g transform="translate(12 502)"><path d="M0 -61L52.8 -30.5L52.8 30.5L0 61L-52.8 30.5L-52.8 -30.5Z" stroke="#003772" fill="none" stroke-width="2"></path></g><g transform="translate(501 15)"><path d="M0 -89L77.1 -44.5L77.1 44.5L0 89L-77.1 44.5L-77.1 -44.5Z" stroke="#003772" fill="none" stroke-width="2"></path></g></g></svg>