<svg id="visual" viewBox="0 0 960 540" width="960" height="540" xmlns="http://www.w3.org/2000/svg" xmlns:xlink="http://www.w3.org/1999/xlink" version="1.1"><rect width="960" height="540" fill="#001220"></rect><g><g transform="translate(833 321)"><path d="M0 -92.7L80.3 -46.3L80.3 46.3L0 92.7L-80.3 46.3L-80.3 -46.3Z" fill="none" stroke="#003772" stroke-width="2"></path></g><g transform="translate(890 93)"><path d="M0 -45L39 -22.5L39 22.5L0 45L-39 22.5L-39 -22.5Z" fill="none" stroke="#003772" stroke-width="2"></path></g><g transform="translate(90 136)"><path d="M0 -28L24.2 -14L24.2 14L0 28L-24.2 14L-24.2 -14Z" fill="none" stroke="#003772" stroke-width="2"></path></g><g transform="translate(409 405)"><path d="M0 -24L20.8 -12L20.8 12L0 24L-20.8 12L-20.8 -12Z" fill="none" stroke="#003772" stroke-width="2"></path></g><g transform="translate(208 463)"><path d="M0 -79L68.4 -39.5L68.4 39.5L0 79L-68.4 39.5L-68.4 -39.5Z" fill="none" stroke="#003772" stroke-width="2"></path></g><g transform="translate(303 131)"><path d="M0 -73L63.2 -36.5L63.2 36.5L0 73L-63.2 36.5L-63.2 -36.5Z" fill="none" stroke="#003772" stroke-width="2"></path></g><g transform="translate(634 200)"><path d="M0 -12L10.4 -6L10.4 6L0 12L-10.4 6L-10.4 -6Z" stroke="#003772" fill="none" stroke-width="2"></path></g><g transform="translate(697 488)"><path d="M0 -86L74.5 -43L74.5 43L0 86L-74.5 43L-74.5 -43Z" stroke="#003772" fill="none" stroke-width="2"></path></g><g transform="translate(4 353)"><path d="M0 -67L58 -33.5L58 33.5L0 67L-58 33.5L-58 -33.5Z" stroke="#003772" fill="none" stroke-width="2"></path></g><g transform="translate(904 499)"><path d="M0 -62L53.7 -31L53.7 31L0 62L-53.7 31L-53.7 -31Z" stroke="#003772" fill="none" stroke-width="2"></path></g><g transform="translate(472 55)"><path d="M0 -25L21.7 -12.5L21.7 12.5L0 25L-21.7 12.5L-21.7 -12.5Z" stroke="#003772" fill="none" stroke-width="2"></path></g><g transform="translate(679 2)"><path d="M0 -85L73.6 -42.5L73.6 42.5L0 85L-73.6 42.5L-73.6 -42.5Z" stroke="#003772" fill="none" stroke-width="2"></path></g></g></svg>