<svg id="visual" viewBox="0 0 960 540" width="960" height="540" xmlns="http://www.w3.org/2000/svg" xmlns:xlink="http://www.w3.org/1999/xlink" version="1.1"><rect width="960" height="540" fill="#001220"></rect><g><g transform="translate(71 522)"><path d="M0 -92.7L80.3 -46.3L80.3 46.3L0 92.7L-80.3 46.3L-80.3 -46.3Z" fill="none" stroke="#003772" stroke-width="2"></path></g><g transform="translate(509 512)"><path d="M0 -57L49.4 -28.5L49.4 28.5L0 57L-49.4 28.5L-49.4 -28.5Z" fill="none" stroke="#003772" stroke-width="2"></path></g><g transform="translate(610 188)"><path d="M0 -54L46.8 -27L46.8 27L0 54L-46.8 27L-46.8 -27Z" fill="none" stroke="#003772" stroke-width="2"></path></g><g transform="translate(725 480)"><path d="M0 -51L44.2 -25.5L44.2 25.5L0 51L-44.2 25.5L-44.2 -25.5Z" fill="none" stroke="#003772" stroke-width="2"></path></g><g transform="translate(880 263)"><path d="M0 -78L67.5 -39L67.5 39L0 78L-67.5 39L-67.5 -39Z" fill="none" stroke="#003772" stroke-width="2"></path></g><g transform="translate(207 37)"><path d="M0 -76L65.8 -38L65.8 38L0 76L-65.8 38L-65.8 -38Z" fill="none" stroke="#003772" stroke-width="2"></path></g><g transform="translate(934 42)"><path d="M0 -63L54.6 -31.5L54.6 31.5L0 63L-54.6 31.5L-54.6 -31.5Z" stroke="#003772" fill="none" stroke-width="2"></path></g><g transform="translate(412 139)"><path d="M0 -79L68.4 -39.5L68.4 39.5L0 79L-68.4 39.5L-68.4 -39.5Z" stroke="#003772" fill="none" stroke-width="2"></path></g><g transform="translate(192 305)"><path d="M0 -45L39 -22.5L39 22.5L0 45L-39 22.5L-39 -22.5Z" stroke="#003772" fill="none" stroke-width="2"></path></g><g transform="translate(912 472)"><path d="M0 -46L39.8 -23L39.8 23L0 46L-39.8 23L-39.8 -23Z" stroke="#003772" fill="none" stroke-width="2"></path></g><g transform="translate(322 451)"><path d="M0 -60L52 -30L52 30L0 60L-52 30L-52 -30Z" stroke="#003772" fill="none" stroke-width="2"></path></g><g transform="translate(10 224)"><path d="M0 -82L71 -41L71 41L0 82L-71 41L-71 -41Z" stroke="#003772" fill="none" stroke-width="2"></path></g><g transform="translate(729 20)"><path d="M0 -16L13.9 -8L13.9 8L0 16L-13.9 8L-13.9 -8Z" stroke="#003772" fill="none" stroke-width="2"></path></g><g transform="translate(464 323)"><path d="M0 -86L74.5 -43L74.5 43L0 86L-74.5 43L-74.5 -43Z" stroke="#003772" fill="none" stroke-width="2"></path></g><g transform="translate(12 12)"><path d="M0 -87L75.3 -43.5L75.3 43.5L0 87L-75.3 43.5L-75.3 -43.5Z" stroke="#003772" fill="none" stroke-width="2"></path></g></g></svg>