<svg id="visual" viewBox="0 0 960 540" width="960" height="540" xmlns="http://www.w3.org/2000/svg" xmlns:xlink="http://www.w3.org/1999/xlink" version="1.1"><rect width="960" height="540" fill="#001220"></rect><g><g transform="translate(273 436)"><path d="M0 -92.7L80.3 -46.3L80.3 46.3L0 92.7L-80.3 46.3L-80.3 -46.3Z" fill="none" stroke="#003772" stroke-width="2"></path></g><g transform="translate(843 12)"><path d="M0 -32L27.7 -16L27.7 16L0 32L-27.7 16L-27.7 -16Z" fill="none" stroke="#003772" stroke-width="2"></path></g><g transform="translate(629 292)"><path d="M0 -75L65 -37.5L65 37.5L0 75L-65 37.5L-65 -37.5Z" fill="none" stroke="#003772" stroke-width="2"></path></g><g transform="translate(884 412)"><path d="M0 -14L12.1 -7L12.1 7L0 14L-12.1 7L-12.1 -7Z" fill="none" stroke="#003772" stroke-width="2"></path></g><g transform="translate(943 198)"><path d="M0 -52L45 -26L45 26L0 52L-45 26L-45 -26Z" fill="none" stroke="#003772" stroke-width="2"></path></g><g transform="translate(320 203)"><path d="M0 -65L56.3 -32.5L56.3 32.5L0 65L-56.3 32.5L-56.3 -32.5Z" fill="none" stroke="#003772" stroke-width="2"></path></g><g transform="translate(17 425)"><path d="M0 -47L40.7 -23.5L40.7 23.5L0 47L-40.7 23.5L-40.7 -23.5Z" stroke="#003772" fill="none" stroke-width="2"></path></g><g transform="translate(456 50)"><path d="M0 -79L68.4 -39.5L68.4 39.5L0 79L-68.4 39.5L-68.4 -39.5Z" stroke="#003772" fill="none" stroke-width="2"></path></g><g transform="translate(74 184)"><path d="M0 -76L65.8 -38L65.8 38L0 76L-65.8 38L-65.8 -38Z" stroke="#003772" fill="none" stroke-width="2"></path></g><g transform="translate(537 464)"><path d="M0 -52L45 -26L45 26L0 52L-45 26L-45 -26Z" stroke="#003772" fill="none" stroke-width="2"></path></g><g transform="translate(650 18)"><path d="M0 -76L65.8 -38L65.8 38L0 76L-65.8 38L-65.8 -38Z" stroke="#003772" fill="none" stroke-width="2"></path></g><g transform="translate(179 24)"><path d="M0 -37L32 -18.5L32 18.5L0 37L-32 18.5L-32 -18.5Z" stroke="#003772" fill="none" stroke-width="2"></path></g></g></svg>