<svg id="visual" viewBox="0 0 900 600" width="900" height="600" xmlns="http://www.w3.org/2000/svg" xmlns:xlink="http://www.w3.org/1999/xlink" version="1.1"><rect x="0" y="0" width="900" height="600" fill="#333333"></rect><g transform="translate(449.89297155510627 306.02446410556786)"><path d="M139.5 -171C183.5 -129.4 223.7 -88 224.5 -45.2C225.3 -2.5 186.7 41.5 159.8 96.2C132.9 151 117.8 216.4 82.2 232.1C46.6 247.8 -9.3 213.6 -48.1 179.1C-86.9 144.7 -108.4 109.8 -143.6 71.8C-178.9 33.7 -227.8 -7.5 -224.1 -41.5C-220.5 -75.4 -164.2 -102.1 -118.1 -143.3C-72 -184.5 -36 -240.2 5.9 -247.3C47.8 -254.3 95.6 -212.6 139.5 -171" fill="none" stroke="#181818" stroke-width="6"></path></g></svg>