<svg id="visual" viewBox="0 0 900 600" width="900" height="600" xmlns="http://www.w3.org/2000/svg" xmlns:xlink="http://www.w3.org/1999/xlink" version="1.1"><rect x="0" y="0" width="900" height="600" fill="#333333"></rect><g transform="translate(444.29074914661794 333.97489192852976)"><path d="M168.4 -187.2C217.6 -159.3 256.5 -105.7 261.7 -50.1C266.8 5.6 238.2 63.3 197.5 95.5C156.8 127.7 104.1 134.3 59.9 139.5C15.7 144.7 -19.8 148.5 -67.6 147.6C-115.5 146.8 -175.5 141.4 -211.1 108.1C-246.7 74.9 -257.8 13.7 -246.8 -42.6C-235.8 -99 -202.7 -150.6 -157.9 -179.2C-113.1 -207.8 -56.6 -213.4 1.5 -215.2C59.6 -217 119.1 -215 168.4 -187.2" fill="none" stroke="#181818" stroke-width="6"></path></g></svg>