<svg id="visual" viewBox="0 0 900 600" width="900" height="600" xmlns="http://www.w3.org/2000/svg" xmlns:xlink="http://www.w3.org/1999/xlink" version="1.1"><rect x="0" y="0" width="900" height="600" fill="#333333"></rect><g transform="translate(463.9368350085302 312.9240579463249)"><path d="M110.5 -131.6C136.1 -110.1 144.8 -68.6 161.7 -21.3C178.6 25.9 203.6 79 186.6 107C169.5 135 110.4 138 63 141.5C15.6 145 -20.1 149.1 -71.9 150.6C-123.8 152.1 -191.8 151.1 -212.5 120.2C-233.3 89.4 -206.7 28.8 -191.8 -30C-176.9 -88.9 -173.6 -145.9 -143.6 -166.6C-113.6 -187.3 -56.8 -171.7 -7.2 -163.1C42.4 -154.6 84.8 -153.1 110.5 -131.6" fill="none" stroke="#181818" stroke-width="6"></path></g></svg>