<svg id="visual" viewBox="0 0 900 600" width="900" height="600" xmlns="http://www.w3.org/2000/svg" xmlns:xlink="http://www.w3.org/1999/xlink" version="1.1"><rect x="0" y="0" width="900" height="600" fill="#333333"></rect><g transform="translate(431.9593297850187 270.94249432622473)"><path d="M174.8 -186.5C221.1 -169.5 249.4 -109.3 245.4 -54.7C241.4 -0.1 205.2 48.7 173.8 97.9C142.5 147.1 116 196.6 71.9 224.4C27.7 252.2 -34.2 258.1 -87 238.9C-139.7 219.7 -183.3 175.4 -200.6 125.5C-217.9 75.6 -208.9 20.2 -187.2 -20.8C-165.4 -61.8 -130.9 -88.4 -97.6 -107.7C-64.3 -126.9 -32.1 -139 16.1 -158.1C64.3 -177.3 128.6 -203.5 174.8 -186.5" fill="none" stroke="#181818" stroke-width="6"></path></g></svg>