<svg id="visual" viewBox="0 0 900 600" width="900" height="600" xmlns="http://www.w3.org/2000/svg" xmlns:xlink="http://www.w3.org/1999/xlink" version="1.1"><rect x="0" y="0" width="900" height="600" fill="#333333"></rect><g transform="translate(492.0060386203168 251.34101861528472)"><path d="M118.5 -139.9C144.4 -119.5 150 -73.4 154.2 -30.1C158.3 13.2 161 53.9 152.1 105.3C143.2 156.7 122.7 218.8 81.4 241.6C40.1 264.4 -22 247.8 -82.3 225.9C-142.7 204.1 -201.3 177.1 -226.5 131.6C-251.7 86.2 -243.5 22.3 -221.5 -28.1C-199.6 -78.5 -163.7 -115.5 -124.5 -133.5C-85.3 -151.6 -42.6 -150.8 1.8 -153C46.3 -155.2 92.6 -160.3 118.5 -139.9" fill="none" stroke="#181818" stroke-width="6"></path></g></svg>