<svg id="visual" viewBox="0 0 900 600" width="900" height="600" xmlns="http://www.w3.org/2000/svg" xmlns:xlink="http://www.w3.org/1999/xlink" version="1.1"><rect x="0" y="0" width="900" height="600" fill="#333333"></rect><g transform="translate(467.24162963296135 288.7391863936188)"><path d="M97.9 -134.9C125.4 -93.5 145.4 -61.3 152.7 -26.1C160 9.2 154.5 47.6 144 99.5C133.5 151.3 118.1 216.6 79.5 240C40.9 263.4 -20.7 244.9 -75.2 219.5C-129.7 194.1 -177 161.8 -187.9 119.7C-198.8 77.7 -173.3 25.8 -154.3 -17.7C-135.3 -61.3 -122.9 -96.5 -98.3 -138.5C-73.7 -180.5 -36.9 -229.3 -0.9 -228.2C35.1 -227.2 70.3 -176.4 97.9 -134.9" fill="none" stroke="#181818" stroke-width="6"></path></g></svg>