<svg id="visual" viewBox="0 0 900 600" width="900" height="600" xmlns="http://www.w3.org/2000/svg" xmlns:xlink="http://www.w3.org/1999/xlink" version="1.1"><rect x="0" y="0" width="900" height="600" fill="#333333"></rect><g transform="translate(479.41078208128465 292.8795967018254)"><path d="M101.7 -111.5C139.1 -89.8 181.8 -64.7 201.3 -25C220.7 14.6 216.9 68.8 191.7 109.1C166.5 149.3 120 175.7 72.2 189C24.4 202.3 -24.7 202.7 -78.9 193.2C-133 183.6 -192.1 164.3 -229 121.8C-265.9 79.3 -280.7 13.6 -267.9 -45.2C-255 -103.9 -214.6 -155.8 -165.4 -175.4C-116.1 -195.1 -58.1 -182.5 -13 -167.1C32.1 -151.6 64.3 -133.3 101.7 -111.5" fill="none" stroke="#181818" stroke-width="6"></path></g></svg>