<svg id="visual" viewBox="0 0 900 600" width="900" height="600" xmlns="http://www.w3.org/2000/svg" xmlns:xlink="http://www.w3.org/1999/xlink" version="1.1"><rect x="0" y="0" width="900" height="600" fill="#333333"></rect><g transform="translate(424.18212139127877 302.0543901598231)"><path d="M116.2 -136.5C144.6 -114.7 157.5 -72.4 178.8 -21.2C200.2 30 230 90 210.3 119C190.6 147.9 121.5 145.8 68.3 148.1C15 150.4 -22.2 156.9 -55.6 147.2C-89 137.5 -118.6 111.5 -139 78.9C-159.5 46.3 -170.8 7.1 -162.2 -26.3C-153.6 -59.7 -125 -87.3 -94.6 -108.8C-64.3 -130.3 -32.1 -145.6 5.9 -152.7C43.9 -159.7 87.8 -158.4 116.2 -136.5" fill="none" stroke="#181818" stroke-width="6"></path></g></svg>