<svg id="visual" viewBox="0 0 900 600" width="900" height="600" xmlns="http://www.w3.org/2000/svg" xmlns:xlink="http://www.w3.org/1999/xlink" version="1.1"><rect x="0" y="0" width="900" height="600" fill="#333333"></rect><g transform="translate(418.56241046093044 271.77118314520027)"><path d="M154.3 -168.2C200.6 -145 239.1 -97 247.6 -44.3C256.2 8.4 234.6 65.7 200.5 107.4C166.4 149 119.8 175.1 67.2 201.5C14.6 228 -44 255 -82.2 236.5C-120.4 217.9 -138.1 154 -156.5 100.7C-174.8 47.5 -193.8 5 -183.9 -29.2C-174 -63.3 -135.2 -89.1 -99.7 -114.2C-64.3 -139.3 -32.1 -163.6 10.9 -176.7C54 -189.7 108 -191.4 154.3 -168.2" fill="none" stroke="#181818" stroke-width="6"></path></g></svg>