<svg id="visual" viewBox="0 0 900 600" width="900" height="600" xmlns="http://www.w3.org/2000/svg" xmlns:xlink="http://www.w3.org/1999/xlink" version="1.1"><rect x="0" y="0" width="900" height="600" fill="#333333"></rect><g transform="translate(452.31726984278686 321.1665896503929)"><path d="M110.7 -119.6C157.2 -93 217.9 -71.1 233.6 -33.6C249.3 3.9 219.9 57 183.6 93C147.3 129.1 104.1 148.2 61.5 159.6C18.9 171 -23 174.8 -69.5 167.9C-116.1 161 -167.2 143.5 -199.7 106.1C-232.2 68.7 -246.1 11.4 -241.8 -47.9C-237.6 -107.2 -215.2 -168.5 -171.9 -195.7C-128.6 -222.9 -64.3 -215.9 -16.1 -196.8C32.1 -177.6 64.3 -146.3 110.7 -119.6" fill="none" stroke="#181818" stroke-width="6"></path></g></svg>