<svg id="visual" viewBox="0 0 960 540" width="960" height="540" xmlns="http://www.w3.org/2000/svg" xmlns:xlink="http://www.w3.org/1999/xlink" version="1.1"><rect width="960" height="540" fill="#001220"></rect><g><g transform="translate(667 86)"><path d="M0 -92.7L80.3 -46.3L80.3 46.3L0 92.7L-80.3 46.3L-80.3 -46.3Z" fill="none" stroke="#003772" stroke-width="2"></path></g><g transform="translate(418 534)"><path d="M0 -61L52.8 -30.5L52.8 30.5L0 61L-52.8 30.5L-52.8 -30.5Z" fill="none" stroke="#003772" stroke-width="2"></path></g><g transform="translate(672 530)"><path d="M0 -35L30.3 -17.5L30.3 17.5L0 35L-30.3 17.5L-30.3 -17.5Z" fill="none" stroke="#003772" stroke-width="2"></path></g><g transform="translate(172 66)"><path d="M0 -91L78.8 -45.5L78.8 45.5L0 91L-78.8 45.5L-78.8 -45.5Z" fill="none" stroke="#003772" stroke-width="2"></path></g><g transform="translate(3 227)"><path d="M0 -20L17.3 -10L17.3 10L0 20L-17.3 10L-17.3 -10Z" fill="none" stroke="#003772" stroke-width="2"></path></g><g transform="translate(674 305)"><path d="M0 -65L56.3 -32.5L56.3 32.5L0 65L-56.3 32.5L-56.3 -32.5Z" fill="none" stroke="#003772" stroke-width="2"></path></g><g transform="translate(411 317)"><path d="M0 -60L52 -30L52 30L0 60L-52 30L-52 -30Z" stroke="#003772" fill="none" stroke-width="2"></path></g><g transform="translate(914 530)"><path d="M0 -48L41.6 -24L41.6 24L0 48L-41.6 24L-41.6 -24Z" stroke="#003772" fill="none" stroke-width="2"></path></g><g transform="translate(942 194)"><path d="M0 -65L56.3 -32.5L56.3 32.5L0 65L-56.3 32.5L-56.3 -32.5Z" stroke="#003772" fill="none" stroke-width="2"></path></g><g transform="translate(131 412)"><path d="M0 -20L17.3 -10L17.3 10L0 20L-17.3 10L-17.3 -10Z" stroke="#003772" fill="none" stroke-width="2"></path></g><g transform="translate(371 95)"><path d="M0 -28L24.2 -14L24.2 14L0 28L-24.2 14L-24.2 -14Z" stroke="#003772" fill="none" stroke-width="2"></path></g><g transform="translate(867 19)"><path d="M0 -62L53.7 -31L53.7 31L0 62L-53.7 31L-53.7 -31Z" stroke="#003772" fill="none" stroke-width="2"></path></g></g></svg>