<svg id="visual" viewBox="0 0 960 540" width="960" height="540" xmlns="http://www.w3.org/2000/svg" xmlns:xlink="http://www.w3.org/1999/xlink" version="1.1"><rect width="960" height="540" fill="#001220"></rect><g><g transform="translate(163 184)"><path d="M0 -92.7L80.3 -46.3L80.3 46.3L0 92.7L-80.3 46.3L-80.3 -46.3Z" fill="none" stroke="#003772" stroke-width="2"></path></g><g transform="translate(899 231)"><path d="M0 -75L65 -37.5L65 37.5L0 75L-65 37.5L-65 -37.5Z" fill="none" stroke="#003772" stroke-width="2"></path></g><g transform="translate(638 116)"><path d="M0 -69L59.8 -34.5L59.8 34.5L0 69L-59.8 34.5L-59.8 -34.5Z" fill="none" stroke="#003772" stroke-width="2"></path></g><g transform="translate(353 29)"><path d="M0 -21L18.2 -10.5L18.2 10.5L0 21L-18.2 10.5L-18.2 -10.5Z" fill="none" stroke="#003772" stroke-width="2"></path></g><g transform="translate(585 466)"><path d="M0 -83L71.9 -41.5L71.9 41.5L0 83L-71.9 41.5L-71.9 -41.5Z" fill="none" stroke="#003772" stroke-width="2"></path></g><g transform="translate(311 467)"><path d="M0 -81L70.1 -40.5L70.1 40.5L0 81L-70.1 40.5L-70.1 -40.5Z" fill="none" stroke="#003772" stroke-width="2"></path></g><g transform="translate(501 257)"><path d="M0 -63L54.6 -31.5L54.6 31.5L0 63L-54.6 31.5L-54.6 -31.5Z" stroke="#003772" fill="none" stroke-width="2"></path></g><g transform="translate(845 516)"><path d="M0 -47L40.7 -23.5L40.7 23.5L0 47L-40.7 23.5L-40.7 -23.5Z" stroke="#003772" fill="none" stroke-width="2"></path></g><g transform="translate(80 517)"><path d="M0 -35L30.3 -17.5L30.3 17.5L0 35L-30.3 17.5L-30.3 -17.5Z" stroke="#003772" fill="none" stroke-width="2"></path></g><g transform="translate(949 42)"><path d="M0 -75L65 -37.5L65 37.5L0 75L-65 37.5L-65 -37.5Z" stroke="#003772" fill="none" stroke-width="2"></path></g><g transform="translate(24 329)"><path d="M0 -50L43.3 -25L43.3 25L0 50L-43.3 25L-43.3 -25Z" stroke="#003772" fill="none" stroke-width="2"></path></g><g transform="translate(684 304)"><path d="M0 -32L27.7 -16L27.7 16L0 32L-27.7 16L-27.7 -16Z" stroke="#003772" fill="none" stroke-width="2"></path></g><g transform="translate(26 22)"><path d="M0 -27L23.4 -13.5L23.4 13.5L0 27L-23.4 13.5L-23.4 -13.5Z" stroke="#003772" fill="none" stroke-width="2"></path></g></g></svg>