<svg id="visual" viewBox="0 0 960 540" width="960" height="540" xmlns="http://www.w3.org/2000/svg" xmlns:xlink="http://www.w3.org/1999/xlink" version="1.1"><rect width="960" height="540" fill="#001220"></rect><g><g transform="translate(761 289)"><path d="M0 -92.7L80.3 -46.3L80.3 46.3L0 92.7L-80.3 46.3L-80.3 -46.3Z" fill="none" stroke="#003772" stroke-width="2"></path></g><g transform="translate(688 525)"><path d="M0 -34L29.4 -17L29.4 17L0 34L-29.4 17L-29.4 -17Z" fill="none" stroke="#003772" stroke-width="2"></path></g><g transform="translate(575 239)"><path d="M0 -19L16.5 -9.5L16.5 9.5L0 19L-16.5 9.5L-16.5 -9.5Z" fill="none" stroke="#003772" stroke-width="2"></path></g><g transform="translate(359 73)"><path d="M0 -16L13.9 -8L13.9 8L0 16L-13.9 8L-13.9 -8Z" fill="none" stroke="#003772" stroke-width="2"></path></g><g transform="translate(44 458)"><path d="M0 -13L11.3 -6.5L11.3 6.5L0 13L-11.3 6.5L-11.3 -6.5Z" fill="none" stroke="#003772" stroke-width="2"></path></g><g transform="translate(958 87)"><path d="M0 -33L28.6 -16.5L28.6 16.5L0 33L-28.6 16.5L-28.6 -16.5Z" fill="none" stroke="#003772" stroke-width="2"></path></g><g transform="translate(231 445)"><path d="M0 -84L72.7 -42L72.7 42L0 84L-72.7 42L-72.7 -42Z" stroke="#003772" fill="none" stroke-width="2"></path></g><g transform="translate(30 114)"><path d="M0 -61L52.8 -30.5L52.8 30.5L0 61L-52.8 30.5L-52.8 -30.5Z" stroke="#003772" fill="none" stroke-width="2"></path></g><g transform="translate(726 53)"><path d="M0 -60L52 -30L52 30L0 60L-52 30L-52 -30Z" stroke="#003772" fill="none" stroke-width="2"></path></g><g transform="translate(493 481)"><path d="M0 -39L33.8 -19.5L33.8 19.5L0 39L-33.8 19.5L-33.8 -19.5Z" stroke="#003772" fill="none" stroke-width="2"></path></g><g transform="translate(235 223)"><path d="M0 -87L75.3 -43.5L75.3 43.5L0 87L-75.3 43.5L-75.3 -43.5Z" stroke="#003772" fill="none" stroke-width="2"></path></g><g transform="translate(899 517)"><path d="M0 -71L61.5 -35.5L61.5 35.5L0 71L-61.5 35.5L-61.5 -35.5Z" stroke="#003772" fill="none" stroke-width="2"></path></g><g transform="translate(542 13)"><path d="M0 -37L32 -18.5L32 18.5L0 37L-32 18.5L-32 -18.5Z" stroke="#003772" fill="none" stroke-width="2"></path></g><g transform="translate(952 286)"><path d="M0 -74L64.1 -37L64.1 37L0 74L-64.1 37L-64.1 -37Z" stroke="#003772" fill="none" stroke-width="2"></path></g></g></svg>