<svg id="visual" viewBox="0 0 960 540" width="960" height="540" xmlns="http://www.w3.org/2000/svg" xmlns:xlink="http://www.w3.org/1999/xlink" version="1.1"><rect width="960" height="540" fill="#001220"></rect><g><g transform="translate(364 492)"><path d="M0 -92.7L80.3 -46.3L80.3 46.3L0 92.7L-80.3 46.3L-80.3 -46.3Z" fill="none" stroke="#003772" stroke-width="2"></path></g><g transform="translate(933 203)"><path d="M0 -35L30.3 -17.5L30.3 17.5L0 35L-30.3 17.5L-30.3 -17.5Z" fill="none" stroke="#003772" stroke-width="2"></path></g><g transform="translate(364 211)"><path d="M0 -62L53.7 -31L53.7 31L0 62L-53.7 31L-53.7 -31Z" fill="none" stroke="#003772" stroke-width="2"></path></g><g transform="translate(13 68)"><path d="M0 -27L23.4 -13.5L23.4 13.5L0 27L-23.4 13.5L-23.4 -13.5Z" fill="none" stroke="#003772" stroke-width="2"></path></g><g transform="translate(35 279)"><path d="M0 -78L67.5 -39L67.5 39L0 78L-67.5 39L-67.5 -39Z" fill="none" stroke="#003772" stroke-width="2"></path></g><g transform="translate(748 405)"><path d="M0 -24L20.8 -12L20.8 12L0 24L-20.8 12L-20.8 -12Z" fill="none" stroke="#003772" stroke-width="2"></path></g><g transform="translate(237 35)"><path d="M0 -91L78.8 -45.5L78.8 45.5L0 91L-78.8 45.5L-78.8 -45.5Z" stroke="#003772" fill="none" stroke-width="2"></path></g><g transform="translate(806 67)"><path d="M0 -84L72.7 -42L72.7 42L0 84L-72.7 42L-72.7 -42Z" stroke="#003772" fill="none" stroke-width="2"></path></g><g transform="translate(562 71)"><path d="M0 -29L25.1 -14.5L25.1 14.5L0 29L-25.1 14.5L-25.1 -14.5Z" stroke="#003772" fill="none" stroke-width="2"></path></g><g transform="translate(545 433)"><path d="M0 -77L66.7 -38.5L66.7 38.5L0 77L-66.7 38.5L-66.7 -38.5Z" stroke="#003772" fill="none" stroke-width="2"></path></g><g transform="translate(139 537)"><path d="M0 -15L13 -7.5L13 7.5L0 15L-13 7.5L-13 -7.5Z" stroke="#003772" fill="none" stroke-width="2"></path></g><g transform="translate(205 355)"><path d="M0 -83L71.9 -41.5L71.9 41.5L0 83L-71.9 41.5L-71.9 -41.5Z" stroke="#003772" fill="none" stroke-width="2"></path></g><g transform="translate(908 500)"><path d="M0 -24L20.8 -12L20.8 12L0 24L-20.8 12L-20.8 -12Z" stroke="#003772" fill="none" stroke-width="2"></path></g><g transform="translate(615 259)"><path d="M0 -75L65 -37.5L65 37.5L0 75L-65 37.5L-65 -37.5Z" stroke="#003772" fill="none" stroke-width="2"></path></g></g></svg>