<svg id="visual" viewBox="0 0 960 540" width="960" height="540" xmlns="http://www.w3.org/2000/svg" xmlns:xlink="http://www.w3.org/1999/xlink" version="1.1"><rect width="960" height="540" fill="#001220"></rect><g><g transform="translate(663 143)"><path d="M0 -92.7L80.3 -46.3L80.3 46.3L0 92.7L-80.3 46.3L-80.3 -46.3Z" fill="none" stroke="#003772" stroke-width="2"></path></g><g transform="translate(745 376)"><path d="M0 -84L72.7 -42L72.7 42L0 84L-72.7 42L-72.7 -42Z" fill="none" stroke="#003772" stroke-width="2"></path></g><g transform="translate(216 187)"><path d="M0 -88L76.2 -44L76.2 44L0 88L-76.2 44L-76.2 -44Z" fill="none" stroke="#003772" stroke-width="2"></path></g><g transform="translate(1 190)"><path d="M0 -58L50.2 -29L50.2 29L0 58L-50.2 29L-50.2 -29Z" fill="none" stroke="#003772" stroke-width="2"></path></g><g transform="translate(153 474)"><path d="M0 -61L52.8 -30.5L52.8 30.5L0 61L-52.8 30.5L-52.8 -30.5Z" fill="none" stroke="#003772" stroke-width="2"></path></g><g transform="translate(937 242)"><path d="M0 -36L31.2 -18L31.2 18L0 36L-31.2 18L-31.2 -18Z" fill="none" stroke="#003772" stroke-width="2"></path></g><g transform="translate(479 97)"><path d="M0 -50L43.3 -25L43.3 25L0 50L-43.3 25L-43.3 -25Z" stroke="#003772" fill="none" stroke-width="2"></path></g><g transform="translate(528 306)"><path d="M0 -63L54.6 -31.5L54.6 31.5L0 63L-54.6 31.5L-54.6 -31.5Z" stroke="#003772" fill="none" stroke-width="2"></path></g><g transform="translate(392 450)"><path d="M0 -37L32 -18.5L32 18.5L0 37L-32 18.5L-32 -18.5Z" stroke="#003772" fill="none" stroke-width="2"></path></g><g transform="translate(858 71)"><path d="M0 -25L21.7 -12.5L21.7 12.5L0 25L-21.7 12.5L-21.7 -12.5Z" stroke="#003772" fill="none" stroke-width="2"></path></g><g transform="translate(101 14)"><path d="M0 -46L39.8 -23L39.8 23L0 46L-39.8 23L-39.8 -23Z" stroke="#003772" fill="none" stroke-width="2"></path></g><g transform="translate(622 525)"><path d="M0 -53L45.9 -26.5L45.9 26.5L0 53L-45.9 26.5L-45.9 -26.5Z" stroke="#003772" fill="none" stroke-width="2"></path></g><g transform="translate(898 538)"><path d="M0 -32L27.7 -16L27.7 16L0 32L-27.7 16L-27.7 -16Z" stroke="#003772" fill="none" stroke-width="2"></path></g><g transform="translate(300 20)"><path d="M0 -59L51.1 -29.5L51.1 29.5L0 59L-51.1 29.5L-51.1 -29.5Z" stroke="#003772" fill="none" stroke-width="2"></path></g></g></svg>